<svg xmlns="http://www.w3.org/2000/svg" viewBox="0 0 692.12 392.56" xmlns:v="https://vecta.io/nano"><path d="M229.38 59.15c1.75 0 3.38.13 4.88.25 10.52.75 23.04 1.63 38.2 7.01 9.39 3.26 16.78 7.14 21.79 10.15l-13.4 20.66c-10.27-1.25-21.17-2.38-32.69-3.01L233 93.58c-6.01-.13-11.9-.13-17.66 0-9.77 0-19.04.38-27.8 1l16.91-34.82 6.39-.38c7.01-.5 13.27-.5 18.53-.25zM52.1 77.31c5.26-2.13 9.52-4.13 13.02-5.89 6.14-3.13 23.92-12.9 34.94-19.04 5.51-3.13 5.01-2.88 5.51-3.01 4.13-2.13 8.14-3.76 12.4-4.88 5.64-1.5 11.65-2.25 19.16-2.76 11.4-.75 26.05-.5 47.09-.75 1 0 1.88 0 3.13-.13 5.14-.25 14.4-.75 22.42-4.51 3.51-1.75 6.76-4.01 9.27-7.14 1.88-2.13 5.26-7.14 5.89-15.91l-18.16.25-75.27.88-18.66.5c-.38 0-1 .13-1.75.25-.88 0-2 .12-3.38.37-10.9 1.75-18.41 7.14-21.42 9.27C65.38 39.59 53.85 47.6 44.08 52.24c-.88.5-1.63.88-2.5 1.25-4.88 2.13-10.15 4.01-16.03 5.26-1.88.5-3.76.88-5.76 1.25l-.12 26.3c5.13-1 9.89-2.13 14.28-3.26 7.01-1.88 13.03-3.88 18.16-5.76zM340.87 228.1h18.14v-77.29h24.41l48.58-.12-47.11-45.89c-3.44-3.19-6.75-6.5-10.18-9.82h-63.39l-10.18 9.82-47.11 45.89 48.58.12h22.04v77.29h16.21zM86.38 283.93H56.02c-2.4 0-4.45 1.73-4.85 4.09l-.82 4.81c-.83 4.98 1.3 10.14 5.48 13.46l.42 66.93h10.02c4.07.05 7.8.15 12.98-.56l9.54-1.33c4.75-.66 8.29-4.73 8.29-9.53v-67.18a10.7 10.7 0 0 0-10.7-10.7zm210.6-226.69c5.8 3.03 11.59 5.8 19.36 8.17.13 0 .4.13.53.13 2.63.79 12.51 3.29 25.55 3.69h1.93c13.04-.39 22.92-2.9 25.55-3.69.13 0 .4-.13.53-.13 7.77-2.37 13.57-5.14 19.36-8.17 9.22-5.01 18.44-10.67 36.49-15.15 9.62-2.5 17.65-3.69 23.05-4.21L424.7 10.22c-12.78-1.45-22.66-.26-29.11 1.06a60.93 60.93 0 0 0-4.48 1.18c-4.48 1.32-10.93 3.29-20.42 6.45-1.58.53-3.29 1.19-5 1.71-11.99 3.95-16.2 5.53-21.34 5.66h-1.93c-5.14-.13-9.35-1.71-21.34-5.66-1.71-.53-3.43-1.18-5.01-1.71-9.48-3.16-15.94-5.14-20.42-6.45a55.16 55.16 0 0 0-4.48-1.18c-6.45-1.32-16.33-2.5-29.11-1.06l-24.63 27.66c5.4.53 13.44 1.71 23.05 4.21 18.05 4.48 27.27 10.14 36.49 15.15zm-157.65 4.04c-3.26 0-6.64.25-10.52.75-2.38.25-3.63.38-5.51.75-1 .13-1.88.38-2.76.63-14.15 3.38-22.04 10.77-44.33 22.54L71.7 88.2l15.03 19.91a537.91 537.91 0 0 1 41.45-7.64c.38 0 .75-.13 1.13-.13 6.14-.88 12.02-1.63 17.78-2.25 6.76-.88 13.4-1.38 19.79-1.88l16.41-34.82c-1.25.13-3.26.25-5.51.38-17.16.88-26.05-1-38.45-.5zm-15.28 113.47c-8.16 6.77-20.58 15.68-37.26 22.58-1.13.63-2.38 1.01-3.51 1.51-3.89 1.51-7.78 2.76-11.42 3.76-10.16 3.01-19.32 4.52-26.72 5.15l-.5-48.81 12.17.25c5.52-.12 11.42-.38 17.56-.88 1.25 0 2.51-.13 3.76-.25 10.67-1 20.45-2.51 29.11-4.26-11.29-7.4-24.21-17.44-36.89-30.86-4.39-4.77-8.28-9.41-11.67-13.8-.75-.88-1.38-1.63-2.01-2.51l-17.57 1.38-19.32 1.63 4.29 128.86v7.14c.35-.13 1.27-.25 2.43-.38 6.76-1.03 24.36-3.48 31.92-1.14v22.63h23.81c15.31 0 27.72 12.41 27.72 27.72v63.63c2.97.33 9.02.6 15.76-2.06 4.78-1.88 8.07-4.51 10-6.33V247.77a8.59 8.59 0 0 1 8.59 8.59v72.24s2.59-.07 5.37-1.07c9.55-3.45 11.81-15.24 11.81-15.24v-78.5a54.12 54.12 0 0 0-16.61-39.01l-20.83-20.03zm110.44-55.61c3.03-2.38 4.66-4.63 6.42-7.01-2 0-4.01 0-5.89.12-6.14 0-11.77.25-17.16.38l-23.17 1.25c-17.03 1.13-30.68 2.63-43.46 4.13-2.5.25-4.88.63-7.39.88l-9.89 1.13-27.8 3.76 33.31 25.55c.5 0 .88-.13 1.38-.13 5.39-.75 11.02-1.38 16.66-1.88 6.26-.63 12.65-1.13 19.16-1.63 14.15-1 27.8-1.63 40.83-1.75 1.25-1.75 2.5-3.38 4.12-5.13v-.13c4.52-6.51 9.28-13.02 12.88-19.41v-.13zm-72.74 48.59c-1.5.12-2.88.37-4.26.62l5.51 5.64 21.67 22.04c.88 1.25 2.38 3.13 4.38 3.38 2.88.25 5.39-2.88 7.64-6.26 2.88-4.38 7.76-12.77 12.4-27.68-6.14-.38-12.77-.5-19.79-.38-10.02.38-19.29 1.25-27.55 2.63zm230.78-91.17l13.4 20.66c10.27-1.25 21.17-2.38 32.69-3.01l15.16-.63c6.01-.13 11.9-.13 17.66 0 9.77 0 19.04.38 27.8 1l-16.91-34.82-6.39-.38c-7.01-.5-13.27-.5-18.53-.25-1.75 0-3.38.13-4.88.25-10.52.75-23.04 1.63-38.2 7.01-9.39 3.26-16.78 7.14-21.79 10.15zm85.54-40.21c8.02 3.76 17.28 4.26 22.42 4.51 1.25.13 2.13.13 3.13.13 21.04.25 35.69 0 47.09.75 7.51.5 13.53 1.25 19.16 2.76 4.26 1.13 8.27 2.76 12.4 4.88.5.13 0-.13 5.51 3.01l34.94 19.04c3.51 1.75 7.76 3.76 13.02 5.89 5.13 1.88 11.15 3.88 18.16 5.76 4.38 1.13 9.14 2.25 14.28 3.26l-.12-26.3c-2-.38-3.88-.75-5.76-1.25-5.89-1.25-11.15-3.13-16.03-5.26a23.31 23.31 0 0 1-2.5-1.25c-9.77-4.63-21.29-12.65-42.21-27.43-3.01-2.13-10.52-7.51-21.42-9.27-1.38-.25-2.5-.37-3.38-.37-.75-.13-1.38-.25-1.75-.25l-18.66-.5-75.27-.88-18.16-.25c.63 8.77 4.01 13.78 5.89 15.91 2.5 3.13 5.76 5.39 9.27 7.14zm149.8 247.58h-16.29c-11.43 0-20.69 9.27-20.69 20.69v49.36a18.62 18.62 0 0 0 16.04 18.44l1.79.25c5.18.71 8.91.6 12.97.56h10.02l.42-66.93c4.18-3.32 6.3-8.47 5.48-13.46l-.15-.84c-.82-4.66-4.86-8.06-9.6-8.06zM563.48 62.78c-1.88-.38-3.13-.5-5.51-.75-3.88-.5-7.26-.75-10.52-.75-12.4-.5-21.29 1.38-38.45.5l-5.51-.38 16.41 34.82c6.39.5 13.02 1 19.79 1.88 5.76.63 11.65 1.38 17.78 2.25.38 0 .75.13 1.13.13a538.2 538.2 0 0 1 41.46 7.64l15.03-19.91c-.88-.5-2.5-1.25-4.51-2.25-22.29-11.77-30.18-19.16-44.33-22.54-.88-.25-1.75-.5-2.76-.63zM445.94 173.25c-8.94 7.26-23.44 16.66-42.82 21.54-5.22 1.25-10.1 2.13-14.62 2.63-3.83.38-7.43.63-10.68.63l-1.16 41.83-1.97 1.38-23.09 16.91h-15.2l-23.1-16.91-1.97-1.38-1.16-41.83c-3.25 0-6.85-.25-10.68-.63-4.53-.5-9.4-1.38-14.62-2.63-19.38-4.88-33.89-14.28-42.82-21.54-.47-.38-.93-.63-1.28-1l-6.27-6.26v142.53c0 8.27 4.87 15.15 11.72 17.53 1.74.63 3.6 1 5.45 1v-78.21c0-.88.49-4.13 3.03-6.89 2.31-2.25 4.86-2.88 6.07-3.01l.73 109.08c2.55 2 6.07 4.51 10.56 6.64 5.46 2.5 10.44 3.51 13.96 4.01V307.7c0-14.15 7.04-26.55 17.72-33.81 3.64-2.5 7.89-4.38 12.38-5.38 2.91-.88 6.07-1.25 9.23-1.25l14.93-.5h7.42c5.1.25 9.95.37 14.93.5 3.16 0 6.31.38 9.23 1.25 4.49 1 8.74 2.88 12.38 5.38 10.68 7.26 17.72 19.66 17.72 33.81v50.97c3.52-.5 8.5-1.5 13.96-4.01 4.49-2.13 8.01-4.63 10.56-6.64l.73-109.08c1.21.12 3.76.75 6.07 3.01 2.55 2.76 3.03 6.01 3.03 6.89v78.21c1.86 0 3.71-.38 5.45-1 6.85-2.38 11.72-9.27 11.72-17.53V165.99l-6.27 6.26c-.35.38-.81.63-1.28 1zm202-67.03l-18.05-1.42c-.64.9-1.29 1.68-2.06 2.58-3.48 4.51-7.48 9.28-11.99 14.18-13.02 13.8-26.3 24.11-37.9 31.72 8.9 1.8 18.95 3.35 29.91 4.38 1.29.13 2.58.26 3.87.26 6.32.52 12.38.77 18.05.9 4.38 0 8.51-.13 12.51-.26l-.52 50.15c-7.61-.65-17.02-2.19-27.46-5.29-3.74-1.03-7.74-2.32-11.73-3.87-1.16-.52-2.45-.9-3.61-1.55-17.15-7.09-29.91-16.24-38.29-23.2l-21.86 21.01c-10.61 10.2-16.62 24.29-16.62 39.02v77.14c0 5.69 3.84 12.24 13.75 15.82 2.89 1.04 5.59 1.22 7.72 1.11v-72.55a8.59 8.59 0 0 1 8.59-8.59V349.7c1.93 1.81 5.22 4.44 10 6.33 6.75 2.66 12.79 2.39 15.76 2.06v-63.63c0-15.31 12.41-27.72 27.72-27.72h23.81v-22.63c8.51-2.34 28.31.11 35.91 1.14 1.3.13 2.35.25 2.74.38v-5.2l-.39-132.53-19.85-1.68zM381.17 294.79c-2.38-1.52-5.15-2.28-8.16-2.28h-58.05c-3.01 0-5.77.76-8.16 2.28-4.77 2.78-7.9 7.84-7.9 13.79V345c0 9.99 3.89 19.22 10.16 25.93 3.01 3.16 6.52 5.82 10.41 7.72 5.02 2.66 10.79 4.05 16.81 4.05h15.39c6.02 0 11.8-1.39 16.81-4.05 3.89-1.9 7.4-4.55 10.41-7.72 6.27-6.7 10.16-15.94 10.16-25.93v-36.42c0-5.94-3.14-11-7.9-13.79zm148.12-147.47c5.64.5 11.27 1.13 16.66 1.88.5 0 .88.13 1.38.13l33.31-25.55c-7.26-1.13-16.66-2.38-27.8-3.76l-9.89-1.13c-2.5-.25-4.88-.63-7.39-.88-12.77-1.5-26.43-3.01-43.46-4.13l-23.17-1.25-17.16-.38c-1.88-.12-3.88-.12-5.89-.12 1.75 2.38 3.38 4.63 7.6 7.01v.13c2.42 6.39 7.18 12.9 12.88 19.41v.13c.43 1.75 1.68 3.38 2.94 5.13 13.02.13 26.68.75 40.83 1.75l19.16 1.63zm-4.26 20.41c-8.27-1.38-17.53-2.25-27.55-2.63-7.01-.13-13.65 0-19.79.38 4.63 14.9 9.52 23.29 12.4 27.68 2.25 3.38 4.76 6.51 7.64 6.26 2-.25 3.51-2.13 4.38-3.38L523.78 174l5.51-5.64c-1.38-.25-2.76-.5-4.26-.62z" fill="#fff"/></svg>