<svg xmlns="http://www.w3.org/2000/svg" xmlns:xlink="http://www.w3.org/1999/xlink" version="1.1" id="Layer_1" x="0px" y="0px" viewBox="0 0 716.9 178.4" style="enable-background:new 0 0 716.9 178.4;" xml:space="preserve">
<style type="text/css">
	.st0{fill-rule:evenodd;clip-rule:evenodd;fill:#9D9FA2;}
	.st1{fill-rule:evenodd;clip-rule:evenodd;}
	.st2{fill-rule:evenodd;clip-rule:evenodd;fill:#ED1C24;}
	.st3{fill-rule:evenodd;clip-rule:evenodd;fill:#FEC240;}
	.st4{fill-rule:evenodd;clip-rule:evenodd;fill:#00AEEF;}
	.st5{fill-rule:evenodd;clip-rule:evenodd;fill:#FFFFFF;}
	.text{fill:#000000;}
</style>
<g>
	<g>
		<path class="st0" d="M80.1,169.9c1.3-2.3,3.1-4.3,5.8-5.7c0.9,0.4,1.7,0.9,2.6,1.7c-2.1,1.5-3.9,3.2-5.3,5.2    C81.9,171,81,170.6,80.1,169.9"/>
	</g>
	<g>
		<path class="st0" d="M84.7,171.6c1.5-2.2,3.3-3.6,5.2-4.7c1.9-0.7,2.8,0.7,3.3,2.5l-0.3,3.3C89.4,173,86.3,172.8,84.7,171.6"/>
	</g>
	<g>
		<path class="st0" d="M87.8,162.8l3.4-3.4c4.8,2.3,6.9,6.6,5.8,12.1l-2.7,0.3c0.3-4.7-1.1-7-4.5-6.4L87.8,162.8z"/>
	</g>
	<g>
		<path class="st0" d="M101.7,138.7l10.5,6.9c-6.4,5.6-10.6,12.4-10.9,21.7l-3,1c0.5-3.5-1.6-6.8-6.4-10    C97.4,152.6,100,145.8,101.7,138.7"/>
	</g>
	<g>
		<path class="st0" d="M102.3,135.4c5.2,2.2,11,4.4,17.1,6c-1.7,1.6-3.6,2.6-5.3,3.2c-4.3-2.3-7.9-4.6-12.1-7.3L102.3,135.4z"/>
	</g>
	<g>
		<path class="st0" d="M102.5,133.3L120,134c0.1,1.9,0.2,3.7-0.1,5.8c-5.9-1.7-12-3.3-17.4-5.2V133.3z"/>
	</g>
	<g>
		<path class="st0" d="M102.5,108.5c3.9-1.1,13.5-2.3,14.1,3.7c-0.3,6.9,2.6,11.6,4.9,15.4c0.3,2.1-0.7,4.3-1.8,5.2l-17.1-0.4    L102.5,108.5L102.5,108.5z"/>
	</g>
	<g>
		<path class="st0" d="M144,173.6h7.6c0.8-3.1,0.1-4.8-2.1-5C147.6,168.7,145.8,170.8,144,173.6"/>
	</g>
	<g>
		<path class="st0" d="M137.3,173.5h5.1c0.7-2.1,1.8-3,3.5-4.9c-0.3-1.9-2.4-1.7-4.1-1C139.9,169.7,138.4,171.4,137.3,173.5"/>
	</g>
	<g>
		<path class="st0" d="M131.1,173.5h5.1c0.7-2.1,1.8-3.6,3.5-5.5c-0.5-1.4-2.6-1-4.1-0.8C133.6,169.3,132.2,171.4,131.1,173.5"/>
	</g>
	<g>
		<path class="st0" d="M135.7,165.7c7.8-5.4,23.3-2,21.3,5.8c-0.8,1-1.9,1.5-3.2,1.6c0.2-3.9-1.3-6-4.6-6.2l-2.6,0.2    c-1.4-2.2-3.1-2.4-5.2-0.6C139.8,165.6,137.9,165.3,135.7,165.7"/>
	</g>
	<g>
		<path class="st0" d="M144.9,146.6c4.3-0.5,8.5-1.4,12.7-2.6l-0.1,11.9c1.9,3.7,2.9,7.4,3.1,11.2l-1.8,1.4    c-1.5-4.9-5.8-5.9-14.1-6.7C145.6,156.4,145.5,151.4,144.9,146.6"/>
	</g>
	<g>
		<path class="st0" d="M143.1,143.1l0.8,1.5c5.1-0.3,10-1,14.9-2.3c0.4-2.6,0.7-5,0.7-7.1C154.2,138.5,148.7,141.1,143.1,143.1"/>
	</g>
	<g>
		<path class="st0" d="M141.9,140.7l11.3-9c1.9,0.4,4,1.4,6,2.6c-5.3,2.9-10.8,5.5-16.3,7.7L141.9,140.7z"/>
	</g>
	<g>
		<path class="st0" d="M165.1,136.4c3.6-1,8.2-3.2,11.3-5.3c2.2,3,4.2,5.9,7,8.1c-2.2,1.7-4.7,2.8-7.4,3.3    C171.2,142.8,167.8,140.3,165.1,136.4"/>
	</g>
	<g>
		<path class="st0" d="M158.8,124.7c3.7-1.3,7.7-3.1,11.2-5c1.5,3.2,2.8,7,5.4,10.1c-3.4,2.7-7.2,4.2-11.3,5.1    C161.7,131.6,160,128.3,158.8,124.7"/>
	</g>
	<g>
		<path class="st0" d="M154,111c3.9-0.7,7.9-1.9,10.5-4.3c1.3,4.3,3.1,8.2,5.1,11.4c-3.9,2.7-7.8,4-11.6,4.9    C156.4,119.1,155.3,116.8,154,111"/>
	</g>
	<g>
		<path class="st0" d="M149.8,95.5c7.3-1.9,11.3,2.7,14.3,9.4c-3.6,2.4-6.8,4-10.6,4.8c-1.4-3.7-2.1-6.5-4.6-8.6    C149.8,99.2,150,97.4,149.8,95.5"/>
	</g>
	<g>
		<path class="st0" d="M115.4,107.8c12-8.2,15.9-13.7,22-21.6c7.1,3.2,12,6.8,10.1,13.1c-1.3,8.5-1.5,16-0.8,22.4    c0.3,3.4,1.6,7,5.3,9.9c-3.1,2.2-6.7,5.2-10.4,7.5c-12.7-4.8-21.6-11.6-23.6-22.2C117.8,111.3,117,108.4,115.4,107.8"/>
	</g>
	<g>
		<path class="st0" d="M130.3,79.6l6.1,5.3c-6.3,8.7-13.6,16-22,22.5l-1.8-0.4C119.5,98.4,126.1,89.1,130.3,79.6"/>
	</g>
	<g>
		<path class="st0" d="M122,73.8l6.9,5c-5.1,10.3-11,19.6-17.8,28l-1.9-0.2C114.8,96.6,119.6,85.7,122,73.8"/>
	</g>
	<g>
		<path class="st0" d="M68.4,56.4c10-2.1,19.7-5.2,29.2-9.1c3.7,10.7,10.9,19.1,22.4,24.8c-1.6,11.3-5.3,23.1-11.9,34.3l-5.8,0.8    V66.5H75.9C77.1,59.9,73.7,57.3,68.4,56.4"/>
	</g>
	<g>
		<path class="st0" d="M33.9,45.7v9c-1.4-0.5-3.1-0.3-4.4-1.5c-2-1.7-1.7-3.2,0.2-5.2C31.1,47,32.5,46.2,33.9,45.7"/>
	</g>
	<g>
		<path class="st0" d="M14.4,37.6c-2.8-3.9-6.5-4.7-11.2-2.5c-3.8,2.3-4.7,10-0.1,13.6c4.3,2.7,9.2,1.3,11.2-1.4L14.4,37.6z"/>
	</g>
	<g>
		<path class="st0" d="M15.9,39.3v8.1c0.1,1.5,3.5,1,4.3-1.7v-6C19.9,37.7,16.8,37.2,15.9,39.3"/>
	</g>
	<g>
		<path class="st0" d="M21.6,39.3v8.1c0.1,1.5,3.5,1,4.3-1.7v-6C25.6,37.7,22.4,37.2,21.6,39.3"/>
	</g>
	<g>
		<path class="st0" d="M27.3,39.7l0.1,6.9c2.1,1.8,6.1-1.4,6.2-2.8l0.2-2.5C34,38.9,27.9,37.6,27.3,39.7"/>
	</g>
	<g>
		<path class="st0" d="M16.2,36.3c0.6-2.8,3.7-4.2,9.4-4.1c3.7,0.4,6.5,1.1,8.5,2.1v5.8c-3.5-3-6.2-4.4-7.1-2.1    c-2.7-1.7-5.3-2.8-5.7-0.4C19.8,36.5,18,36.4,16.2,36.3"/>
	</g>
	<g>
		<path class="st0" d="M37.2,23.7h9.2c-6.1,5.3-8,11.2-3.8,18.1c-3.9,7.5-1.8,12.8,2.9,17.4h-8.3C34.6,47.2,34.7,35.3,37.2,23.7"/>
	</g>
	<g>
		<path class="st0" d="M61.8,66.3h8.1c0.4-1.8-0.2-3.3-1.7-4.5C65.1,60.7,63.3,63.3,61.8,66.3"/>
	</g>
	<g>
		<path class="st0" d="M59.9,60.2c1.3,0,2.8,0.5,3.3,1.6c-1.5,1.1-2.6,2.2-3.6,4.6h-5.1C56.1,63.9,57.9,62,59.9,60.2"/>
	</g>
	<g>
		<path class="st0" d="M53.7,60.2c1.3,0,2.4,0.3,3.3,0.8c-1.8,1.7-3.2,3.6-3.6,5.4h-5.1C49.9,63.9,51.6,62,53.7,60.2"/>
	</g>
	<g>
		<path class="st0" d="M52.9,58.9c0.3-1.5,1.6-2.3,4.3-2.6c9.4,0.1,14.7,2,17.1,5.5c0.7,1.8,0.7,3.3,0,4.5h-3.2    c2.1-3.8-4.6-8.1-6.3-5.1c-1.3-2.8-5-3.2-6.8-0.6C56.8,59,55.3,58.2,52.9,58.9"/>
	</g>
	<g>
		<path class="st0" d="M42.3,49.6H58c-0.4,1.8-1,3.6-2,5.5h-3.4c-0.3,5.3-2.5,7.4-4.9,10l-4.3-5l5.7-0.3    C45.3,57.4,43.2,53.9,42.3,49.6"/>
	</g>
	<g>
		<path class="st0" d="M44.1,42.7h14.6l-1,5.8H42.2C42.2,46.2,42.8,44.3,44.1,42.7"/>
	</g>
	<g>
		<path class="st0" d="M42.5,35.1h17.1l-0.8,6.5h-15C42.8,39.8,42.2,37.7,42.5,35.1"/>
	</g>
	<g>
		<path class="st0" d="M99.4,48.4h61.8c5.3-1.4,10.2-3.3,14.8-5.8h-75.6C100.2,45.2,100,46.1,99.4,48.4"/>
	</g>
	<g>
		<path class="st0" d="M101.5,35.5h59.7c5.3,1.4,10.2,3.3,14.8,5.8h-75.6C101.2,39.6,101.1,37.7,101.5,35.5"/>
	</g>
	<g>
		<path class="st0" d="M61,46.8L58.4,55c13.4-0.3,27.3-3.2,40.5-10l0.1-4.4C87.2,44.6,74.7,47,61,46.8"/>
	</g>
	<g>
		<path class="st0" d="M61,38.4L59.3,45c12.9,1,26.2-1.2,40.4-6.1l0.8-3.8C87.7,38.3,73.8,39.7,61,38.4"/>
	</g>
	<g>
		<path class="st0" d="M101.4,33.5v-2.8c-6.2-0.3-12.1,0.7-17.5,3.8C79,28.6,73.7,23.9,67.6,21.9l-7.2,14.5    C75,38.5,87.8,36.4,101.4,33.5"/>
	</g>
	<g>
		<path class="st0" d="M77.9,0c2.9,1.3,4.9,3.7,6.3,6.5l-4.1,1.2C79,5.2,78,3,77.9,0"/>
	</g>
	<g>
		<path class="st0" d="M118.5,20.8v-0.7h0.6v-0.6l1.1-0.1v1.3h0.5l0.1,1.7h0.5l0.1-0.6c3.1-2,5.3-4.1,6.6-7.2c0.4-1.2,0.3-2.6-1-2.7    h-15.7c-1.7,0.5-3.3,1.2-4.8,2.4h-8.8L97.1,13c0.9-1.8,2.1-2.5,3.2-3.3h2.9c-1.5,1.7-3.1,2.3-1.9,3.8c1.8,0.5,5-0.6,4.8-3.8h3.2    l0.4,1.1l1.2-0.2c-0.2-1.9,1-2.3,1.8-2.9c0.3-1,0.3-1.5-0.1-1.8H94.4c-0.5-2.1-1.7-4.4-3.4-5.8h-9.9c2,2.1,3.6,4.4,4.8,6.9    c-7.5,2.5-15.1,5.7-18.7,12.8C73.8,22.7,79.9,27,84,32.9c2.9-1.8,6.3-3.3,11.1-3.5l9.1,0.2c3.8,0.6,7.8,0.7,11.7,0.4    c4-0.8,6-2.5,5.6-6.9c-0.9-0.5-1.7,0.6-2.3,1.8H118v-0.6h-1.2v-0.6h-0.5v0.6l-0.6-0.1V25h-1.8v-0.6h-0.5l-0.2-0.5h-0.4l-0.2,0.6    h-0.5V25h-1.8l-0.7-1.2h-1.1l-1.5,1.6c-1,0.7-2.1,1.4-3.3,1.6c-2.8,0.1-1.7-3.2-0.9-4.5c1.4-1.7,3-3,4.5-4c1.1-0.1,2-0.1,2.4,0.6    l0.1,1h0.4v1.3h0.7v-1.2h0.5v-0.5h1.7v1.1h0.6l0.1,0.7l0.6,0.1v-0.7h0.5v-1.1h1.8v1.1h0.7l-0.1,0.6l0.6-0.1v-0.5h0.6V20.8z"/>
	</g>
	<g>
		<path class="st1" d="M11.2,67.9h89.6v66c-5.3,51.1-83.6,54.2-89.6,0C11.2,133.9,11.2,67.9,11.2,67.9z"/>
	</g>
	<g>
		<path d="M55.3,173.4c-10.7,0-20.9-3.4-28.6-9.7c-8.8-7-14.1-17.4-15.5-29.8v-66h89.6v66c-1.2,12.1-6.7,22.2-15.7,29.4    c-8.1,6.5-18.6,10-29.6,10.1C55.4,173.4,55.4,173.4,55.3,173.4z M11.2,67.9v66c1.4,12.4,6.7,22.8,15.5,29.8    c7.8,6.2,17.9,9.7,28.6,9.7c0.1,0,0.1,0,0.2,0c11,0,21.5-3.6,29.6-10.1c9-7.2,14.4-17.3,15.7-29.4v-66L11.2,67.9z"/>
	</g>
	<g>
		<path class="st2" d="M12.7,69.4h86.6v63c-3.8,51.1-82.5,54.1-86.6-0.2C12.7,132.2,12.7,69.4,12.7,69.4z"/>
	</g>
	<g>
		<path d="M55.3,171.9c-19.7,0-40.6-12.3-42.6-39.7V69.4h86.6v63c-0.9,12.1-6,22.3-14.9,29.4C76.5,168.3,66.1,171.9,55.3,171.9    L55.3,171.9z M12.7,69.4v62.8c2.1,27.4,22.9,39.6,42.6,39.6l0,0c10.8,0,21.2-3.6,29.1-10c8.8-7.2,14-17.4,14.9-29.4v-63L12.7,69.4    z"/>
	</g>
	<g>
		<path class="st1" d="M38.4,77.4h3.9c0.4-1.5,1.6-2.3,3.5-2.3l0.3-0.4h2.4l0.5,0.8c0.3-1.4,1-2.9,2-4.4l1.8,1.8    c-1.4,0.7-1.2,0.8-1.3,1.5v1.7h30.4c2.5,0.4,4.4,1.2,5.4,2.3c-1.2,1.1-3.3,1.8-5.1,2.2H51.6c-0.5,1.5,0.2,2.4,1.1,3    c-0.1,0.2-0.3,0.4-0.3,0.6c0.4,0.6,0.9,1.1,1.3,1.6c0.3,0,0.4,0,0.7,0c0.1,0.4,0.4,0.7,0.6,1.1c0.4,0.2,0.8,0.3,1.2,0.5    c0,0.3,0,0.6,0,0.9c1.2,1,2.4,1.9,3.7,3c0.3-0.2,0.4-0.4,0.7-0.6c-0.3-1.1-0.1-1.7,0.7-1.7c0-0.3-0.1-0.8,0.3-1.1    c-0.1-0.4-0.1-0.7,0.2-1c0.1-0.5,0.3-0.8,0.6-1.2c0.1-0.3-0.1-0.6-0.3-0.6c-0.3-0.1-0.6,0-0.4-0.3c1.2-1.3,2.5-2.4,3.7-3.7    c0.2,0.4,0.4,0.9,0.7,1.1c1.5-0.5,2.9-0.9,4.4-1c0.3,1,1.4,2,1.8,3.1c0.7,1.5,0.6,2.9-0.5,4c-1.2,1.1-1.7,2.1-0.3,2.9    c0.3-0.3,0.5-0.2,0.5,0.4c1.6,0.1,2.4,0.5,3.2,1.2l4.3-1.3c2.2,3,3.6,6.5,4.1,10.5c0.3,5.9-1.4,10.6-4.8,14.4    c-2.4-0.8-4.7-2-7.1-3.5c0.1,1,0.1,2.1,0.2,3.2c0.4,0.2,0.9,0.3,1.4,0.5c-0.4,0.8-1,1.8-1.4,2.7c7.1,1.7,10.3,7,15,9.6    c1.4,0.1,2.5-0.5,2.9-1.3c-5.2-4.9-8.3-9.5-4.7-14c0.1,0.7,0.3,1.5,0.4,2.2c0.7-4.1,2.5-6.2,5.1-7c-1.7,3.9-1.2,7.2,1.3,9.9    c0.2-0.4,0.4-0.8,0.6-1.2c2,3.6,5.2,7,5.1,8.7c0.2,0.1,0.2-0.2,0.4-0.1c0.9,5.3-0.4,8.3-3.5,9.4c0.8-0.1,1.7-0.2,2.4-0.3    c-1.4,3.1-4.7,3.1-8.9,1.4c-1.8-1.4-3-3.5-4.2-5.4c0,1.4,0.2,3.1,0.2,4.5l-3.1,7.6c-0.2,1.8,1.5,2.8,3.1,3.8c0.7,1.1,0.6,2.1,0,3    c-2.2,3.6-4.3,7.4-6.3,11.4c-0.4,1.8-1.2,2.6-2,2.8c-0.3-2.1-2.3-1.9-2.3,0c0,0.9-0.1,1.7-0.1,2.6h-7.6l-0.6-1.1h-2.5l-0.1-1.4    c1.1-1.7,2.4-3.3,4.1-4.6c1.7-1,3.2-2.1,4.6-3.3c3-4.4,5.1-8.5,1.3-9.4c-3.8-1.8-6.5-4.2-7.9-7.4c-0.4,0.1-0.8,0.2-1.2,0.4    c0-0.1-0.4-0.1-0.4-0.2c-0.6-0.5-0.8-1.1-1.4-1.6v7.6c-0.1,2.9-0.5,5.8-2.2,8.3c-1.8-2.9-2.4-5.8-2.1-8.6v-7.4    c-3.3-0.1-6.3-0.6-9.2-1.3c-0.9,0.5-1.6,1.5-2.1,2.5l4.2,1.4l0.4-3.1l1.6,3.5l4.3-0.2l-3.7,2.1l0.6,4.9l-2.6-3.9    c-1.4,0.2-2.9,0.4-4.3,0.7l2.9-2.4c-1.3-0.5-2.7-1.1-4-1.6c-0.1,0.4-0.2,0.8-0.3,1.2c-0.6-0.3-1.2-0.7-2-0.7    c-0.2,0.1-0.3,0.3-0.5,0.4c-1.7-0.2-3.3-0.3-5-0.5c0-0.2,0-0.4-0.1-0.6c-1.3,0.2-2.1,0.8-2.7,1.5c-0.4-0.2-0.7-0.3-1.1-0.5    c1.7-3.5,4.4-4.8,7.6-5.1c-0.3-0.3,0.2-0.8,1.3-1.8c-1.2-0.6-2.5-1.2-3.7-1.8c-0.7,0.4-1.4,0.8-2.2,1.1c-3.1,0.1-6.5-7.1-7.2-9.5    c-0.2-0.6-0.5-1.2-1.1-1.6c-0.5-0.1-1.1-0.1-1.7,0.1c-1.6,1.6-2.8,3.4-3.6,5.5c0.3,1.3,0.3,2.4-0.7,3.1c-0.2,0-0.4-0.1-0.5-0.1    c-0.9-1.2-1.7,0.1,0,1.2c0.5,0.5,1.1,1,1.6,1.6c-1.7,2.1-3.4,4.1-5.1,6.1c-0.3-0.3-0.7-0.6-1-0.9c-0.3-2.9-0.7-5.8-1-8.6    c0.1-0.5,0.3-1,0.4-1.5c-0.1-0.1-0.1-0.1-0.2-0.2c-0.7,0.3-1.5,0.5-2.2,0.8c-0.2-0.5-0.3-0.9-0.5-1.4c1.2-3.1,2.4-6.2,3.7-9.3    c0.3-0.5,0.7-0.9,1.2-1.1c3.2-2.1,6.3-3.9,9.3-5.4c1.5-0.9,2.4-0.3,3.2,0.2c0.6,0.5,1.5,1.1,2.2,1.6c0.5-0.7,0.8-1.5,1.6-2.6    c1-1.5,1.9-2,3-2.3c0.2-0.2,0.4-0.3,0.3-0.7c-1-0.2-2.6-0.9-2.4-0.3c0.2,1.3-2.1,2.2-2.7,0.6c-0.2-1.3,0.2-1.9,1.3-1.9    c0.8-1.3,1.5-2.5,1.1-3.6c-0.6,1-1.3,1.8-3.2,2c-0.6-0.2-0.9-0.5-1-1.1c0.1-0.1,0.2-0.2,0.3-0.3c-0.1-0.3-0.3-0.3-0.3-0.6    c0.5-0.3,0.9-0.7,0.8-1c-0.5-0.3-0.5-0.2-0.5-0.9c-0.9,0.4-1.8,0.8-1.6,2.1c-0.7,0.6-1.2,0.6-1.6,0.6c-0.6-0.9-1-2-0.9-3.1    c-0.3-1-0.4-1.9,0.2-2.7c2-3.1,4.2-5.9,6.6-8.5l1-0.6l-1.2-1c0.5-0.6,1.1-1,1.7-1.3l-1-0.8l0.2-0.8l1,0.2l-0.6-0.6l0.2-0.5    c1.5,0.6,3.1,1,4.6,1.3l0.5,0.7c2.5,0.1,4.9,0.8,7.3,1.7v0.6c4,1.4,10,11.2,8.7,10.9l-0.5-0.1c0.9,2.5,1.2,4.8,1,7l3.8-0.2    c-0.7-2.8-1.6-5.8-2.9-9.2c-2.3-3-4.7-5.1-7.3-6.9l-1.1-2.4l-0.8-1.2l-1.4-1.8c-1.7,0.5-3.5,0.8-5.1,0.4c0.9-1.2,1.9-2.5,2-4.3    c-1.2-0.4-1.2-0.7-1.5-1.8l-4.5-0.3v1.3c-2.6,0.8-4.2-4.4-0.2-5L38.4,77.4z"/>
	</g>
	<g>
		<path d="M65.8,166.8l-0.6-1.1h-2.5l-0.1-1.4c1.2-1.9,2.6-3.4,4.1-4.6c1.8-1,3.3-2.2,4.6-3.3c2-3.1,3.9-6.2,3.2-8    c-0.3-0.7-0.9-1.2-1.9-1.4c-4-1.9-6.6-4.4-7.9-7.4c-0.4,0.1-0.8,0.2-1.2,0.4c0-0.1-0.1-0.1-0.2-0.1c-0.1,0-0.2-0.1-0.2-0.1    c-0.3-0.2-0.5-0.5-0.6-0.8c-0.2-0.3-0.4-0.6-0.7-0.8v7.6c-0.1,2.6-0.5,5.7-2.2,8.3c-1.7-2.8-2.4-5.6-2.1-8.6v-7.4    c-3.1-0.1-6.2-0.5-9.1-1.3c-0.8,0.4-1.5,1.3-2.1,2.5l4.2,1.4l0.4-3l1.6,3.5l4.3-0.2l-3.7,2.1l0.6,4.9l-2.6-3.9    c-0.9,0.1-1.8,0.3-2.6,0.4c-0.5,0.1-1.1,0.2-1.6,0.3l2.9-2.4c-0.6-0.2-1.2-0.5-1.8-0.7c-0.7-0.3-1.5-0.6-2.2-0.9    c-0.1,0.3-0.2,0.6-0.2,0.9l-0.1,0.2h-0.1c-0.6-0.3-1.2-0.7-1.9-0.7c-0.1,0.1-0.2,0.1-0.3,0.2c-0.1,0.1-0.2,0.1-0.2,0.2    c-1.7-0.2-3.3-0.3-5-0.5c0-0.1,0-0.2,0-0.3s0-0.2,0-0.3c-1.3,0.2-2,0.8-2.7,1.5c-0.4-0.2-0.7-0.3-1.1-0.5c1.5-3.2,3.9-4.8,7.6-5.1    c-0.1,0-0.1-0.1-0.1-0.2c0-0.3,0.4-0.8,1.4-1.6c-1.2-0.6-2.5-1.2-3.7-1.8c-0.3,0.1-0.5,0.3-0.8,0.4c-0.5,0.2-0.9,0.5-1.4,0.7l0,0    c-3,0-6.4-6.8-7.2-9.5c-0.2-0.7-0.6-1.2-1.1-1.6c-0.5-0.1-1.1-0.1-1.7,0.1c-1.6,1.6-2.8,3.4-3.6,5.5c0.4,1.6,0.2,2.5-0.7,3.1    c-0.2,0-0.4-0.1-0.5-0.1c-0.2-0.3-0.5-0.5-0.7-0.5h-0.1c-0.1,0-0.2,0.1-0.2,0.3c0,0.3,0.2,0.9,1,1.3c0.4,0.3,0.7,0.7,1.1,1.1    c0.2,0.2,0.3,0.3,0.5,0.5c-1,1.3-2.1,2.6-3.2,3.8c-0.6,0.8-1.3,1.5-1.9,2.3l0,0l0,0c-0.3-0.3-0.7-0.6-1-0.9    c-0.2-1.5-0.4-3.1-0.5-4.6c-0.2-1.3-0.3-2.7-0.5-4v-0.2c0.1-0.4,0.2-0.9,0.4-1.3c0,0-0.1,0-0.1-0.1l-0.1-0.1    c-0.3,0.1-0.6,0.2-0.9,0.3c-0.4,0.2-0.9,0.3-1.3,0.5c-0.1-0.4-0.3-0.7-0.4-1.1l-0.1-0.3c1.2-3.1,2.4-6.2,3.7-9.3    c0.3-0.5,0.7-0.8,1.2-1.1c3.1-2,6.2-3.8,9.3-5.4c1.4-0.8,2.3-0.4,3.1,0.1l0.2,0.1c0.4,0.3,1,0.7,1.5,1.1c0.2,0.2,0.5,0.3,0.7,0.5    c0.2-0.3,0.4-0.6,0.6-1c0.2-0.5,0.5-1,1-1.6c0.9-1.3,1.7-2,3-2.3c0.2-0.1,0.4-0.3,0.3-0.7c-0.3-0.1-0.6-0.1-0.9-0.2    c-0.7-0.2-1.4-0.4-1.5-0.3v0.1c0.1,0.7-0.5,1.2-1.1,1.4c-0.5,0.2-1.3,0-1.7-0.8c-0.1-0.7,0-1.2,0.2-1.5c0.2-0.2,0.6-0.4,1-0.4h0.1    c0.8-1.2,1.5-2.5,1.1-3.5c-0.6,1-1.2,1.8-3.2,2c-0.6-0.2-0.9-0.6-1-1.1c0.1-0.1,0.1-0.1,0.2-0.1c0.1,0,0.1-0.1,0.2-0.1    c0-0.1-0.1-0.2-0.2-0.3c-0.1-0.1-0.2-0.2-0.2-0.3c0.5-0.3,0.9-0.7,0.8-1c-0.1,0-0.1-0.1-0.2-0.1c-0.3-0.2-0.3-0.2-0.3-0.7v-0.1    c-1,0.4-1.8,0.9-1.5,2.1c-0.6,0.5-1,0.6-1.4,0.6h-0.1h-0.1c-0.6-1-1-2.1-0.9-3.1c-0.3-0.9-0.5-1.9,0.2-2.7    c1.8-2.9,4.1-5.8,6.6-8.5l1-0.6l-1.2-1c0.4-0.5,1-1,1.7-1.3l-1-0.8l0.2-0.8l1.1,0.2l-0.6-0.6l0.2-0.5c1.7,0.6,3.2,1.1,4.6,1.3    l0.5,0.7c2.2,0.1,4.5,0.6,7.3,1.7v0.6c2.2,0.8,4.9,4.1,5.9,5.5c1.8,2.4,3.1,4.8,3,5.3c0,0.1-0.1,0.1-0.2,0.1l-0.5-0.1    c0.8,2.4,1.2,4.8,1,7l3.8-0.2c-0.7-2.6-1.6-5.7-2.9-9.2c-2.2-2.8-4.6-5.1-7.3-6.9l-1.1-2.4L49.8,87l-1.4-1.8    c-2,0.6-3.7,0.7-5.1,0.4l0.2-0.2c0.8-1.1,1.7-2.3,1.8-4c-1.1-0.3-1.2-0.6-1.4-1.5c0-0.1-0.1-0.2-0.1-0.3l-4.5-0.3v1.3    c-0.7,0.2-1.4,0-1.9-0.5c-0.7-0.7-0.9-1.9-0.6-2.8c0.3-0.9,1.1-1.5,2.3-1.6l0.1,1.8h3.9c0.4-1.5,1.5-2.3,3.5-2.3l0.3-0.4h2.4    l0.5,0.8c0.2-1.3,0.9-2.7,2-4.5l1.8,1.8c-1.2,0.6-1.2,0.8-1.3,1.3c0,0.1,0,0.2,0,0.3v1.7h30.4c2.5,0.4,4.4,1.2,5.4,2.3    c-1.3,1.2-3.5,1.9-5.2,2.2H51.6c-0.4,1.3-0.1,2.2,1.1,2.9c-0.1,0.2-0.3,0.4-0.3,0.6c0.2,0.3,0.5,0.6,0.7,0.9    c0.2,0.2,0.4,0.5,0.6,0.7c0.1,0,0.2,0,0.3,0s0.2,0,0.4,0c0.1,0.2,0.2,0.4,0.3,0.6s0.2,0.4,0.3,0.5c0.2,0.1,0.4,0.2,0.7,0.3    c0.2,0.1,0.4,0.2,0.5,0.2c0,0.3,0,0.6,0,0.9c0.6,0.5,1.2,0.9,1.7,1.4c0.6,0.5,1.3,1,2,1.6l0.1-0.1c0.2-0.2,0.3-0.3,0.6-0.4    c-0.2-0.7-0.2-1.1,0-1.4c0.1-0.2,0.4-0.3,0.7-0.3V89c0-0.3-0.1-0.8,0.3-1c-0.1-0.5-0.1-0.7,0.2-1c0.1-0.4,0.2-0.7,0.4-1    c0.1-0.1,0.1-0.2,0.2-0.2c0-0.1,0-0.3,0-0.4C62.2,85.1,62.1,85,62,85s-0.1,0-0.2,0c-0.1,0-0.2,0-0.3-0.1c0-0.1,0-0.1,0-0.2    c0.6-0.6,1.1-1.1,1.7-1.7c0.7-0.7,1.4-1.3,2-2c0.1,0.1,0.2,0.3,0.2,0.4c0.1,0.3,0.3,0.6,0.5,0.7c1.5-0.5,2.9-0.9,4.4-1    c0.1,0.5,0.5,1,0.8,1.5c0.4,0.5,0.7,1.1,0.9,1.6c0.7,1.5,0.6,2.9-0.5,4c-0.9,0.8-1.2,1.3-1.2,1.9c0,0.4,0.3,0.7,0.9,1.1    c0.1-0.1,0.2-0.2,0.3-0.1c0.1,0,0.2,0.2,0.3,0.6c1.5,0.1,2.4,0.4,3.2,1.2l4.3-1.3c2.2,3,3.6,6.5,4.1,10.5    c0.3,5.7-1.3,10.6-4.8,14.4c-2.7-0.9-5.1-2.3-7.1-3.5l0,0c0.1,1,0.1,2.1,0.2,3.2c0.5,0.2,0.9,0.3,1.4,0.5    c-0.2,0.4-0.4,0.7-0.6,1.1c-0.3,0.5-0.6,1.1-0.8,1.6c4.5,1.1,7.4,3.6,10.2,6c1.6,1.4,3.1,2.7,4.9,3.6c0.1,0,0.3,0,0.4,0    c1.1,0,2.1-0.5,2.5-1.3c-3-2.8-4.8-5.1-5.6-7.2c-1-2.5-0.7-4.7,0.9-6.8c0.1,0.7,0.3,1.5,0.4,2.2c0.6-3.9,2.3-6.2,5.1-7    c-1.6,3.9-1.2,7.2,1.3,9.9c0.1-0.2,0.2-0.3,0.2-0.5c0.1-0.2,0.2-0.4,0.3-0.6c0.8,1.4,1.8,2.8,2.6,4c1.4,2,2.6,3.7,2.5,4.7    c0.1,0,0.1,0,0.2-0.1c0.1,0,0.1-0.1,0.2-0.1c0.8,5.2-0.3,8.3-3.5,9.4c0.4-0.1,0.8-0.1,1.2-0.2c0.4-0.1,0.8-0.1,1.2-0.2    c-1.3,2.8-4.3,3.3-8.9,1.4c-1.5-1.2-2.6-2.9-3.6-4.5c-0.2-0.3-0.4-0.6-0.6-1c0,0.9,0.1,1.9,0.1,2.8c0,0.6,0.1,1.2,0.1,1.7    l-3.1,7.6c-0.2,1.7,1.4,2.7,2.9,3.7l0.2,0.1c0.7,1,0.7,1.9,0,3c-2.1,3.4-4.2,7.1-6.3,11.4c-0.4,1.6-1.1,2.5-2,2.8    c-0.1-1.1-0.7-1.5-1.2-1.5l0,0c-0.5,0-1,0.5-1,1.5c0,0.4,0,0.9,0,1.3c0,0.4,0,0.9,0,1.3H65.8z M65.2,165.8l0.6,1.1h7.6    c0-0.4,0-0.9,0-1.3c0-0.4,0-0.9,0-1.3c0-1,0.5-1.5,1-1.5l0,0c0.5,0,1.1,0.5,1.2,1.5c1-0.3,1.6-1.2,2-2.8c2.2-4.3,4.2-8,6.3-11.4    c0.7-1.1,0.7-2,0-3l-0.2-0.1c-1.6-1-3.2-2-2.9-3.7l3.1-7.6c0-0.5-0.1-1.1-0.1-1.7c-0.1-0.9-0.1-1.9-0.1-2.8c0.2,0.3,0.4,0.6,0.6,1    c1,1.6,2,3.3,3.6,4.5c4.6,1.9,7.6,1.4,8.9-1.4c-0.4,0.1-0.8,0.1-1.2,0.2c-0.4,0.1-0.8,0.1-1.2,0.2c3.2-1.1,4.3-4.2,3.5-9.4    c0,0,0,0-0.1,0s-0.1,0-0.2,0.1c-0.1,0-0.1,0.1-0.2,0c0-1-1.2-2.7-2.5-4.7c-0.9-1.2-1.8-2.6-2.6-4c-0.1,0.2-0.2,0.4-0.3,0.6    c-0.1,0.2-0.2,0.4-0.3,0.5c-2.5-2.7-3-6-1.4-9.9c-2.8,0.8-4.4,3.1-5.1,7c-0.2-0.7-0.3-1.5-0.4-2.2c-3.8,4.8,0.3,9.8,4.8,14    c-0.4,0.8-1.3,1.3-2.5,1.3c-0.1,0-0.2,0-0.4,0c-1.7-1-3.3-2.3-4.9-3.6c-2.8-2.4-5.7-4.9-10.2-6c0.2-0.5,0.5-1,0.8-1.6    c0.2-0.4,0.4-0.8,0.6-1.1c-0.4-0.1-0.9-0.3-1.4-0.5c-0.1-1.1-0.2-2.1-0.2-3.2l0,0c2,1.2,4.4,2.6,7.1,3.5c3.5-3.8,5.1-8.7,4.8-14.4    c-0.6-4-2-7.5-4.1-10.5l-4.3,1.3c-0.8-0.8-1.7-1.1-3.2-1.2c0-0.3-0.1-0.5-0.3-0.6l0,0c-0.1,0-0.2,0-0.2,0.1    c-0.6-0.3-0.8-0.7-0.9-1.1c0-0.5,0.3-1.1,1.2-1.9c1-1.1,1.2-2.5,0.5-4c-0.2-0.6-0.6-1.1-0.9-1.6c-0.4-0.5-0.7-1-0.8-1.5    c-1.5,0.1-2.9,0.5-4.4,1c-0.2-0.1-0.3-0.4-0.5-0.7c-0.1-0.1-0.1-0.3-0.2-0.4c-0.7,0.7-1.3,1.4-2,2c-0.5,0.5-1.1,1.1-1.7,1.7    c0,0.1,0,0.2,0,0.2c0,0.1,0.1,0.1,0.3,0.1c0.1,0,0.1,0,0.2,0c0.1,0,0.2,0.1,0.3,0.2s0.1,0.3,0,0.4s-0.1,0.2-0.2,0.2    c-0.2,0.3-0.3,0.5-0.4,1c-0.2,0.2-0.2,0.5-0.2,1c-0.3,0.2-0.3,0.7-0.3,1v0.1c-0.3,0-0.5,0.1-0.7,0.3c-0.2,0.3-0.2,0.7,0,1.4    c-0.2,0.2-0.4,0.3-0.6,0.5l-0.1,0.1c-0.7-0.5-1.3-1.1-2-1.6c-0.6-0.5-1.2-0.9-1.7-1.4c0-0.3,0-0.6,0-0.9c-0.2-0.1-0.4-0.2-0.5-0.2    c-0.2-0.1-0.5-0.2-0.7-0.3c-0.1-0.2-0.2-0.4-0.3-0.5c-0.1-0.2-0.2-0.4-0.3-0.6c-0.2,0-0.3,0-0.4,0c-0.1,0-0.2,0-0.3,0    c-0.2-0.3-0.4-0.5-0.6-0.7c-0.3-0.3-0.5-0.6-0.7-0.9c0.1-0.2,0.2-0.4,0.3-0.6c-1.2-0.7-1.6-1.7-1.1-3H82c1.6-0.3,3.8-0.9,5.1-2.2    c-1-1-2.9-1.8-5.4-2.2H51.5v-1.8c0-0.1,0-0.2,0-0.3c0.1-0.5,0.1-0.6,1.3-1.3L51,70.9c-1.1,1.7-1.7,3.2-2,4.4l-0.6-0.8H46L45.8,75    c-1.9,0-3,0.8-3.5,2.3h-4l0,0l-0.1-1.8c-1.2,0.2-2,0.7-2.3,1.6s-0.1,2,0.6,2.8c0.5,0.6,1.2,0.7,1.9,0.5v-1.3l4.6,0.3    c0,0.1,0.1,0.2,0.1,0.3c0.3,0.8,0.3,1.1,1.4,1.5c-0.1,1.7-1,3-1.8,4l-0.2,0.2c1.5,0.4,3.1,0.2,5.1-0.4l1.4,1.8l0.8,1.2l1.1,2.4    c2.7,1.8,5.1,4,7.3,6.9c1.3,3.5,2.2,6.6,2.9,9.2l-3.8,0.2c0.2-2.3-0.2-4.6-1-7l0.6,0.1c0.1,0,0.1,0,0.2-0.1c0.1-0.5-1.2-3-3-5.3    c-1-1.4-3.7-4.7-5.9-5.5v-0.6c-2.7-1.1-5.1-1.6-7.3-1.7l-0.5-0.7c-1.4-0.3-2.9-0.7-4.6-1.3l-0.2,0.5l0.6,0.6H35l-0.2,0.8l1,0.8    c-0.7,0.4-1.3,0.8-1.7,1.3l1.2,1l-1,0.6c-2.6,2.7-4.8,5.5-6.6,8.5c-0.7,0.8-0.4,1.8-0.2,2.7c-0.1,0.9,0.2,2.1,0.9,3.1h0.1h0.1    c0.4,0,0.8,0,1.4-0.6c-0.2-1.3,0.6-1.7,1.6-2.1v0.1c0,0.5,0,0.5,0.3,0.6c0.1,0,0.1,0.1,0.2,0.1c0.1,0.3-0.3,0.7-0.8,1    c0,0.1,0.1,0.2,0.2,0.3c0.1,0.1,0.1,0.2,0.2,0.3c-0.1,0.1-0.1,0.1-0.2,0.1s-0.1,0.1-0.2,0.1c0,0.5,0.3,0.8,1,1.1    c1.9-0.2,2.6-1.1,3.2-2c0.4,1-0.3,2.3-1.1,3.6c0,0,0,0-0.1,0c-0.5,0-0.8,0.1-1,0.4c-0.3,0.3-0.3,0.8-0.2,1.5    c0.3,0.8,1.1,0.9,1.6,0.8c0.6-0.2,1.2-0.7,1.1-1.4c0-0.1,0-0.1,0-0.1c0.1-0.1,0.8,0,1.5,0.2c0.3,0.1,0.6,0.2,0.9,0.2    c0.1,0.4-0.1,0.6-0.3,0.7c-1.2,0.3-2.1,1-3,2.3c-0.5,0.6-0.7,1.2-1,1.6c-0.2,0.4-0.4,0.7-0.6,1c-0.2-0.2-0.5-0.3-0.7-0.5    c-0.5-0.4-1.1-0.7-1.5-1.1l-0.2-0.1c-0.8-0.5-1.6-0.9-3.1-0.1c-3.1,1.6-6.2,3.4-9.3,5.4c-0.5,0.2-0.9,0.5-1.2,1    c-1.2,3.1-2.4,6.2-3.7,9.3l0.1,0.3c0.2,0.4,0.3,0.7,0.4,1.1c0.4-0.2,0.9-0.3,1.3-0.5c0.3-0.1,0.6-0.2,0.9-0.3l0.1,0.1l0.1,0.1    c-0.1,0.4-0.3,0.9-0.4,1.3v0.2c0.1,1.3,0.3,2.7,0.5,4c0.2,1.5,0.4,3.1,0.5,4.6c0.3,0.3,0.7,0.6,1,0.9c0.6-0.8,1.3-1.5,1.9-2.3    c1-1.2,2.1-2.5,3.2-3.8c-0.2-0.1-0.3-0.3-0.5-0.5c-0.3-0.4-0.7-0.7-1.1-1.1c-0.8-0.5-1-1-1-1.4c0-0.1,0.1-0.3,0.2-0.3h0.1    c0.2,0,0.4,0.2,0.7,0.5l0,0c0.1,0,0.3,0,0.5,0.1c0.8-0.6,1.1-1.6,0.7-3.1c0.8-2.1,2-3.8,3.6-5.5c0.7-0.2,1.2-0.3,1.8-0.1    c0.6,0.4,0.9,1,1.1,1.6c0.8,2.7,4.2,9.5,7.2,9.5l0,0c0.5-0.2,1-0.5,1.4-0.7c0.3-0.1,0.5-0.3,0.8-0.4c1.3,0.6,2.5,1.2,3.8,1.8    c-0.9,0.9-1.3,1.3-1.3,1.6c0,0.1,0,0.1,0.1,0.2c-3.7,0.3-6.1,2-7.6,5.1c0.4,0.2,0.7,0.3,1.1,0.5c0.7-0.7,1.4-1.3,2.7-1.5    c0,0.1,0,0.2,0,0.3s0,0.2,0,0.3c1.7,0.2,3.3,0.3,5,0.5c0.1-0.1,0.2-0.1,0.2-0.2c0.1-0.1,0.2-0.2,0.3-0.2l0,0c0.7,0,1.4,0.4,2,0.7    h0.1v-0.2c0.1-0.3,0.2-0.6,0.3-0.9c0.7,0.3,1.5,0.6,2.2,0.9c0.6,0.2,1.2,0.5,1.8,0.7l-2.9,2.4c0.5-0.1,1.1-0.2,1.6-0.3    c0.9-0.1,1.8-0.3,2.7-0.4l2.6,3.9l-0.6-4.9l3.7-2.1l-4.3,0.2l-1.6-3.5l-0.4,3L46,139c0.6-1.2,1.3-2.1,2.1-2.5c3,0.8,6,1.2,9.2,1.3    v7.4c-0.3,3.1,0.4,5.9,2.1,8.6c1.7-2.6,2.1-5.7,2.2-8.3V138c0.3,0.2,0.5,0.5,0.7,0.8s0.4,0.5,0.6,0.8c0,0,0.1,0.1,0.2,0.1    c0.1,0,0.2,0.1,0.2,0.1c0.4-0.1,0.8-0.3,1.2-0.4c1.3,3.1,3.9,5.5,7.9,7.4c1,0.3,1.6,0.7,1.9,1.4c0.7,1.8-1.1,4.9-3.2,8    c-1.3,1.1-2.8,2.4-4.6,3.3c-1.5,1.3-2.9,2.8-4.1,4.6l0.1,1.4L65.2,165.8z"/>
	</g>
	<g>
		<path class="st3" d="M34.3,107.7c0.5,0,0.9,0.4,0.9,0.8c0,0.5-0.4,0.9-0.9,0.9c-0.4,0-0.8-0.4-0.8-0.9    C33.5,108.1,33.9,107.7,34.3,107.7"/>
	</g>
	<g>
		<path d="M34.3,109.4c-0.5,0-0.8-0.4-0.8-0.9s0.4-0.8,0.8-0.8c0.5,0,0.9,0.4,0.9,0.8C35.2,109,34.8,109.4,34.3,109.4z M34.3,107.7    c-0.4,0-0.8,0.4-0.8,0.8c0,0.5,0.4,0.8,0.8,0.8c0.5,0,0.9-0.4,0.9-0.8S34.8,107.7,34.3,107.7z"/>
	</g>
	<g>
		<path class="st4" d="M34.4,107.3c0.6-0.8,1.2-1.7,1.6-2.6c6.3,3.9,16.4,3.5,27.5,2.1c1-0.2,1.1,0.2,0.2,0.8    C62.1,108.2,43.7,110.2,34.4,107.3"/>
	</g>
	<g>
		<path d="M48,108.9c-4.9,0-10-0.4-13.6-1.5l0,0l0,0c0.6-0.7,1.2-1.6,1.6-2.6c6.7,4.1,17.7,3.4,27.5,2.1c0.5-0.1,0.7-0.1,0.8,0.1    c0.1,0.2-0.2,0.4-0.6,0.8C62.7,108,55.6,108.9,48,108.9z M34.5,107.3c9.3,2.9,27.7,0.8,29.3,0.3c0.4-0.3,0.7-0.6,0.6-0.7    s-0.3-0.2-0.8-0.1c-6.5,0.8-11.4,1.1-15.5,1c-5.1-0.2-9-1.2-12-3.1C35.7,105.7,35,106.6,34.5,107.3z"/>
	</g>
	<g>
		<path class="st4" d="M34,99.7c1.5-1.8,3.1-3.6,5-5.4l0.7,0.6c-1.7,1.9-3.4,3.8-5.1,5.4C34.5,100,34.3,99.9,34,99.7"/>
	</g>
	<g>
		<path d="M34.7,100.2c-0.2-0.2-0.4-0.4-0.6-0.5l0,0l0,0c1.5-1.8,3.1-3.6,5-5.4l0.7,0.6c-0.5,0.6-1.1,1.2-1.6,1.7    C37,97.9,35.8,99.1,34.7,100.2z M34,99.7c0.2,0.1,0.4,0.3,0.6,0.5c1.1-1.1,2.3-2.4,3.5-3.7c0.5-0.6,1-1.1,1.6-1.7L39,94.3    C37.1,96.1,35.5,97.9,34,99.7z"/>
	</g>
	<g>
		<path class="st4" d="M40.8,94.9c0.2-0.2,0.3-0.3,0.5-0.5c1,1,1.5,2.4,1.4,4.1c-0.3,0.1-0.5,0.3-0.8,0.4C42,97.3,41.7,96,40.8,94.9    "/>
	</g>
	<g>
		<path d="M42,98.9c0.1-1.6-0.3-2.9-1.2-4l0,0l0,0c0,0,0.1-0.1,0.2-0.1c0.1-0.1,0.2-0.2,0.4-0.4c1,1.1,1.5,2.5,1.4,4.1    c-0.1,0.1-0.2,0.1-0.4,0.2C42.3,98.7,42.1,98.8,42,98.9z M40.8,94.9c0.8,1.1,1.2,2.4,1.1,4c0.1-0.1,0.3-0.1,0.4-0.2    c0.1-0.1,0.2-0.1,0.4-0.2c0.1-1.6-0.4-3-1.4-4.1c-0.1,0.1-0.2,0.2-0.3,0.4C40.9,94.8,40.9,94.8,40.8,94.9z"/>
	</g>
	<g>
		<path class="st5" d="M41.4,94c0-0.2,0.1-0.6,0.2-0.8c1-1.1,1.7-2,1.9-3.9c7.3,2,11,8.2,11.3,18c-4.8,0.3-9.8,0-14.7-1.2    c1.3-2,1.7-4,1.4-6.6c0.5-0.3,1-0.6,1.5-0.9C43.1,96.9,42.6,95.4,41.4,94"/>
	</g>
	<g>
		<path d="M51.2,107.5c-3.8,0-7.5-0.4-11.2-1.3c1.3-1.9,1.7-4,1.4-6.6c0.3-0.2,0.6-0.4,1-0.6c0.2-0.1,0.3-0.2,0.5-0.3    c0.2-1.7-0.3-3.3-1.6-4.6l0,0l0,0c0-0.1,0-0.2,0.1-0.4c0-0.2,0.1-0.3,0.1-0.4c1-1.1,1.7-2,1.9-3.9c7.2,2,11,8,11.3,18    C53.6,107.5,52.4,107.5,51.2,107.5z M41.4,94c1.2,1.3,1.8,2.9,1.6,4.6c-0.2,0.1-0.3,0.2-0.5,0.3c-0.3,0.2-0.6,0.4-1,0.6    c0.3,2.6-0.2,4.7-1.4,6.6c4.8,1.1,9.7,1.6,14.6,1.2c-0.3-10-4.1-16-11.3-18c-0.2,1.9-1,2.9-1.9,3.9c0,0.1,0,0.2-0.1,0.4    C41.4,93.8,41.4,93.9,41.4,94z"/>
	</g>
	<g>
		<path class="st5" d="M40.9,87.4c1.5,0,2.9,0.3,4.3,1l-1.1,0.3c1.2-0.2,2.4-0.2,3.5,0.4l-0.2,0.1l-0.8,0.6c0.6-0.4,1.1-0.3,1.7,0    c3.1,1.9,4,3.6,5.3,5.4h-0.7c1.3,0.2,2,2.4,3.2,4.5l-1.2-0.1c1,0.4,1.4,1.6,1.7,3.2l-1.3-0.6c1.6,1.3,1.7,3.1,1.4,5l-1.7,0.2    c-0.4-9.3-3.2-16.7-12.9-18.6C41.3,88.4,40.9,88,40.9,87.4"/>
	</g>
	<g>
		<path d="M55.1,107.3c-0.3-5.2-1.2-9.1-3-12.1c-2.1-3.5-5.4-5.6-9.9-6.5C41.4,88.4,41,88,41,87.4l0,0c1.4,0,2.8,0.3,4.3,1l-1.1,0.3    c1.1-0.2,2.3-0.3,3.5,0.4l-0.2,0.1l-0.7,0.6c0.6-0.4,1.1-0.3,1.7,0c2.6,1.6,3.7,3.1,4.7,4.5c0.2,0.3,0.4,0.6,0.6,0.8h-0.7    c1,0.1,1.7,1.4,2.4,2.9c0.3,0.5,0.5,1.1,0.8,1.6l-1.2-0.1c0.8,0.3,1.4,1.3,1.8,3.2l-1.3-0.6c1.4,1.1,1.8,2.6,1.4,5L55.1,107.3z     M40.9,87.4c0,0.6,0.4,1,1.2,1.3c4.6,0.9,7.8,3,9.9,6.5c1.8,2.9,2.8,6.9,3,12.1l1.7-0.2c0.4-2.3,0-3.8-1.4-4.9l1.3,0.6    c-0.4-1.8-0.9-2.8-1.8-3.2l1.2,0.1c-0.3-0.5-0.6-1.1-0.8-1.6c-0.8-1.5-1.4-2.8-2.4-2.9l0.7-0.1c-0.2-0.3-0.4-0.5-0.6-0.8    c-1-1.4-2.1-2.9-4.7-4.5c-0.6-0.3-1.1-0.4-1.7,0l0,0l0,0l0.8-0.6l0.2-0.1c-1.2-0.7-2.4-0.6-3.5-0.4l1.1-0.3    C43.7,87.7,42.3,87.4,40.9,87.4z"/>
	</g>
	<g>
		<path class="st5" d="M16.1,123.9l1.3-3.7l0.4,0.6c-0.4-1.4,0.4-2.4,2.5-3.2c2.5-1.6,4.9-2.9,7.4-4.2l0.1,0.9    c0.3-1.5,1.3-1.9,2.8-1.1l2.1,1.5c0.4,0.3,0.3,0.7,0.1,1L32,117c-1-1.2-3.1-1.2-5.6-0.6c-1.2,0.2-2.4,1.7-3.7,4    c-1.3,0.2-1.8,0.9-1.6,2.1l-1.4,2.4L16.1,123.9z"/>
	</g>
	<g>
		<path d="M19.8,124.8l-3.7-0.9l0,0l1.3-3.7l0.4,0.6c-0.4-1.4,0.4-2.4,2.5-3.2c2.6-1.7,5.1-3,7.4-4.2l0.1,0.9    c0.2-0.7,0.5-1.2,0.9-1.4c0.5-0.2,1.1-0.1,1.9,0.2l2.1,1.5c0.5,0.4,0.3,0.7,0.1,1.1L32,117c-0.9-1-2.7-1.3-5.6-0.6    c-1.1,0.1-2.3,1.5-3.6,4c-0.7,0.1-1.2,0.3-1.4,0.7c-0.2,0.3-0.3,0.8-0.1,1.3L19.8,124.8z M16.1,123.9l3.7,0.9l1.4-2.4    c-0.1-0.6-0.1-1,0.1-1.4c0.3-0.4,0.7-0.6,1.4-0.7c1.3-2.5,2.5-3.9,3.7-4c2.9-0.6,4.6-0.4,5.6,0.6l0.8-1.3c0.2-0.3,0.4-0.7-0.1-1    l-2.1-1.5c-0.7-0.4-1.4-0.5-1.9-0.2c-0.4,0.2-0.8,0.7-0.9,1.4l-0.1-0.9c-2.3,1.2-4.8,2.5-7.4,4.2c-2.1,0.8-2.9,1.9-2.5,3.2    l-0.4-0.6L16.1,123.9z"/>
	</g>
	<g>
		<path class="st5" d="M26,117c1.3-0.5,2.6-0.6,3.8-0.5c1.1,0,1.8,0.7,2.4,1.6c1.7,2.4,3.6,4.2,5.5,7.1c0.3,0.8,0.3,1.4,0,1.9    c0.3-0.3,0.6-0.7,0.4-1.3c-0.2-1.8-2.2-2.9-1.8-3.9c-0.1-1.4,0.5-2.2,1.2-2.8c4.9-1.2,8.8-0.6,12.8-0.3c-3,4.8-6.1,9.6-9.1,14.4    c-0.7-0.4-1.4-0.8-2.1-1.1c0.6-0.7,1.8-1.2,3-1.7c-1.3,0.5-2.5,0.8-5.1,2.9c-0.6,0-1.2,0.1-1.8-0.4c-2.6-2.4-4-5.3-5.1-8.5    c-1.4-2.4-1-2.8-3.4-2.2c-1.7,1.7-3.3,3.5-4,5.9c-0.1-0.3-0.2-0.5-0.3-0.7c-0.4,1.3,0.9,2.8-0.2,3.2c-0.4,0-0.8-0.1-1.2-0.1    c-1.1,0.5-0.8,1.2-0.4,2c-1.1,0.1-2.4,0.6-3.6,1.4c0-0.8-0.1-1.4-0.1-2.2c0.3,0.1,0.7,0,1,0.1c-1.3-0.7-1.4-1.7-0.1-3.3    c1.8-2.6,3.6-5.3,5.4-8.1c0.5-0.8,1-1.6,1.7-2.1c0.1,0.2,0.3,0.4,0.4,0.7C25.2,118,25.2,117.3,26,117"/>
	</g>
	<g>
		<path d="M16.9,133.7c0-0.4,0-0.8,0-1.1s0-0.7,0-1.1c0.2,0,0.3,0,0.5,0s0.4,0,0.5,0.1c-0.6-0.3-0.9-0.6-1-1.1    c-0.1-0.6,0.2-1.3,0.9-2.2c1.7-2.5,3.6-5.2,5.4-8.1c0.5-0.8,1-1.6,1.7-2.1c0.1,0.1,0.2,0.3,0.3,0.4c0.1,0.1,0.1,0.2,0.2,0.3    c-0.2-0.8-0.2-1.5,0.6-1.8l0,0c1-0.4,2-0.6,3.2-0.6c0.2,0,0.4,0,0.6,0c1,0,1.7,0.5,2.4,1.6c0.8,1.1,1.5,2,2.4,3    c1,1.2,2.1,2.5,3.1,4.1c0.3,0.8,0.3,1.4,0,1.9c0.3-0.3,0.6-0.7,0.4-1.3c-0.1-0.9-0.7-1.6-1.1-2.3c-0.5-0.6-0.9-1.1-0.6-1.6    c-0.1-1.4,0.5-2.2,1.2-2.8c4.3-1,7.8-0.8,11.4-0.4c0.5,0,1,0.1,1.4,0.1c-1.2,1.9-2.3,3.7-3.5,5.6c-1.8,2.9-3.7,5.9-5.6,8.9    c-0.2-0.1-0.4-0.2-0.6-0.3c-0.5-0.3-1-0.5-1.5-0.8c0.5-0.6,1.4-1.1,2.6-1.6c0,0,0,0-0.1,0c-1.2,0.4-2.3,0.9-4.7,2.7    c-0.2,0-0.3,0-0.5,0c-0.5,0-0.9-0.1-1.3-0.4c-2.8-2.5-4.1-5.7-5.2-8.5c-0.2-0.4-0.4-0.7-0.6-1c-0.8-1.5-0.9-1.6-2.9-1.2    c-1.7,1.8-3.3,3.5-4,5.9c-0.1-0.2-0.2-0.5-0.3-0.7c-0.2,0.6,0,1.2,0.1,1.8c0.2,0.7,0.3,1.2-0.3,1.4c-0.2,0-0.4,0-0.6-0.1    s-0.4,0-0.6-0.1c-0.4,0.2-0.6,0.4-0.7,0.7c-0.1,0.4,0.1,0.9,0.3,1.3C19.4,132.5,18.3,132.9,16.9,133.7z M16.9,131.6    c0,0.4,0,0.7,0,1c0,0.4,0,0.7,0,1.1c1.3-0.8,2.5-1.3,3.6-1.4c-0.3-0.4-0.5-0.9-0.3-1.3c0.1-0.3,0.3-0.5,0.7-0.7    c0.2,0,0.4,0,0.6,0.1s0.4,0,0.6,0.1c0.6-0.2,0.4-0.7,0.3-1.4c-0.1-0.6-0.3-1.2-0.1-1.8c0.1,0.3,0.2,0.5,0.3,0.7    c0.7-2.5,2.3-4.2,4-5.9c2-0.5,2.1-0.3,2.9,1.2c0.2,0.3,0.3,0.6,0.6,1c1,2.8,2.4,6,5.1,8.5c0.4,0.4,0.9,0.4,1.3,0.4    c0.2,0,0.3,0,0.5,0c2.4-1.8,3.6-2.3,4.7-2.7c0.1-0.1,0.3-0.1,0.4-0.2l0,0l0,0l0,0l0,0c-0.1,0-0.2,0.1-0.3,0.1    c-1.2,0.5-2.1,1-2.7,1.6c0.5,0.2,1,0.5,1.5,0.8c0.2,0.1,0.4,0.2,0.6,0.3c1.8-3,3.8-6,5.6-8.9c1.2-1.8,2.3-3.7,3.5-5.5    c-0.5,0-1-0.1-1.4-0.1c-3.6-0.3-7.1-0.6-11.4,0.4c-0.7,0.6-1.3,1.4-1.2,2.8c-0.2,0.5,0.2,1,0.6,1.6c0.5,0.6,1,1.3,1.1,2.3    c0.1,0.7-0.1,1-0.4,1.3c0.2-0.5,0.2-1.1,0-1.9c-1-1.6-2.1-2.9-3.1-4.1c-0.8-1-1.6-1.9-2.4-3c-0.7-1.1-1.4-1.6-2.4-1.6    c-0.2,0-0.4,0-0.6,0c-1.2,0-2.2,0.2-3.2,0.6l0,0c-0.8,0.3-0.7,1.1-0.6,1.8c-0.1-0.1-0.1-0.2-0.2-0.3c-0.1-0.1-0.2-0.3-0.3-0.4    c-0.7,0.5-1.2,1.3-1.7,2.1c-1.8,2.9-3.7,5.6-5.4,8.1c-0.7,0.9-1,1.6-0.9,2.2c0.1,0.4,0.4,0.8,1,1.1c-0.2-0.1-0.4-0.1-0.5-0.1    C17.2,131.6,17,131.6,16.9,131.6z"/>
	</g>
	<g>
		<path class="st5" d="M32.7,116.5c1.7-3.8,3.4-6.1,5-6.4l-0.7,1.2l0.3,0.4c0.9-0.6,1.8-0.8,2.8-0.8h-2.4l1.1-2.1    c5.1,0.9,10.6,0.5,16,0.2l0.2,1c-1.6,0.8-2.8,2.4-3.4,4.7C45.2,113.9,39,114.2,32.7,116.5"/>
	</g>
	<g>
		<path d="M32.7,116.5L32.7,116.5c1.8-4,3.5-6.2,5-6.4l-0.7,1.2l0.3,0.3c0.9-0.7,1.9-0.8,2.8-0.8l0,0c-0.9,0-1.9,0.2-2.8,0.8    l-0.3-0.4l0.7-1.2C36.2,110.4,34.6,112.5,32.7,116.5c5.7-2.1,11.8-2.7,18.8-1.8c0.7-2.3,1.8-3.9,3.4-4.7l-0.2-1H54    c-5.1,0.3-10.3,0.6-15.2-0.2l-1.1,2.1h2.4h-2.4l1.1-2.1c4.8,0.8,10.1,0.5,15.2,0.2h0.8l0.2,1c-1.6,0.8-2.8,2.4-3.4,4.7    C44.5,113.8,38.4,114.4,32.7,116.5L32.7,116.5z"/>
	</g>
	<g>
		<path class="st5" d="M33.6,119.4c4.7-2.3,10.7-2.5,17.4-1.8l-0.4,0.8c-6-0.8-11.7-0.8-16.5,1.7L33.6,119.4z"/>
	</g>
	<g>
		<path d="M34,120l-0.5-0.6l0,0c4.1-2,9.6-2.6,17.4-1.8l-0.4,0.8C43.3,117.4,38.2,117.9,34,120z M33.6,119.4L34,120    c4.2-2.1,9.3-2.6,16.5-1.7l0.4-0.8C43.2,116.8,37.7,117.4,33.6,119.4z"/>
	</g>
	<g>
		<path class="st4" d="M32.2,117.3c5.7-2.8,12.4-3,19.3-2.2l-0.3,2.3c-9.6-1.2-14,0.2-17.9,1.8L32.2,117.3z"/>
	</g>
	<g>
		<path d="M33.3,119.1l-1.2-1.8l0,0c3.6-1.8,7.8-2.6,12.9-2.6c2,0,4.1,0.1,6.4,0.4l-0.3,2.3C41.4,116.2,37,117.6,33.3,119.1z     M32.2,117.3l1.1,1.8c3.7-1.6,8.1-3,17.9-1.8l0.3-2.2C43.4,114.2,37.2,114.9,32.2,117.3z"/>
	</g>
	<g>
		<path class="st5" d="M34.4,120.4c0.9-0.5,1.7-0.7,2.5-1.1c-0.6,0.8-1,1.7-1.2,2.6L34.4,120.4z"/>
	</g>
	<g>
		<path d="M35.7,121.9l-1.3-1.5l0,0c0.5-0.3,1-0.5,1.5-0.7c0.3-0.1,0.6-0.2,0.9-0.4C36.3,120.1,35.9,121,35.7,121.9z M34.5,120.4    l1.2,1.5c0.2-1,0.6-1.9,1.2-2.6c-0.3,0.2-0.6,0.3-0.9,0.4C35.5,119.9,35,120.1,34.5,120.4z"/>
	</g>
	<g>
		<polygon class="st5" points="41.8,133.4 43.3,131.1 44.8,131.5 43.1,134   "/>
	</g>
	<g>
		<path d="M43.1,134l-1.3-0.6l0,0l1.5-2.3l1.5,0.3L43.1,134z M41.8,133.4l1.3,0.6l1.7-2.6l-1.5-0.3L41.8,133.4z"/>
	</g>
	<g>
		<path class="st4" d="M43.6,130.5l7.3-11.7l0.6,0.1c0.1,1,0.5,1.8,1.1,2.6c-0.9,0.4-1.8,0.9-2.6,1.5c-0.3,0.6-0.4,1.3-0.3,1.8    l-4.5,6.3C44.7,130.9,44,130.9,43.6,130.5"/>
	</g>
	<g>
		<path d="M45.2,131.1c-0.2-0.1-0.4-0.1-0.6-0.2c-0.4-0.1-0.8-0.2-1-0.4l0,0l0,0l7.3-11.7l0.6,0.1c0.1,0.9,0.5,1.7,1.1,2.6    c-0.9,0.4-1.8,0.9-2.6,1.5c-0.3,0.6-0.4,1.2-0.3,1.8L45.2,131.1z M43.6,130.5c0.3,0.2,0.6,0.3,1,0.4c0.2,0,0.4,0.1,0.6,0.2    l4.5-6.3c-0.1-0.6,0-1.3,0.3-1.8c0.8-0.6,1.7-1.1,2.6-1.5c-0.6-0.9-1-1.6-1.1-2.6l-0.6-0.1L43.6,130.5z"/>
	</g>
	<g>
		<polygon class="st5" points="42.8,135.1 49.6,125.6 49.9,127 43.6,135.6   "/>
	</g>
	<g>
		<path d="M43.6,135.6l-0.8-0.5l0,0l6.8-9.5l0.2,1.4L43.6,135.6z M42.8,135.1l0.8,0.5l6.3-8.6l-0.2-1.4L42.8,135.1z"/>
	</g>
	<g>
		<path class="st5" d="M44.4,138.4c0.8-2,2.5-3.8,4.7-5.5c1.6-1.4,2.8-3.4,3.9-5.9c1,0.4,1.4,1,0.9,2.2c-0.4,1.7-1.5,3.5-4.1,5.7    c-1.7,0.9-3.1,2.2-4.3,4.2L44.4,138.4z"/>
	</g>
	<g>
		<path d="M45.5,139l-1.1-0.6l0,0c0.8-1.9,2.3-3.7,4.7-5.5c1.5-1.4,2.8-3.3,3.9-5.9c0.6,0.2,0.9,0.5,1.1,0.9    c0.1,0.4,0.1,0.8-0.2,1.3c-0.4,1.9-1.7,3.7-4.1,5.7C47.9,135.9,46.5,137.2,45.5,139z M44.4,138.4l1.1,0.6c1-1.8,2.4-3.1,4.3-4.2    c2.4-2,3.7-3.8,4.1-5.7c0.2-0.5,0.3-0.9,0.2-1.3c-0.1-0.4-0.5-0.7-1-0.9c-1.1,2.6-2.4,4.5-3.9,5.9    C46.7,134.7,45.1,136.5,44.4,138.4z"/>
	</g>
	<g>
		<path class="st3" d="M42.6,135.7c0.4,0,0.7,0.3,0.7,0.7s-0.3,0.7-0.7,0.7s-0.7-0.3-0.7-0.7C41.9,136.1,42.2,135.7,42.6,135.7"/>
	</g>
	<g>
		<path d="M42.6,137.2c-0.4,0-0.7-0.3-0.7-0.7s0.4-0.7,0.7-0.7c0.4,0,0.7,0.3,0.7,0.7C43.3,136.8,43,137.2,42.6,137.2z M42.6,135.7    c-0.4,0-0.7,0.3-0.7,0.7s0.3,0.7,0.7,0.7s0.7-0.3,0.7-0.7C43.3,136.1,43,135.7,42.6,135.7z"/>
	</g>
	<g>
		<path d="M43.7,138.1l-1-0.2l0,0l0.5-0.6l0.1,0.1C43.5,137.6,43.8,137.9,43.7,138.1z M42.8,137.9l1,0.2c0.1-0.2-0.2-0.6-0.4-0.8    c0,0,0-0.1-0.1-0.1L42.8,137.9z"/>
	</g>
	<g>
		<path class="st5" d="M42.6,139.4l2.5,1l-0.5,0.6C43.1,140.7,42.4,140,42.6,139.4"/>
	</g>
	<g>
		<path d="M44.6,140.9c-1-0.2-1.7-0.5-2-0.9c-0.1-0.2-0.1-0.4-0.1-0.6l0,0l0,0l2.5,1L44.6,140.9z M42.6,139.4    c-0.1,0.2,0,0.4,0.1,0.6c0.3,0.4,1,0.8,2,0.9l0.5-0.6L42.6,139.4z"/>
	</g>
	<g>
		<polygon class="st3" points="42.6,138.4 50.7,141.3 51,138.6 52,141.5 55.5,141.2 52.4,142.5 52.9,146.2 51.2,143.3 47.6,144     50.3,142 42.5,139   "/>
	</g>
	<g>
		<path d="M52.9,146.2l-1.7-2.9l-3.6,0.7l2.7-2l-7.8-3l0.1-0.7l0,0l8.1,2.9l0.2-2.7l1.1,3l3.4-0.4l-3.1,1.4L52.9,146.2z M51.2,143.3    l1.7,2.9l-0.5-3.7l3.1-1.3l-3.4,0.4l-1.1-3l-0.2,2.7l-8.1-2.9l-0.1,0.6l7.8,3l-2.7,2L51.2,143.3z"/>
	</g>
	<g>
		<path class="st3" d="M38,140.5c1.4-0.9,2.5-2,3.5-3.4c0.3,0,0.6,0.1,0.7,0.3c-0.6,1.6-0.3,2.7,0.3,3.5L38,140.5z"/>
	</g>
	<g>
		<path d="M42.6,141l-4.6-0.5l0,0c1.4-0.9,2.6-2,3.5-3.4l0,0c0.3,0,0.6,0.1,0.7,0.4C41.8,138.9,41.9,140.1,42.6,141z M38.1,140.5    l4.6,0.5c-0.8-0.9-0.9-2.1-0.4-3.5c-0.2-0.3-0.4-0.3-0.7-0.3C40.6,138.5,39.4,139.6,38.1,140.5z"/>
	</g>
	<g>
		<path class="st5" d="M34.3,141c2-3.1,4.3-4,6.7-4.2c-0.7,1.2-1.8,2.3-3.5,3.1c-1,0.1-1.9,0.6-2.8,1.3L34.3,141z"/>
	</g>
	<g>
		<path d="M34.7,141.3l-0.4-0.3l0,0c1.8-2.7,3.8-3.9,6.7-4.2c-0.8,1.4-1.9,2.4-3.5,3.2C36.6,140.1,35.6,140.6,34.7,141.3z M34.3,141    l0.4,0.3c0.9-0.7,1.8-1.2,2.8-1.3c1.6-0.8,2.7-1.8,3.5-3.1C38.2,137.1,36.1,138.4,34.3,141z"/>
	</g>
	<g>
		<path class="st5" d="M43.9,135.8c2.1-2.9,4.2-5.8,6.3-8.7c0.8-1,1.5-0.8,2.1-0.4c-0.1,1.8-1.1,3.2-2.2,4.7c-4.2,3.6-5.1,5.1-6,6.6    c-0.2-0.2-0.3-0.4-0.5-0.7C43.7,136.7,43.8,136.3,43.9,135.8"/>
	</g>
	<g>
		<path d="M44.1,137.9c-0.2-0.2-0.4-0.5-0.6-0.7c0.1-0.3,0.1-0.5,0.2-0.8c0.1-0.2,0.1-0.5,0.2-0.7l0,0l1.3-1.7    c1.6-2.3,3.3-4.6,5-6.9c0.8-1,1.5-0.8,2.1-0.4c-0.1,1.8-1.2,3.4-2.2,4.7C46,134.9,45.1,136.4,44.1,137.9L44.1,137.9z M43.9,135.8    c-0.1,0.3-0.1,0.5-0.2,0.7c-0.1,0.2-0.1,0.5-0.2,0.7c0.2,0.2,0.4,0.4,0.5,0.7l0.1-0.1c0.9-1.5,1.9-3,6-6.5c1-1.3,2.1-2.8,2.2-4.7    c-0.6-0.3-1.3-0.6-2.1,0.5c-1.7,2.3-3.4,4.7-5,6.9L43.9,135.8z"/>
	</g>
	<g>
		<path class="st5" d="M62.8,138c0.7-0.1,1.5,0,2.2,0.2v0.9l-1.6,0.1L62.8,138z"/>
	</g>
	<g>
		<path d="M63.4,139.2l-0.6-1.2l0,0c0.7-0.1,1.4,0,2.2,0.2v0.9L63.4,139.2z M62.8,138l0.6,1.2l1.5-0.1v-0.9    C64.2,138,63.5,137.9,62.8,138z"/>
	</g>
	<g>
		<path d="M82.8,148.3c-0.2-0.1-0.4-0.3-0.6-0.5c-0.4-0.4-0.7-0.8-1.5-0.3c-1.7-1.5-2-2.2-2.3-2.9c-0.1-0.2-0.2-0.4-0.3-0.6    l-0.1-0.1l0.1,0.1c0.7,1.1,1.5,2.2,2.7,3.1c1.1-0.5,1.5,0.2,1.8,0.9C82.6,148,82.7,148.2,82.8,148.3z M81.3,147.2    c0.4,0,0.6,0.3,0.8,0.6c0.2,0.2,0.4,0.4,0.6,0.5c-0.1-0.1-0.2-0.3-0.2-0.4c-0.4-0.7-0.7-1.4-1.8-0.9c-1.1-0.8-1.9-1.9-2.6-3    c0.1,0.2,0.2,0.4,0.2,0.5c0.3,0.7,0.6,1.4,2.3,2.9C80.9,147.3,81.1,147.2,81.3,147.2z"/>
	</g>
	<g>
		<path class="st3" d="M66.5,165.7h6.2c0.1,0,0.2,0.1,0.2,0.2v0.3c0,0.1-0.1,0.2-0.2,0.2h-6.2c-0.1,0-0.2-0.1-0.2-0.2v-0.3    C66.3,165.8,66.4,165.7,66.5,165.7"/>
	</g>
	<g>
		<path d="M72.7,166.3h-6.2c-0.1,0-0.2-0.1-0.2-0.2v-0.3c0-0.1,0.1-0.2,0.2-0.2h6.2c0.1,0,0.2,0.1,0.2,0.2v0.3    C72.9,166.2,72.8,166.3,72.7,166.3z M66.5,165.7c-0.1,0-0.2,0.1-0.2,0.1v0.3c0,0.1,0.1,0.2,0.2,0.2h6.2c0.1,0,0.2-0.1,0.2-0.2    v-0.3c0-0.1-0.1-0.1-0.2-0.1H66.5z"/>
	</g>
	<g>
		<path class="st3" d="M63.4,164.7h2.8c0.1,0-0.1,0.5-0.3,0.5h-2.6c-0.1,0-0.2-0.1-0.2-0.2v-0.1C63.2,164.8,63.3,164.7,63.4,164.7"/>
	</g>
	<g>
		<path d="M66,165.3h-2.6c-0.1,0-0.2-0.1-0.2-0.2V165c0-0.1,0.1-0.2,0.2-0.2h2.8l0,0l0,0C66.3,164.9,66.1,165.3,66,165.3z     M63.4,164.7c-0.1,0-0.2,0.1-0.2,0.2v0.1c0,0.1,0.1,0.2,0.2,0.2H66c0.1,0,0.3-0.4,0.3-0.5l0,0H63.4z"/>
	</g>
	<g>
		<path class="st5" d="M61.8,137.5c0-2.9,0-5.9,0-8.9c0.3-0.2,0.6-0.6,1-1.2c0-0.4,0-0.7,0-1.1c0.2-0.2,0.4-0.4,0.7-0.6    c1.7,0.7,3.6,1.3,5.3,2c-0.7,4.6-0.4,7.7,2.5,8.4c0.4-0.2,0.8-0.1,1.2-0.3c-0.2-0.5-0.3-1-0.5-1.4c-2.1-0.6-2.2-3.1-1.3-6.2    c1.5,0.5,3.1,1.2,4.4,2c-0.5,3.7-0.5,6.8,2.9,8.5c0.4-0.3,0.7-0.4,1.1-0.6c-0.2-0.5-0.3-1-0.5-1.4c-1.6-0.5-2.4-2.3-1.7-5.8    c2.4,1.4,5.3,3.4,6.7,5.1c-1.1,2.4-2.4,4.9-3.2,7.4c-0.2,1.2,0.4,2.4,2.6,3.6c1.4,0.7,1.4,1.8,0.5,3.2c-2,3.4-4,6.9-5.9,10.3    c-0.2-0.4-0.3-0.8-0.5-1.1c0.3,1.6,0.4,3.1-1,4.1c-0.2-0.7-0.3-1.1-1-1.2c-1.1-0.1-2.2,0.5-2.3,1.5c-1.2-1.1-2.2-1.5-3.6-1.9    c3-2.3,6.2-4.3,7.7-9.2c1.1-2.1,0.5-3.7-1.8-4.9c-4.1-1.6-8.9-4.9-9.9-8.1c0.3-3.5-0.2-3.8-0.7-4.6c0.3,1,0.7,2,0.3,2.8    C63.8,137.6,62.8,137.6,61.8,137.5"/>
	</g>
	<g>
		<path d="M72.9,163.6c-1.2-1-2.2-1.4-3.6-1.9c0.3-0.2,0.6-0.5,0.9-0.7c2.7-2,5.5-4.1,6.8-8.5c0.5-1,0.7-1.9,0.5-2.7    c-0.3-0.9-1-1.6-2.2-2.2c-4-1.6-8.9-4.9-9.9-8.1c0.2-3.3-0.1-3.8-0.6-4.5c0-0.1-0.1-0.1-0.1-0.2c0.4,1,0.7,2,0.3,2.8    c-0.6-0.1-1.3-0.1-1.9-0.2c-0.4,0-0.8-0.1-1.2-0.1l0,0c0-1.5,0-3,0-4.4s0-3,0-4.4c0.3-0.2,0.6-0.6,1-1.2c0-0.2,0-0.4,0-0.6    s0-0.4,0-0.6c0.1-0.1,0.2-0.2,0.3-0.3s0.2-0.2,0.3-0.3c0.8,0.3,1.6,0.6,2.4,0.9c1,0.4,2,0.7,3,1.1c-0.6,3.9-0.7,7.7,2.5,8.4    c0.2-0.1,0.4-0.1,0.6-0.2c0.2,0,0.4-0.1,0.6-0.2c-0.2-0.4-0.3-0.9-0.5-1.4V134c-1.8-0.5-2.3-2.6-1.3-6.2c1.3,0.4,3,1.2,4.4,2    c-0.5,3.3-0.6,6.7,2.9,8.5c0.4-0.3,0.7-0.4,1.1-0.6l0,0c-0.2-0.5-0.3-0.9-0.5-1.4c-1.8-0.5-2.4-2.6-1.7-5.8    c1.8,1.1,5.1,3.2,6.8,5.1c-0.1,0.3-0.3,0.6-0.4,0.9c-1,2.1-2,4.3-2.8,6.5c-0.2,1.4,0.6,2.5,2.6,3.6c0.6,0.3,0.9,0.7,1.1,1.1    c0.2,0.6,0,1.3-0.5,2.1s-0.9,1.6-1.4,2.4c-1.5,2.6-3,5.3-4.5,7.9c-0.1-0.3-0.3-0.5-0.4-0.8c-0.1-0.1-0.1-0.2-0.2-0.4    c0.3,1.5,0.4,3.1-1,4.1c-0.2-0.7-0.3-1.1-1-1.2C74,161.9,73,162.6,72.9,163.6z M64.5,134.9c0.1,0.1,0.1,0.1,0.1,0.2    c0.5,0.7,0.9,1.2,0.6,4.5c1,3.2,5.9,6.5,9.9,8.1c1.2,0.6,2,1.4,2.2,2.2s0.1,1.7-0.5,2.7c-1.3,4.4-4.1,6.5-6.8,8.5    c-0.3,0.2-0.6,0.4-0.9,0.7c1.5,0.4,2.4,0.9,3.6,1.9c0.1-0.9,0.9-1.5,2-1.5c0.1,0,0.2,0,0.3,0c0.6,0.1,0.8,0.5,1,1.2    c1.4-1,1.2-2.6,1-4.1c0.1,0.1,0.1,0.2,0.2,0.3c0.1,0.2,0.2,0.5,0.3,0.8c1.5-2.6,3-5.3,4.5-7.9c0.5-0.8,0.9-1.6,1.4-2.4    c0.5-0.8,0.7-1.5,0.5-2.1c-0.1-0.5-0.5-0.8-1-1.1c-2-1-2.9-2.2-2.6-3.6c0.7-2.2,1.8-4.4,2.8-6.5c0.1-0.3,0.3-0.6,0.4-0.9    c-1.6-1.9-4.9-4-6.7-5.1c-0.7,3.2-0.1,5.3,1.7,5.8c0.2,0.5,0.3,1,0.5,1.4l0,0c-0.4,0.2-0.7,0.3-1.1,0.6c-3.5-1.8-3.3-5.2-2.9-8.5    c-1.4-0.8-3-1.5-4.4-2c-0.9,3.7-0.5,5.7,1.3,6.2v0.1c0.1,0.4,0.3,0.9,0.5,1.4c-0.2,0.1-0.4,0.2-0.6,0.2s-0.4,0.1-0.6,0.2    c-3.2-0.7-3.1-4.5-2.6-8.4c-1-0.4-2-0.7-3-1.1c-0.8-0.3-1.6-0.6-2.3-0.9c-0.1,0.1-0.2,0.2-0.3,0.3c-0.1,0.1-0.2,0.2-0.3,0.3    c0,0.2,0,0.4,0,0.6s0,0.4,0,0.6c-0.4,0.7-0.6,1.1-1,1.2c0,1.5,0,3,0,4.4c0,1.5,0,3,0,4.4c0.4,0,0.8,0.1,1.2,0.1    c0.6,0,1.2,0.1,1.9,0.2C65.2,136.9,64.9,135.9,64.5,134.9z"/>
	</g>
	<g>
		<path class="st3" d="M57.6,117.2h3.8v1c-1.6,0.7-1.1,2.1,0,2.7v1h-3.7V121c1.5-0.7,1.5-2.2,0-2.8L57.6,117.2L57.6,117.2z"/>
	</g>
	<g>
		<path d="M57.7,121.9V121c0.7-0.4,1.2-0.9,1.1-1.5c0-0.6-0.4-1-1.2-1.3v-1h3.8v1c-0.7,0.3-1,0.7-1,1.2c0,0.6,0.4,1.1,1,1.4v1    L57.7,121.9z M57.7,117.2v0.9c0.7,0.3,1.1,0.8,1.2,1.3c0,0.6-0.4,1.2-1.1,1.5v0.9h3.7v-1c-0.6-0.3-1-0.9-1-1.4s0.4-1,1-1.2v-1    L57.7,117.2z"/>
	</g>
	<g>
		<path class="st5" d="M57.6,118.7v1.8C58.9,120.5,58.4,118.5,57.6,118.7"/>
	</g>
	<g>
		<path d="M57.6,120.6v-1.8l0,0c0.2-0.1,0.3,0,0.5,0.1c0.2,0.2,0.4,0.8,0.3,1.2C58.3,120.3,58.1,120.5,57.6,120.6z M57.7,118.8v1.8    c0.4,0,0.6-0.3,0.7-0.5c0.2-0.4,0-1-0.2-1.2C58,118.8,57.8,118.7,57.7,118.8z"/>
	</g>
	<g>
		<path class="st4" d="M61.8,116.9c0-2.8,1.2-5.2,3.8-6.5l0.3,0.3c-2.3,1.4-3.3,3.4-3.5,6.2v10c-0.1,0.9-0.3,1.5-0.6,0L61.8,116.9z"/>
	</g>
	<g>
		<path d="M62.2,127.7c-0.1,0-0.2-0.3-0.3-0.9v-10c0-2.9,1.3-5.3,3.8-6.6l0.4,0.3c-2.2,1.4-3.3,3.3-3.5,6.2v10    C62.4,127.4,62.3,127.7,62.2,127.7L62.2,127.7z M65.6,110.3c-2.4,1.3-3.8,3.6-3.8,6.5v10c0.1,0.7,0.3,0.9,0.3,0.9l0,0    c0.1,0,0.2-0.3,0.3-0.9v-10c0.2-2.9,1.3-4.8,3.5-6.2L65.6,110.3z"/>
	</g>
	<g>
		<path class="st4" d="M64.7,124.8c1.4,0.3,2.7,0.8,3.9,1.3l-0.1,0.9l-4.7-1.4L64.7,124.8z"/>
	</g>
	<g>
		<path d="M68.5,127l-4.7-1.4l1-0.8l0,0c1.4,0.3,2.7,0.8,3.9,1.3L68.5,127z M64.7,124.8l-0.9,0.8l4.7,1.4l0.1-0.9    C67.4,125.6,66.1,125.1,64.7,124.8z"/>
	</g>
	<g>
		<path class="st4" d="M61,116.6c0.3-3.2,1.5-5.5,3.9-6.7l0.3,0.3c-2.3,1.5-3.5,3.6-3.7,6.4C61.5,116.6,61,116.6,61,116.6z"/>
	</g>
	<g>
		<path d="M61,116.6L61,116.6L61,116.6c0.3-3.4,1.6-5.6,3.9-6.8l0.4,0.3c-2.2,1.4-3.5,3.6-3.7,6.4L61,116.6z M61,116.6h0.6    c0.2-2.8,1.5-5,3.7-6.4l-0.3-0.3C62.6,111,61.3,113.2,61,116.6z"/>
	</g>
	<g>
		<path class="st5" d="M62.9,116.3c0.5-3.5,2.7-5.5,6.2-6.1c0.5,0.7,1,1.2,1.6,1.7c0.4,1.3,0.6,2.8,0.7,4.3    C69.3,115.5,66.6,115.5,62.9,116.3"/>
	</g>
	<g>
		<path d="M62.9,116.3L62.9,116.3c0.5-3.4,2.6-5.5,6.2-6.1c0.5,0.7,1,1.2,1.6,1.7c0.4,1.3,0.6,2.8,0.7,4.3    C69.1,115.5,66.3,115.5,62.9,116.3L62.9,116.3z M69.1,110.2c-3.6,0.7-5.7,2.7-6.2,6.1c3.4-0.7,6.2-0.8,8.5-0.2    c-0.1-1.5-0.3-3-0.7-4.3C70.1,111.4,69.6,110.9,69.1,110.2z"/>
	</g>
	<g>
		<path class="st5" d="M50.3,123.6c1.8,0.6,3.4,1.8,5,3.4l-0.4,1.2c-1-1.7-2.5-2.3-4.6-2C50,125.3,50,124.4,50.3,123.6"/>
	</g>
	<g>
		<path d="M54.9,128.2c-1-1.7-2.5-2.3-4.6-2c-0.3-0.9-0.3-1.8,0-2.7l0,0l0,0c1.7,0.6,3.4,1.7,5,3.4L54.9,128.2z M51.3,126.1    c1.6,0,2.8,0.7,3.6,2.1l0.4-1.2c-1.6-1.7-3.2-2.8-4.9-3.4c-0.3,0.8-0.3,1.7,0,2.6C50.6,126.2,51,126.1,51.3,126.1z"/>
	</g>
	<g>
		<path class="st5" d="M50.5,123.2c0.8-0.6,1.7-1.1,2.5-1.2c0.5,2.2,1.9,3.1,3.7,3.7c-0.3,0.5-0.7,0.7-1.3,0.9    C53.9,125.3,52.2,124.2,50.5,123.2"/>
	</g>
	<g>
		<path d="M55.4,126.6c-1.5-1.3-3.3-2.4-4.9-3.3l0,0l0,0c0.8-0.6,1.7-1.1,2.5-1.2c0.4,1.9,1.6,3.1,3.7,3.7    C56.4,126.1,56,126.4,55.4,126.6z M50.5,123.2c1.6,0.9,3.4,2,4.9,3.3c0.6-0.2,1-0.5,1.3-0.9c-2.1-0.6-3.3-1.7-3.7-3.6    C52.2,122.1,51.3,122.6,50.5,123.2z"/>
	</g>
	<g>
		<path class="st5" d="M54.8,124.4c0.2-1.4,1.1-2.5,2.3-3.6l0.1,3.9l-0.6,0.5C56,125.2,55.3,124.9,54.8,124.4"/>
	</g>
	<g>
		<path d="M56.6,125.3c-0.8-0.1-1.4-0.4-1.8-0.9l0,0c0.2-1.6,1.4-2.8,2.3-3.6l0.1,3.9L56.6,125.3z M54.8,124.4    c0.4,0.4,1.1,0.7,1.8,0.9l0.6-0.5l-0.1-3.9C56.2,121.7,55.1,122.9,54.8,124.4z"/>
	</g>
	<g>
		<path class="st5" d="M57.1,120.2c-1.1,1.3-2,2.6-2.7,3.9c-0.5-0.4-0.8-1.2-1.1-2c1.6-3.9,3.8-7.5,7.9-9.9h0.1l0.4,0.5    c-0.7,1.2-1.1,2.5-1.1,4l-3.6,0.1L57.1,120.2z"/>
	</g>
	<g>
		<path d="M54.4,124.1c-0.6-0.4-0.9-1.2-1.1-2c1.9-4.7,4.4-7.8,8-9.9h0.1l0.4,0.5c-0.7,1.2-1,2.5-1.1,4l-3.6,0.1v3.4l0,0    C55.9,121.5,55.1,122.9,54.4,124.1z M61.3,112.1c-3.6,2.2-6,5.2-7.9,9.9c0.2,0.8,0.5,1.6,1,2c0.6-1.2,1.5-2.5,2.7-3.9v-3.4    l3.6-0.1c0.1-1.5,0.4-2.8,1.1-4L61.3,112.1L61.3,112.1z"/>
	</g>
	<g>
		<path class="st4" d="M53.1,121.4c-1.9-2.6-2.1-6.8,0.5-9.8c2.7-3,4.7-1.1,5.3,1.8C56.7,115.1,54.8,118,53.1,121.4"/>
	</g>
	<g>
		<path d="M53.1,121.4L53.1,121.4c-1.8-2.5-2.2-6.7,0.5-9.8c1.1-1.2,2.2-1.7,3.1-1.5c1,0.3,1.8,1.5,2.2,3.3    C56.9,114.9,54.9,117.6,53.1,121.4L53.1,121.4z M56.2,110c-0.8,0-1.7,0.5-2.6,1.5c-2.8,3.2-2.4,7.3-0.5,9.8c1.9-3.7,3.8-6.4,5.8-8    c-0.4-1.7-1.2-3-2.2-3.2C56.5,110,56.4,110,56.2,110z"/>
	</g>
	<g>
		<path class="st4" d="M59.3,113c0.5-0.3,1-0.7,1.5-1C60.1,111.2,58.6,112.2,59.3,113"/>
	</g>
	<g>
		<path d="M59.3,113L59.3,113c-0.3-0.3-0.3-0.6,0-0.9c0.4-0.4,1.1-0.5,1.5-0.1c-0.3,0.2-0.5,0.3-0.7,0.5S59.6,112.8,59.3,113    L59.3,113z M60.2,111.7c-0.3,0-0.7,0.1-0.9,0.4c-0.3,0.3-0.3,0.6,0,0.9c0.3-0.1,0.5-0.3,0.7-0.5s0.5-0.4,0.7-0.5    C60.6,111.8,60.4,111.7,60.2,111.7z"/>
	</g>
	<g>
		<path class="st2" d="M57.6,108.7c1.3-0.1,2.6-0.2,3.9-0.3c0.6,0.8-1.5,2.7-2.6,3.3c-0.3-0.6-0.7-1.3-1.3-1.7    C57.7,109.6,57.6,109.1,57.6,108.7"/>
	</g>
	<g>
		<path d="M59,111.7c-0.3-0.6-0.7-1.3-1.3-1.7c0-0.4-0.1-0.8-0.1-1.2l0,0c1.2-0.1,2.4-0.2,3.6-0.3h0.4c0.1,0.1,0.1,0.3,0.1,0.5    C61.5,109.9,59.8,111.3,59,111.7z M57.7,108.7c0,0.4,0,0.8,0.1,1.2c0.6,0.4,1,1.1,1.3,1.7c0.8-0.4,2.5-1.8,2.7-2.8    c0-0.2,0-0.4-0.1-0.5h-0.3C60,108.6,58.8,108.7,57.7,108.7z"/>
	</g>
	<g>
		<path class="st5" d="M55.2,109c0.7-0.1,1.3-0.2,1.9-0.2v1c-0.6-0.2-1.2-0.2-1.9-0.1V109z"/>
	</g>
	<g>
		<path d="M57.1,109.8c-0.5-0.2-1.2-0.2-1.9-0.1v-0.8c0.6-0.1,1.2-0.2,1.9-0.2V109.8z M56.1,109.7c0.4,0,0.7,0.1,1,0.2v-1    c-0.7,0-1.3,0.1-1.9,0.2v0.8C55.5,109.7,55.8,109.7,56.1,109.7z"/>
	</g>
	<g>
		<path class="st5" d="M60.3,111.3c1.3-1.2,2.1-2.2,1.8-2.8l0.4-0.3c0.5,0.7,1.1,1.1,1.8,1.2l0.2,0.2c-1,0.8-1.8,1.6-2.4,2.6    C61.4,111.5,60.8,111.3,60.3,111.3"/>
	</g>
	<g>
		<path d="M62,112.2c-0.5-0.6-1.1-0.9-1.8-0.9l0,0l0,0c1.5-1.4,2.1-2.3,1.8-2.8l0.4-0.3c0.6,0.7,1.1,1.1,1.8,1.2l0.2,0.2    C63.3,110.5,62.5,111.4,62,112.2z M60.3,111.3c0.7,0,1.3,0.3,1.8,1c0.5-0.9,1.2-1.7,2.3-2.6l-0.2-0.2c-0.7-0.1-1.3-0.5-1.8-1.2    l-0.4,0.3C62.3,109,61.8,109.9,60.3,111.3z"/>
	</g>
	<g>
		<path class="st4" d="M71,126.8c0,0.2,0,0.7-0.2,1.1c1.3,0.6,2.5,1,3.8,1.6c0.2-0.3,0.3-0.5,0.3-0.8    C73.6,127.7,72.3,127.2,71,126.8"/>
	</g>
	<g>
		<path d="M74.6,129.4c-0.7-0.3-1.4-0.6-2.1-0.9c-0.6-0.2-1.1-0.4-1.7-0.7c0.1-0.3,0.2-0.8,0.2-1.1l0,0l0,0c1.5,0.4,2.8,1,3.9,1.8    C74.9,128.9,74.8,129.2,74.6,129.4z M71,126.8c0,0.2,0,0.7-0.2,1c0.6,0.2,1.1,0.5,1.7,0.7c0.7,0.3,1.4,0.5,2.1,0.9    c0.2-0.2,0.3-0.5,0.3-0.8C73.8,127.8,72.5,127.2,71,126.8z"/>
	</g>
	<g>
		<path class="st4" d="M73.8,120.6c0.4,0.1,0.9,0.3,1.4,0.4c1.2,2.2,1.8,4.6,1.5,7.2c-0.4,0.1-0.8,0.1-1.2-0.1    C75.9,125.6,75.4,123,73.8,120.6"/>
	</g>
	<g>
		<path d="M76.1,128.3c-0.2,0-0.5,0-0.7-0.1c0.5-2.6-0.1-5.3-1.7-7.6l0,0l0,0c0.3,0.1,0.7,0.2,1,0.3c0.1,0,0.2,0.1,0.4,0.1    c1.3,2.4,1.8,4.8,1.5,7.3C76.4,128.3,76.3,128.3,76.1,128.3z M73.8,120.6c1.6,2.4,2.1,5,1.6,7.6c0.3,0.1,0.7,0.1,1.2,0.1    c0.3-2.4-0.2-4.9-1.5-7.2c-0.1,0-0.2-0.1-0.4-0.1C74.4,120.8,74.1,120.7,73.8,120.6z"/>
	</g>
	<g>
		<path class="st5" d="M57.7,122.2h3.6v24.3c-0.1,2.3-0.7,4.4-1.8,6.2c-1-1.6-1.6-3.6-1.7-6.1L57.7,122.2z"/>
	</g>
	<g>
		<path d="M59.5,152.7c-1-1.7-1.6-3.7-1.7-6.1l-0.1-24.4h3.6v24.4C61.2,148.9,60.6,151,59.5,152.7z M57.7,122.2l0.1,24.4    c0.1,2.4,0.7,4.4,1.7,6.1c1-1.7,1.6-3.8,1.8-6.2v-24.4L57.7,122.2z"/>
	</g>
	<g>
		<path class="st4" d="M76.9,130.5l0.3-0.8c2.5,1.4,4.1,2.5,6.1,4.4c0.4,0.4,0.5,0.9,0.3,1.3C81.6,133.6,79.4,131.9,76.9,130.5"/>
	</g>
	<g>
		<path d="M83.7,135.4c-2.5-2.1-4.6-3.7-6.8-4.9l0,0l0,0l0.3-0.8c2.4,1.3,4,2.4,6.1,4.4C83.8,134.5,83.9,135,83.7,135.4z     M76.9,130.5c2.2,1.2,4.3,2.7,6.8,4.9c0.2-0.4,0.1-0.9-0.3-1.3c-2.1-2-3.8-3.1-6.1-4.5L76.9,130.5z"/>
	</g>
	<g>
		<path class="st4" d="M75.2,130.5c0.3,0.1,0.7,0.2,1.1,0.3c-0.2,2.7-0.2,5.2,1.7,6c0.2,0.3,0.4,0.6,0.5,0.9l-0.7,0.5    C75.9,137.2,74.6,135.3,75.2,130.5"/>
	</g>
	<g>
		<path d="M77.8,138.1c-2.3-1.1-3.1-3.4-2.6-7.7l0,0l0,0c0.3,0.1,0.7,0.2,1.1,0.3c-0.2,2.7-0.1,5.2,1.7,6c0.2,0.2,0.3,0.5,0.4,0.7    c0,0.1,0.1,0.1,0.1,0.2L77.8,138.1z M75.2,130.5c-0.5,4.2,0.3,6.6,2.6,7.6l0.7-0.5c0-0.1-0.1-0.1-0.1-0.2    c-0.1-0.2-0.3-0.5-0.4-0.7c-1.9-0.8-1.9-3.3-1.7-6C75.9,130.7,75.6,130.6,75.2,130.5z"/>
	</g>
	<g>
		<path class="st4" d="M69.1,127.8c0.3,0.1,0.7,0.2,1,0.2c0,0.3,0,0.5,0,0.8c-0.9,4.4,0.3,5,1.4,5.8c0.1,0.3,0.2,0.5,0.3,0.8    c-0.2,0.1-0.4,0.2-0.7,0.3C69.6,135.1,68,134.4,69.1,127.8"/>
	</g>
	<g>
		<path d="M71.2,135.7c-1.5-0.6-3.2-1.2-2.1-7.9l0,0c0.1,0,0.3,0.1,0.4,0.1c0.2,0,0.4,0.1,0.6,0.1c0,0.1,0,0.3,0,0.4s0,0.3,0,0.4    c-0.9,4.3,0.2,5,1.3,5.7l0.1,0.1c0.1,0.1,0.1,0.3,0.2,0.4c0.1,0.1,0.1,0.2,0.2,0.4C71.7,135.5,71.5,135.6,71.2,135.7L71.2,135.7z     M69.1,127.8c-1.1,6.7,0.6,7.3,2.1,7.9h0.1c0.2-0.1,0.4-0.2,0.6-0.3c-0.1-0.1-0.1-0.2-0.2-0.4c-0.1-0.1-0.1-0.3-0.2-0.4l-0.1-0.1    c-1.1-0.7-2.2-1.4-1.3-5.7c0-0.1,0-0.3,0-0.4c0-0.1,0-0.3,0-0.4c-0.2,0-0.4-0.1-0.6-0.1C69.3,127.9,69.2,127.9,69.1,127.8z"/>
	</g>
	<g>
		<path class="st3" d="M75.9,128.6c0.5,0,0.8,0.4,0.8,0.9c0,0.4-0.3,0.8-0.8,0.8s-0.9-0.4-0.9-0.8C75.1,128.9,75.4,128.6,75.9,128.6    "/>
	</g>
	<g>
		<path d="M75.9,130.3c-0.5,0-0.9-0.4-0.9-0.8c0-0.5,0.4-0.9,0.9-0.9s0.8,0.4,0.8,0.9C76.8,129.9,76.4,130.3,75.9,130.3z     M75.9,128.6c-0.5,0-0.9,0.4-0.9,0.8c0,0.5,0.4,0.8,0.9,0.8s0.8-0.4,0.8-0.8C76.7,128.9,76.4,128.6,75.9,128.6z"/>
	</g>
	<g>
		<path class="st3" d="M69.8,126c0.5,0,0.9,0.4,0.9,0.9s-0.4,0.8-0.9,0.8c-0.4,0-0.8-0.3-0.8-0.8C68.9,126.3,69.3,126,69.8,126"/>
	</g>
	<g>
		<path d="M69.8,127.7c-0.5,0-0.8-0.4-0.8-0.8c0-0.5,0.4-0.9,0.8-0.9c0.5,0,0.9,0.4,0.9,0.9C70.6,127.3,70.2,127.7,69.8,127.7z     M69.8,126c-0.4,0-0.8,0.4-0.8,0.8c0,0.5,0.4,0.8,0.8,0.8c0.5,0,0.8-0.3,0.8-0.8C70.6,126.4,70.2,126,69.8,126z"/>
	</g>
	<g>
		<path class="st5" d="M61.4,118.6c0,0.6,0,1.4,0,2C60.2,120.1,60.7,118.6,61.4,118.6"/>
	</g>
	<g>
		<path d="M61.4,120.6c-0.7-0.3-0.8-0.8-0.7-1.2c0.1-0.4,0.4-0.8,0.7-0.8l0,0l0,0c0,0.2,0,0.4,0,0.6    C61.4,119.7,61.4,120.2,61.4,120.6z M61.4,118.6c-0.3,0-0.6,0.3-0.7,0.8s0.1,1,0.7,1.2c0-0.4,0-0.9,0-1.4    C61.4,119,61.4,118.8,61.4,118.6z"/>
	</g>
	<g>
		<path class="st4" d="M62.8,120.6l2.9-2c2.1,0.2,3.6-0.6,4.6-2.4c0.8-0.1,1.5,0.2,2.3,0.6c-1.8,4.8-5.4,7.2-9.8,7.8V120.6z"/>
	</g>
	<g>
		<path d="M62.8,124.6v-4l2.9-2c0.2,0,0.4,0,0.6,0c1.8,0,3.1-0.8,4.1-2.4c0.8-0.1,1.5,0.2,2.3,0.6C70.9,121.3,67.5,124,62.8,124.6z     M62.8,120.6v4c4.7-0.6,8.1-3.3,9.8-7.8c-0.7-0.3-1.3-0.6-2-0.6c-0.1,0-0.2,0-0.3,0c-0.9,1.6-2.3,2.4-4.1,2.4c-0.2,0-0.4,0-0.6,0    L62.8,120.6z"/>
	</g>
	<g>
		<path class="st5" d="M62.8,116.7c2.4-0.6,4.7-0.9,7-0.6c0,1-2.4,2.6-4.1,1.9c-0.9,0.8-1.9,1.5-2.9,2.1L62.8,116.7z"/>
	</g>
	<g>
		<path d="M62.8,120.1v-3.4c2.6-0.7,4.9-0.8,7-0.6c0,0.4-0.4,0.9-1,1.3c-0.8,0.5-2.1,1-3.1,0.5C64.8,118.8,63.9,119.5,62.8,120.1z     M62.8,116.7v3.4c1.1-0.6,2-1.3,2.8-2.1c1,0.4,2.3,0,3.1-0.5c0.6-0.4,1-0.9,1-1.3C67.7,115.9,65.4,116.1,62.8,116.7z"/>
	</g>
	<g>
		<path class="st5" d="M64.9,124.5c1.1-0.4,2.6-1,3.7-1.7c0.6,1,0.7,2.1,0.3,3.1C67.7,125.4,66.2,124.9,64.9,124.5"/>
	</g>
	<g>
		<path d="M69,125.9c-1.1-0.4-2.7-1-4-1.4l0,0l0,0c1.2-0.5,2.6-1,3.7-1.7C69.2,123.7,69.3,124.8,69,125.9z M64.9,124.5    c1.4,0.4,2.9,1,4,1.4c0.4-1.1,0.3-2.2-0.3-3.1C67.5,123.5,66.2,124.1,64.9,124.5z"/>
	</g>
	<g>
		<path class="st4" d="M68.9,122.5c0.2-0.2,0.5-0.4,0.7-0.6c0.6,1.2,1,2.6,0.8,4c-0.3-0.1-0.7-0.2-1-0.3    C69.5,124.5,69.3,123.5,68.9,122.5"/>
	</g>
	<g>
		<path d="M70.4,125.9L70.4,125.9c-0.4-0.1-0.7-0.2-1-0.3c0.1-1.1-0.1-2.1-0.5-3.1l0,0l0,0c0.1-0.1,0.3-0.3,0.5-0.4l0.3-0.2    C70.3,123.2,70.6,124.6,70.4,125.9z M68.9,122.5c0.4,0.9,0.6,1.9,0.5,3c0.3,0.1,0.6,0.2,1,0.3h0.1c0.1-1.3-0.1-2.7-0.8-4l-0.3,0.2    C69.2,122.2,69,122.4,68.9,122.5z"/>
	</g>
	<g>
		<path class="st5" d="M70,121.6c0.5-0.6,1-1.3,1.4-1.9c0.6,0,1.1,0.2,1.6,0.5c2.1,2.1,2.6,4.9,2.1,7.9c-1.4-0.6-2.4-1.2-3.9-1.7    c0-0.3-0.3-0.3-0.3-0.5C70.9,124.7,70.6,122.9,70,121.6"/>
	</g>
	<g>
		<path d="M75.1,128.2c-0.4-0.2-0.8-0.4-1.2-0.5c-0.9-0.4-1.7-0.8-2.8-1.1c0-0.1-0.1-0.2-0.2-0.3c-0.1-0.1-0.2-0.1-0.2-0.2    c0-1.7-0.3-3.3-0.9-4.4l0,0l0,0c0.5-0.6,1-1.3,1.4-1.9h0.1c0.6,0,1.1,0.3,1.5,0.5C74.9,122.2,75.6,124.9,75.1,128.2z M70,121.6    c0.6,1.1,0.9,2.7,0.9,4.4c0,0.1,0.1,0.2,0.2,0.2c0.1,0.1,0.2,0.1,0.2,0.3c1.1,0.3,1.9,0.7,2.8,1.1c0.4,0.2,0.7,0.3,1.1,0.5    c0.5-3.3-0.3-6.1-2.1-7.9c-0.4-0.3-0.9-0.5-1.5-0.5h-0.1C70.9,120.4,70.5,121,70,121.6z"/>
	</g>
	<g>
		<path class="st2" d="M36.3,101.6c0.2-0.2,0.5-0.4,0.8-0.7c0.3-0.4,0.7-0.1,1,0c0.9,0.1,1.8,0,2.7-0.4c0.8,0.2-0.1,5-1.2,5.3    c-0.9-0.2-1.7-0.5-2.4-1.1C37.4,104,37.2,102.7,36.3,101.6"/>
	</g>
	<g>
		<path d="M39.6,105.8c-0.8-0.2-1.7-0.5-2.4-1c0.2-0.8-0.1-2.1-0.9-3.2l0,0l0,0c0.1-0.1,0.2-0.2,0.4-0.3c0.1-0.1,0.3-0.2,0.4-0.3    c0.2-0.3,0.5-0.2,0.8-0.1c0.1,0,0.2,0.1,0.3,0.1c0.9,0.1,1.8-0.1,2.7-0.4c0.2,0,0.3,0.3,0.3,0.8C41.2,102.7,40.4,105.6,39.6,105.8    z M36.3,101.6c0.9,1,1.1,2.4,0.9,3.2c0.7,0.6,1.6,0.8,2.4,1c0.8-0.3,1.6-3.1,1.5-4.5c0-0.5-0.1-0.7-0.3-0.8    c-0.9,0.4-1.8,0.5-2.7,0.4c-0.1,0-0.2-0.1-0.3-0.1c-0.3-0.1-0.6-0.2-0.8,0.1c-0.1,0.1-0.3,0.2-0.4,0.3    C36.5,101.4,36.4,101.5,36.3,101.6z"/>
	</g>
	<g>
		<path class="st4" d="M34.5,101.7c0.1-0.2,0.2-0.5,0.3-0.8c1.4,1.2,2,2.4,1.7,3.6c-0.2,0-0.3-0.1-0.5-0.1    C36.3,103.5,35.7,102.6,34.5,101.7"/>
	</g>
	<g>
		<path d="M36.6,104.5c-0.2,0-0.4-0.1-0.5-0.1c0.3-0.9-0.2-1.7-1.5-2.7l0,0l0,0c0-0.1,0.1-0.2,0.1-0.2c0.1-0.2,0.1-0.4,0.2-0.5    C36.3,102.1,36.9,103.3,36.6,104.5z M34.5,101.7c1.3,1,1.8,1.9,1.5,2.7c0.2,0.1,0.3,0.1,0.5,0.1c0.3-1.2-0.3-2.4-1.7-3.6    c-0.1,0.1-0.1,0.3-0.2,0.5C34.6,101.5,34.6,101.6,34.5,101.7z"/>
	</g>
	<g>
		<path class="st5" d="M31.9,103.7c0.5-0.4,1-1,1.3-1.6h0.3c-0.3,0.9-0.8,1.6-1.5,1.9L31.9,103.7z"/>
	</g>
	<g>
		<path d="M32,104l-0.2-0.3l0,0c0.5-0.4,1-1,1.3-1.6h0.3C33.3,102.9,32.8,103.6,32,104z M31.9,103.7L32,104c0.7-0.4,1.2-1.1,1.5-1.9    h-0.3C32.9,102.7,32.4,103.3,31.9,103.7z"/>
	</g>
	<g>
		<path class="st5" d="M32.1,102.1c0-0.3,0.2-0.5,0.4-0.6c0.2,0,0.4,0.1,0.5,0.3c-0.1,0.3-0.2,0.5-0.5,0.6    C32.3,102.3,32.2,102.2,32.1,102.1"/>
	</g>
	<g>
		<path d="M32.5,102.4c-0.1-0.1-0.2-0.1-0.3-0.2h-0.1c0-0.3,0.1-0.5,0.4-0.6h0.1c0.2,0,0.3,0.1,0.4,0.3    C33,102,32.9,102.3,32.5,102.4z M32.1,102.1L32.1,102.1c0.1,0.1,0.2,0.2,0.3,0.2c0.4-0.1,0.5-0.3,0.5-0.6    c-0.1-0.2-0.3-0.3-0.5-0.2C32.3,101.6,32.1,101.8,32.1,102.1z"/>
	</g>
	<g>
		<path class="st5" d="M31.8,104.5c1.1-0.7,1.9-1.6,2.3-2.8c0.3,0,0.5,0.3,0.8,0.9c0.1,0.5-0.1,1-0.3,1.4c-0.6,0.5-1.2,0.9-2.1,1    C31.9,105.1,31.8,104.7,31.8,104.5"/>
	</g>
	<g>
		<path d="M32.4,105.1c-0.4,0-0.5-0.3-0.6-0.5v-0.1l0,0l0,0c1.2-0.8,1.9-1.7,2.3-2.8c0.3,0,0.5,0.3,0.8,0.9c0.1,0.5,0,1-0.3,1.4    C33.9,104.6,33.3,105,32.4,105.1L32.4,105.1z M31.8,104.5C31.8,104.6,31.8,104.6,31.8,104.5c0.1,0.3,0.2,0.6,0.6,0.6    c0,0,0,0,0.1,0c0.9-0.2,1.5-0.5,2.1-1c0.3-0.5,0.4-0.9,0.3-1.4c-0.3-0.6-0.6-0.9-0.8-0.9C33.7,102.8,33,103.7,31.8,104.5z"/>
	</g>
	<g>
		<path class="st3" d="M33.6,100c0.4,0,0.8,0.3,0.8,0.8c0,0.4-0.3,0.8-0.8,0.8c-0.4,0-0.8-0.4-0.8-0.8C32.9,100.4,33.2,100,33.6,100    "/>
	</g>
	<g>
		<path d="M33.6,101.6c-0.4,0-0.8-0.4-0.8-0.8s0.4-0.8,0.8-0.8c0.4,0,0.8,0.4,0.8,0.8C34.4,101.2,34.1,101.6,33.6,101.6z M33.6,100    c-0.4,0-0.8,0.4-0.8,0.8s0.4,0.8,0.8,0.8c0.4,0,0.8-0.3,0.8-0.8C34.4,100.4,34.1,100,33.6,100z"/>
	</g>
	<g>
		<path class="st5" d="M28.9,97.9c1.2,0.5,2.3,1.5,3.4,2.4l0.1,0.6c-1.8,0.7-3.1,1.4-2.9,2.2c0,0.3-0.1,0.6-0.1,0.9    c-0.3,0-0.5,0.1-0.8,0.1c-0.5-1-0.9-2-0.3-3.6c0.1-0.4,0.3-0.6,0.8-0.7c0.3,0.1,0.8,0,0.4,0.9c-0.1,0.1-0.3,0-0.5,0.1    c0,0.1-0.1,0.2-0.1,0.3c0.4,0,0.7-0.1,0.9-0.4c0.1-0.5,0.1-0.9-0.3-1.2c-0.7-0.1-1,0.3-1.2,0.7c-0.2,0.4-0.2,0.5-0.3,0.9    c-0.5-0.6-0.3-1.3,0.1-2L28.9,97.9z"/>
	</g>
	<g>
		<path d="M28.7,104.1c-0.6-1.1-0.9-2.1-0.3-3.6c0.1-0.4,0.4-0.6,0.8-0.7h0.1c0.1,0,0.3,0,0.4,0.2c0.1,0.1,0,0.3-0.1,0.7    c-0.1,0.1-0.4,0-0.5,0.1c0,0.1-0.1,0.2-0.1,0.3h0.1c0.3,0,0.6-0.2,0.8-0.4c0.1-0.6,0-0.9-0.3-1.2c-0.1,0-0.2,0-0.3,0    c-0.6,0-0.8,0.4-1,0.7c-0.1,0.2-0.1,0.3-0.1,0.4c-0.1,0.2-0.1,0.3-0.2,0.5c-0.4-0.5-0.4-1.2,0.1-2l0.8-1.1l0,0    c1.2,0.5,2.3,1.4,3.4,2.4l0.1,0.6c-2.1,0.8-3.1,1.5-2.9,2.2l0,0c0,0.3-0.1,0.6-0.1,0.9C29.2,104,28.9,104.1,28.7,104.1z     M29.2,99.7c-0.4,0.1-0.7,0.3-0.8,0.7c-0.5,1.5-0.3,2.5,0.3,3.6c0.2,0,0.5,0,0.8-0.1c0-0.3,0-0.6,0.1-0.9l0,0    c-0.2-0.7,0.8-1.4,2.9-2.2l-0.1-0.6c-1.1-1-2.2-1.9-3.4-2.4L28.1,99c-0.5,0.8-0.5,1.5-0.1,2c0.1-0.2,0.1-0.4,0.2-0.5    c0-0.1,0.1-0.2,0.1-0.4c0.2-0.3,0.4-0.7,1-0.7c0.1,0,0.2,0,0.3,0c0.3,0.2,0.4,0.6,0.3,1.2c-0.2,0.3-0.4,0.5-0.8,0.5H29    c0-0.1,0-0.2,0.1-0.3c0.1-0.1,0.4,0,0.5-0.1c0.1-0.3,0.2-0.5,0.1-0.7c-0.1-0.1-0.2-0.1-0.4-0.2C29.3,99.8,29.2,99.8,29.2,99.7z"/>
	</g>
	<g>
		<path class="st4" d="M29.7,96.8c1.3,0.7,2.4,1.7,3.5,2.8l-0.6,0.6c-1.1-1-2.2-1.9-3.4-2.6L29.7,96.8z"/>
	</g>
	<g>
		<path d="M32.6,100.2c-1.2-1.2-2.3-2-3.4-2.6l0.5-0.7l0,0c1.1,0.6,2.3,1.6,3.5,2.8L32.6,100.2z M29.7,96.9l-0.5,0.7    c1.1,0.6,2.2,1.4,3.4,2.6l0.6-0.6C32,98.4,30.8,97.5,29.7,96.9z"/>
	</g>
	<g>
		<path class="st5" d="M35.3,90.4l1.8,1.1c-0.7,0.2-1.5-0.4-2.2,0.7c-0.3,0.9-1,1-1.3,0.8c-0.6-0.5-0.3-1.1,0.4-1.7    C34.4,91,34.8,90.7,35.3,90.4"/>
	</g>
	<g>
		<path d="M33.9,93.1c-0.2,0-0.3,0-0.4-0.1c-0.2-0.2-0.3-0.4-0.3-0.6c0-0.3,0.3-0.7,0.7-1c0.4-0.4,0.9-0.7,1.3-1l0,0l0,0l1.8,1.1    c-0.2,0.1-0.5,0.1-0.7,0.1c-0.1,0-0.2,0-0.3,0c-0.4,0-0.8,0.1-1.1,0.7c-0.1,0.5-0.4,0.7-0.6,0.8C34.2,93.1,34.1,93.1,33.9,93.1z     M35.3,90.4c-0.4,0.2-0.9,0.5-1.3,0.9c-0.5,0.3-0.7,0.7-0.7,1c0,0.2,0.1,0.4,0.3,0.6c0.2,0.1,0.5,0.1,0.7,0s0.5-0.3,0.6-0.8    c0.5-0.7,1-0.7,1.5-0.7c0.2,0,0.5,0,0.7,0L35.3,90.4z"/>
	</g>
	<g>
		<path class="st3" d="M40.2,92.8c0.5,0,0.8,0.4,0.8,0.9c0,0.4-0.3,0.8-0.8,0.8c-0.4,0-0.8-0.4-0.8-0.8    C39.4,93.2,39.8,92.8,40.2,92.8"/>
	</g>
	<g>
		<path d="M40.2,94.5c-0.5,0-0.8-0.4-0.8-0.8c0-0.5,0.4-0.9,0.8-0.9c0.5,0,0.8,0.4,0.8,0.9C41,94.1,40.7,94.5,40.2,94.5z M40.2,92.8    c-0.5,0-0.8,0.4-0.8,0.8s0.4,0.8,0.8,0.8c0.5,0,0.8-0.4,0.8-0.8C41,93.2,40.7,92.8,40.2,92.8z"/>
	</g>
	<g>
		<path class="st4" d="M42.1,89.1c0.3,0.1,0.7,0.1,1,0.1c-0.1,1.4-0.6,2.7-1.7,3.9c-0.3-0.2-0.5-0.4-0.8-0.6    C41.7,91.5,42.1,90.4,42.1,89.1"/>
	</g>
	<g>
		<path d="M41.4,93.1c-0.3-0.2-0.5-0.4-0.8-0.6c1-1,1.5-2,1.5-3.4l0,0l0,0c0.2,0.1,0.4,0.1,0.6,0.1c0.1,0,0.3,0,0.5,0    C43,90.7,42.5,92,41.4,93.1z M42.1,89.1c0,1.4-0.5,2.5-1.5,3.4c0.3,0.2,0.5,0.4,0.8,0.6c1-1.1,1.6-2.4,1.7-3.9c-0.1,0-0.3,0-0.4,0    C42.5,89.2,42.3,89.2,42.1,89.1z"/>
	</g>
	<g>
		<path class="st4" d="M35.6,90.3c0.2-0.2,0.6-0.3,0.8-0.4c1.3,0.5,2.4,1.5,3.4,2.5c-0.2,0.2-0.4,0.4-0.6,0.5    C38.1,91.9,36.9,90.9,35.6,90.3"/>
	</g>
	<g>
		<path d="M39.2,92.9c-1.2-1.2-2.4-2.1-3.6-2.6l0,0l0,0c0.1-0.1,0.3-0.2,0.4-0.2c0.1-0.1,0.3-0.1,0.4-0.2c1.3,0.5,2.3,1.5,3.4,2.5    C39.6,92.5,39.3,92.7,39.2,92.9z M35.6,90.3c1.2,0.6,2.3,1.4,3.5,2.6c0.2-0.2,0.4-0.4,0.6-0.5c-1-1-2.1-2-3.4-2.5    c-0.1,0.1-0.3,0.2-0.4,0.2C35.8,90.1,35.7,90.2,35.6,90.3z"/>
	</g>
	<g>
		<path class="st5" d="M36.2,85.2c1.3,0.8,2.7,0.8,3.9,1.5c0.5,0.3,0.7,0.7,0.8,1.5c1.3,0.8,1.1,0.9,0.7,1.9    c-0.3,0.9-0.9,1.7-1.6,2.2c-1-1-2-2-3.3-2.9c0.5-0.4,1-0.6,1.6-0.8c0.7-0.1,1.1-0.8,0.7-1.5C37.5,86.6,36,85.6,36.2,85.2"/>
	</g>
	<g>
		<path d="M40.1,92.4c-1.1-1.1-2.2-2.1-3.3-2.9c0.5-0.4,1-0.7,1.6-0.8c0.4,0,0.6-0.3,0.8-0.5c0.1-0.3,0.1-0.6-0.1-0.9    c-1.4-0.7-2.7-1.6-2.9-2v-0.1l0,0l0,0c0.7,0.4,1.4,0.6,2.1,0.8c0.6,0.2,1.2,0.4,1.8,0.7c0.5,0.3,0.7,0.7,0.8,1.5    c1.2,0.7,1.1,0.8,0.8,1.7c0,0.1-0.1,0.1-0.1,0.2C41.4,91.1,40.8,91.8,40.1,92.4z M36.2,85.3L36.2,85.3c0.1,0.5,1.4,1.4,2.9,2.1    c0.2,0.3,0.2,0.6,0.1,0.9c-0.1,0.3-0.4,0.5-0.8,0.6c-0.5,0.1-1,0.4-1.6,0.8c1.1,0.8,2.2,1.7,3.3,2.8c0.7-0.6,1.2-1.3,1.5-2.2    c0-0.1,0.1-0.2,0.1-0.2c0.3-0.9,0.4-1-0.8-1.7c-0.2-0.8-0.4-1.2-0.8-1.5c-0.6-0.3-1.2-0.5-1.8-0.7C37.6,85.9,36.9,85.7,36.2,85.3z    "/>
	</g>
	<g>
		<path class="st5" d="M38.1,87.2c0.4,0.1,0.8,0.3,0.8,0.6c0,0.3-0.2,0.5-0.4,0.4C38.4,88,38.2,87.6,38.1,87.2"/>
	</g>
	<g>
		<path d="M38.7,88.3L38.7,88.3c-0.3-0.2-0.4-0.5-0.6-1.1l0,0l0,0c0.5,0.1,0.8,0.3,0.8,0.6C38.9,88,38.8,88.1,38.7,88.3    C38.8,88.2,38.7,88.3,38.7,88.3z M38.1,87.2c0.1,0.5,0.2,0.8,0.4,1c0.1,0,0.2,0,0.2,0c0.1-0.1,0.1-0.2,0.2-0.4    C38.9,87.5,38.6,87.3,38.1,87.2z"/>
	</g>
	<g>
		<path class="st5" d="M35,88.7c0.5-0.7,1.4-1,2.4-1.2c0.6-0.1,0.8,0.2,0.6,1c-0.6,0.3-1.1,0.7-1.7,1C35.9,89.2,35.4,89,35,88.7"/>
	</g>
	<g>
		<path d="M36.3,89.5c-0.2-0.1-0.4-0.3-0.6-0.4c-0.2-0.1-0.4-0.3-0.6-0.4l0,0l0,0c0.4-0.6,1.1-0.9,2.4-1.2c0.3,0,0.5,0,0.6,0.1    c0.1,0.2,0.1,0.4,0,0.9c-0.3,0.2-0.6,0.3-0.9,0.5C36.8,89.2,36.5,89.3,36.3,89.5z M35,88.7c0.2,0.1,0.4,0.3,0.6,0.4    c0.2,0.1,0.4,0.3,0.6,0.4c0.3-0.2,0.6-0.3,0.8-0.5c0.3-0.2,0.6-0.3,0.9-0.5c0.1-0.4,0.1-0.7,0-0.9c-0.1-0.1-0.3-0.2-0.6-0.1    C36.2,87.8,35.4,88.1,35,88.7z"/>
	</g>
	<g>
		<polygon class="st5" points="35.6,86.3 37.1,86.9 36.5,87.3   "/>
	</g>
	<g>
		<path d="M36.5,87.3l-1-1l1.6,0.6L36.5,87.3z M35.6,86.3l0.9,0.9l0.6-0.3L35.6,86.3z"/>
	</g>
	<g>
		<path class="st5" d="M48.4,85.4c0.7-0.3,1.3-0.7,2-1c0.3,0.1,0.5,0.5,0.7,0.9c0.3-0.2,0.7-0.5,0.9-1c0.5,0.6,0.9,1,1.5,1.6    c-1,1.1-2,1.9-3.2,2.2C49.9,87.7,48.7,86,48.4,85.4"/>
	</g>
	<g>
		<path d="M50.3,88.1c-0.4-0.3-1.6-2-2-2.6l0,0h0.1c0.6-0.3,1.3-0.7,2-1c0.3,0.1,0.5,0.5,0.7,0.9c0.3-0.2,0.7-0.6,0.9-1    c0.3,0.3,0.6,0.6,0.9,0.9c0.2,0.2,0.4,0.4,0.6,0.7C52.4,87.2,51.4,87.8,50.3,88.1z M48.4,85.4c0.4,0.6,1.6,2.3,2,2.6    c1.1-0.3,2-0.9,3.2-2.2c-0.2-0.2-0.4-0.5-0.6-0.7c-0.3-0.3-0.5-0.5-0.8-0.9c-0.2,0.4-0.6,0.8-0.9,1c-0.2-0.4-0.4-0.8-0.7-0.9    C49.7,84.7,49.1,85.1,48.4,85.4L48.4,85.4z"/>
	</g>
	<g>
		<path class="st5" d="M75.7,121.4c3.3,0.8,6,5.7,10.6,7.8c1.3,0.3,2.5,0.3,3.8-0.9c0.3-0.3,0.3-0.7,0.1-1    c-4.5-4.2-7.7-8.4-5.3-12.8c-0.2,2.2,0.3,3.2,1.1,3.8c-0.3-3.4,0.4-6.7,3.9-9c-2.4,5.4,0.7,8.9,3.7,12.4c-0.9-1.3-1.7-2.6-1.3-3.1    c2.1,3.1,4.9,5.9,4.5,7.9c0.2,1.7-0.9,2.8-1.6,3.8c1-0.9,1.8-1.9,2.2-3.5c0.8,4.8-0.6,7.7-4.3,8.6c0.5,0.5,1.5,0.6,3.1,0.2    c-2.3,2.2-5.1,1.8-8,0.2c-2.2-0.7-4.3-6.7-4.8-5.4c-0.1,1.2,0,2.5,0.2,3.7c-1.8-1.8-3.7-3.5-6.5-4.8c-0.1-0.3-0.3-0.5-0.4-0.9    C77,126,76.7,123.5,75.7,121.4"/>
	</g>
	<g>
		<path d="M92.6,137.2c-1.3,0-2.7-0.4-4.3-1.3c-1.2-0.4-2.3-2.3-3.2-3.8c-0.6-1-1.1-1.8-1.4-1.8l0,0c-0.1,0-0.1,0.1-0.2,0.2    c-0.1,1.4,0,2.6,0.2,3.7c-1.7-1.7-3.6-3.5-6.6-4.8c0-0.2-0.1-0.3-0.2-0.4c-0.1-0.1-0.1-0.3-0.2-0.4c0.2-2.8-0.2-5.2-1.1-7.2l0,0    l0,0c1.7,0.4,3.2,1.8,4.9,3.4c1.6,1.5,3.5,3.3,5.8,4.3c1.1,0.3,2.4,0.4,3.7-0.9c0.3-0.3,0.3-0.7,0.1-0.9    c-4.2-3.9-7.8-8.2-5.3-12.8c-0.1,1.9,0.2,3.1,1.2,3.8c-0.4-4,0.9-7,3.9-9c-2.3,5.4,0.7,8.9,3.6,12.3l0.1,0.1    c-1-1.4-1.7-2.6-1.3-3.1c0.6,0.8,1.2,1.6,1.7,2.4c1.7,2.2,3.1,4.1,2.8,5.6c0.2,1.4-0.6,2.4-1.3,3.3c-0.1,0.2-0.2,0.3-0.3,0.5    c0.8-0.7,1.8-1.7,2.1-3.5c0.8,4.8-0.6,7.7-4.3,8.7c0.5,0.5,1.5,0.6,3,0.2C95.2,136.7,94,137.2,92.6,137.2z M83.7,130.3    c0.3,0,0.8,0.8,1.4,1.8c0.9,1.5,2,3.4,3.2,3.8c3.4,1.8,5.9,1.8,8-0.2c-1.5,0.4-2.5,0.3-3.1-0.2c3.6-1,5.1-3.9,4.3-8.7    c-0.3,1.8-1.3,2.8-2.2,3.5c0.1-0.2,0.2-0.3,0.3-0.5c0.7-0.9,1.4-1.9,1.3-3.3c0.3-1.5-1.2-3.4-2.8-5.6c-0.6-0.8-1.2-1.6-1.7-2.4    c-0.4,0.5,0.4,1.7,1.3,3.1l-0.1-0.1c-2.9-3.4-5.9-6.9-3.6-12.3c-3,2-4.3,4.9-3.9,9c-0.9-0.7-1.3-1.9-1.2-3.8    c-2.5,4.6,1.1,8.8,5.3,12.8c0.2,0.3,0.2,0.6-0.1,1c-1.4,1.2-2.7,1.1-3.8,0.9c-2.3-1-4.1-2.8-5.8-4.3c-1.7-1.6-3.2-3-4.9-3.4    c0.9,2,1.3,4.4,1.1,7.2c0,0.2,0.1,0.3,0.2,0.4c0.1,0.1,0.1,0.3,0.2,0.4c2.9,1.3,4.9,3.1,6.5,4.8c-0.2-1.1-0.3-2.3-0.2-3.7    C83.6,130.4,83.6,130.3,83.7,130.3L83.7,130.3z"/>
	</g>
	<g>
		<path class="st5" d="M63.3,106.6c0.4-0.3,0.8-0.9,1.2-1c0.6-0.2,1-0.2,1.6-0.1c0.6,1.5,1.4,3.1,2.4,4.3c-0.6,0.5-1.5,0.8-2.6,0.8    c-0.5-0.4-1-0.7-1.5-1.1c-0.6-0.1-1.2-0.6-1.7-1c0.5-0.3,1-0.4,1.5-0.6C65,106.7,64.5,106.5,63.3,106.6"/>
	</g>
	<g>
		<path d="M66.2,110.4c-0.1,0-0.1,0-0.2,0c-0.5-0.4-1-0.7-1.5-1.1c-0.6-0.1-1.2-0.6-1.6-1l0,0c0.3-0.2,0.6-0.3,0.9-0.4    c0.2-0.1,0.4-0.2,0.6-0.3c0.3-0.4,0.3-0.6,0.2-0.8c-0.1-0.2-0.4-0.3-0.9-0.3c-0.1,0-0.2,0-0.4,0l0,0l0,0c0.1-0.1,0.3-0.3,0.4-0.4    c0.3-0.3,0.5-0.5,0.8-0.7c0.6-0.2,1.1-0.2,1.6-0.1c0.8,1.8,1.6,3.2,2.4,4.3C67.9,110.2,67.1,110.4,66.2,110.4z M63.7,106.6    c0.5,0,0.8,0.1,0.9,0.3c0.1,0.2,0,0.5-0.2,0.8c-0.2,0.1-0.4,0.2-0.6,0.3c-0.3,0.1-0.6,0.2-0.9,0.4l0,0c0.5,0.4,1,1,1.6,1    c0.5,0.3,1,0.7,1.5,1.1h0.1c1,0,1.8-0.3,2.4-0.8c-0.9-1-1.7-2.4-2.4-4.3c-0.5,0-1,0-1.6,0.1c-0.3,0.1-0.6,0.4-0.8,0.7    c-0.1,0.1-0.3,0.3-0.4,0.4C63.5,106.6,63.6,106.6,63.7,106.6z"/>
	</g>
	<g>
		<path class="st5" d="M60.9,94.7c2,0.9,4,0.8,6.4-0.3c-0.2,0.3-0.1,0.4-0.2,0.8l-2.4,0.7c-0.2,3.7,0.5,6.5,1.5,9    c-0.6,0.1-1.2,0.2-1.8,0.3c-0.4,0.5-0.7,1-1.2,1.5c-0.4,0.1-0.9,0.1-1.3,0.2c-0.8-1.9-1.4-3.9-2-6C60,98.3,60.3,96.3,60.9,94.7"/>
	</g>
	<g>
		<path d="M61.8,106.8c-0.9-2-1.5-4.2-2-6c0.2-2.5,0.5-4.6,1.1-6.1l0,0l0,0c2,0.9,4,0.8,6.4-0.3c-0.1,0.2-0.1,0.3-0.1,0.4    s0,0.2-0.1,0.4l-2.5,0.7c-0.2,4,0.7,6.9,1.5,9l0,0c-0.6,0.1-1.2,0.2-1.8,0.2c-0.2,0.3-0.4,0.5-0.6,0.8c-0.2,0.2-0.3,0.5-0.5,0.7    c-0.2,0-0.4,0.1-0.7,0.1C62.2,106.7,62,106.8,61.8,106.8z M60.9,94.7c-0.6,1.6-0.9,3.6-1.1,6.1c0.5,1.8,1.1,4,2,6    c0.2,0,0.4-0.1,0.6-0.1c0.2,0,0.5-0.1,0.7-0.1c0.2-0.2,0.4-0.5,0.5-0.7c0.2-0.3,0.4-0.5,0.6-0.8c0.6-0.1,1.2-0.2,1.8-0.3l0,0    c-0.8-2-1.7-4.9-1.5-9l2.5-0.7c0.1-0.1,0.1-0.3,0.1-0.4s0-0.2,0.1-0.4C64.9,95.5,62.9,95.6,60.9,94.7z"/>
	</g>
	<g>
		<path class="st5" d="M58.7,97.7c0.3-1.4,0.7-2.6,1.4-3.6c0.3,0.1,0.5,0.2,0.6,0.5c-0.7,1.8-1.1,3.6-1.2,5.4L58.7,97.7z"/>
	</g>
	<g>
		<path d="M59.5,100l-0.8-2.3c0.3-1.4,0.7-2.7,1.4-3.6c0.4,0.1,0.5,0.2,0.7,0.5C59.9,96.6,59.6,98.5,59.5,100z M58.7,97.7l0.8,2.3    c0.1-1.5,0.4-3.4,1.2-5.4c-0.2-0.3-0.3-0.4-0.6-0.5C59.5,95.1,59,96.4,58.7,97.7z"/>
	</g>
	<g>
		<path class="st5" d="M53.7,92.1c0.1-1.6,0.9-3,1.9-4.2c1.3,1.1,2.6,2.1,3.9,3.2c-0.3,0.7-0.5,1.1-0.8,1.4c0.4,0.5,0.8,1,1.2,1.5    c-0.6,0.9-1,2.1-1.3,3.4C57.1,95.5,55.5,93.9,53.7,92.1"/>
	</g>
	<g>
		<path d="M58.6,97.4c-1.7-2-3.4-3.8-4.9-5.2l0,0c0.1-1.4,0.8-2.8,1.9-4.2c0.6,0.5,1.3,1,1.9,1.6c0.7,0.5,1.3,1.1,2,1.6    c-0.2,0.7-0.5,1.1-0.8,1.4l0,0c0.4,0.5,0.8,0.9,1.2,1.4C59.4,94.8,59,96,58.6,97.4z M53.7,92.1c1.5,1.4,3.3,3.2,4.9,5.2    c0.3-1.4,0.8-2.5,1.3-3.4c-0.4-0.5-0.8-1-1.2-1.4l0,0c0.3-0.3,0.6-0.7,0.8-1.4c-0.7-0.5-1.3-1.1-2-1.6c-0.6-0.5-1.3-1-1.9-1.6    C54.5,89.3,53.8,90.7,53.7,92.1z"/>
	</g>
	<g>
		<path class="st5" d="M51.4,90.4c1.1-1.2,2.3-2.4,3.5-3.4c0.4-0.1,0.8,0.2,1,0.3c-1.6,1.2-2.1,2.9-2.4,4.6    C52.8,91.4,52,91,51.4,90.4"/>
	</g>
	<g>
		<path d="M53.4,92c-0.3-0.3-0.7-0.5-1-0.8c-0.3-0.2-0.7-0.5-1-0.8l0,0l0,0c1.3-1.4,2.4-2.5,3.5-3.4c0.1,0,0.1,0,0.2,0    c0.4,0,0.7,0.2,0.8,0.3C54.2,88.6,53.7,90.4,53.4,92z M51.4,90.4c0.3,0.3,0.7,0.5,1,0.8s0.7,0.5,1,0.8c0.3-1.6,0.8-3.4,2.4-4.6    c-0.2-0.1-0.5-0.3-0.8-0.3h-0.1C53.8,87.9,52.6,89,51.4,90.4z"/>
	</g>
	<g>
		<path class="st5" d="M50.5,88.4c1.3-0.5,2.4-1.4,3.6-2.6c0.3,0.3,0.5,0.7,0.5,1.1c-1.1,0.9-2.2,2-3.4,3.2    C50.8,89.6,50.7,89.2,50.5,88.4"/>
	</g>
	<g>
		<path d="M51.3,90.1c-0.4-0.5-0.6-0.9-0.8-1.7l0,0l0,0c1.2-0.4,2.3-1.2,3.6-2.6c0.3,0.3,0.5,0.7,0.6,1.1    C53.5,87.9,52.4,88.9,51.3,90.1z M50.5,88.4c0.2,0.8,0.3,1.1,0.8,1.7c1.1-1.2,2.2-2.3,3.4-3.2c-0.1-0.4-0.3-0.8-0.5-1.1    C52.9,87.2,51.8,88,50.5,88.4z"/>
	</g>
	<g>
		<path class="st5" d="M65.5,96.3l13.6-4.2c2.2,3.1,2.9,6,3.5,8.9c0.9,5.8-0.8,10.4-4.3,14.4c-4-1.4-7.7-3.5-10.3-7.9    C66.3,104.1,65.4,100.3,65.5,96.3"/>
	</g>
	<g>
		<path class="st5" d="M67.4,94.9l7-2.1C73.8,91.3,68.3,91.4,67.4,94.9"/>
	</g>
	<g>
		<path d="M67.4,94.9L67.4,94.9c0.5-2,2.5-2.9,4.2-3.1c0.2,0,0.3,0,0.5,0c1.2,0,2.1,0.4,2.4,0.9L67.4,94.9z M72.1,91.9    c-0.2,0-0.3,0-0.5,0c-1.7,0.1-3.6,1-4.2,3l7-2.1C74.2,92.2,73.2,91.9,72.1,91.9z"/>
	</g>
	<g>
		<path class="st5" d="M66.3,82.2c1.2-0.6,2.4-0.8,3.8-1c0.1,0.5,0.7,1.2,0.9,1.6c1.6,2.1,1.4,3.8,0,5.4c-1.7,1.6-1.1,2.9,0.3,3.2    c0,0.2-0.1,0.3-0.3,0.3c-0.4,0.1-0.7,0.3-1.1,0.3c-0.6-0.1-2.9-0.4-2.7-3.9c0.2-1,0.2-2.2,0.7-2.5c0.3-0.1,0.5,0.1,0.9,0.4    c0.6,1.6,2.5,1.3,2.4-0.3c-0.1-0.6-0.5-0.9-1.2-1c-0.1,0-0.3,0.1-0.4,0.1C68.3,84.1,67.1,83.3,66.3,82.2"/>
	</g>
	<g>
		<path d="M69.8,92.1c-0.9-0.1-2.9-0.7-2.7-3.9c0-0.2,0.1-0.4,0.1-0.5c0.1-0.9,0.2-1.7,0.6-1.9c0.3-0.1,0.6,0.1,0.9,0.4    c0.4,0.9,1.1,1.1,1.6,1c0.4-0.1,0.8-0.5,0.8-1.3c-0.1-0.5-0.5-0.8-1.2-0.9l0,0c-0.1,0-0.2,0.1-0.4,0.1c-1-0.6-2.3-1.5-3.1-2.6l0,0    l0,0c1.2-0.6,2.5-0.8,3.8-1c0.1,0.5,0.6,1.2,0.9,1.5l0,0c1.5,2,1.5,3.8,0,5.4c-0.8,0.7-1.1,1.5-1,2.1c0.1,0.5,0.6,0.9,1.2,1.1    c0,0.2-0.1,0.3-0.3,0.3c-0.2,0-0.4,0.1-0.6,0.2C70.2,91.9,70,92,69.8,92.1z M67.9,85.6L67.9,85.6c-0.5,0.3-0.6,1.1-0.7,1.9    c0,0.2,0,0.4-0.1,0.5c-0.2,3.2,1.8,3.8,2.7,3.9c0.2,0,0.4-0.1,0.5-0.2c0.2-0.1,0.4-0.1,0.6-0.2c0.1,0,0.2-0.1,0.2-0.3    c-0.6-0.2-1.1-0.6-1.2-1.1c-0.2-0.6,0.2-1.4,1-2.2c1.5-1.6,1.5-3.3,0-5.4l0,0c-0.2-0.3-0.7-1.1-0.9-1.5c-1.2,0.2-2.5,0.4-3.7,1    c0.8,1.2,2.1,2,3.1,2.6c0.1,0,0.2,0,0.4-0.1l0,0c0.8,0.1,1.2,0.4,1.2,1c0.1,0.7-0.2,1.2-0.8,1.3c-0.5,0.1-1.2-0.1-1.6-1    C68.4,85.8,68.2,85.6,67.9,85.6z"/>
	</g>
	<g>
		<path class="st5" d="M61.7,89.3c2.6,0.4,3.8-0.9,5.3-3.8c0.3-0.1,0.4,0.1,0.5,0.3c-0.9,2.6-1.4,5.2,1.7,6.4    c-1.8,1.9-6.3,3.1-8.6,1.6c-1.5-1.3-1-2.1,0.3-3.2c0.5,0.6,1.1,0.8,1.8,1c-0.8-0.3-1.6-0.7-1.7-1.5C60.7,89.2,61.1,89.2,61.7,89.3    "/>
	</g>
	<g>
		<path d="M63.1,94.6c-1,0-2-0.2-2.7-0.7c-0.6-0.6-0.9-1-0.9-1.5c0-0.6,0.6-1.2,1.2-1.7c0.6,0.6,1.3,0.9,1.8,1    c-0.8-0.3-1.6-0.7-1.7-1.5c-0.1-0.4-0.1-0.6,0-0.8c0.2-0.2,0.4-0.1,0.7-0.1l0,0c2.6,0.4,3.8-1,5.3-3.7c0.3-0.1,0.4,0.1,0.5,0.3    c-0.9,2.5-1.4,5.2,1.7,6.4C67.8,93.6,65.3,94.6,63.1,94.6z M60.8,90.7c-0.9,0.7-1.2,1.2-1.2,1.7s0.3,0.9,0.9,1.5    c2.2,1.5,6.8,0.3,8.6-1.6c-3.1-1.2-2.6-3.9-1.7-6.4c-0.1-0.2-0.2-0.4-0.5-0.3c-1.5,2.8-2.7,4.1-5.3,3.8l0,0    c-0.3-0.1-0.6-0.1-0.7,0.1c-0.1,0.1-0.1,0.4,0,0.8c0.1,0.8,0.8,1.2,1.6,1.5C62.1,91.5,61.4,91.3,60.8,90.7z"/>
	</g>
	<g>
		<path class="st5" d="M61.9,88c0.2-0.1,0.5-0.1,0.7-0.1c0.3,0,0.1,0.7,0.7,1c-0.1,0.1-0.2,0.3-1.4,0.2c-0.2-0.2-0.1-0.3,0.1-0.4    c0.4-0.2,0.2-0.3-0.1-0.5C61.8,88.2,61.8,88.1,61.9,88"/>
	</g>
	<g>
		<path d="M62.4,89.2c-0.1,0-0.3,0-0.5,0c-0.1-0.1-0.1-0.1-0.1-0.2s0.1-0.1,0.2-0.2c0.1-0.1,0.2-0.1,0.2-0.2s-0.2-0.2-0.3-0.3    c-0.1,0-0.1-0.1-0.1-0.1s0-0.1,0.1-0.1l0,0c0.2-0.1,0.4-0.1,0.7-0.1l0,0c0.1,0,0.2,0.1,0.2,0.3c0.1,0.2,0.1,0.5,0.4,0.7l0,0    C63.2,89.1,63.1,89.2,62.4,89.2z M61.9,88L61.9,88C61.8,88,61.8,88.1,61.9,88c-0.1,0.2-0.1,0.2,0,0.2c0.1,0.1,0.3,0.2,0.3,0.3    c0,0.1-0.1,0.2-0.2,0.2c-0.1,0.1-0.2,0.1-0.2,0.2s0,0.1,0.1,0.2c1.1,0.1,1.2-0.1,1.4-0.2l0,0c-0.3-0.2-0.4-0.5-0.5-0.7    c0-0.2-0.1-0.3-0.2-0.3l0,0C62.3,87.9,62.1,87.9,61.9,88z"/>
	</g>
	<g>
		<path class="st5" d="M62,87.1c0.3-0.4,1.7-0.2,2.1,0.2c0.2,0.3,0.2,0.6,0,0.9c-0.1,0.2-0.1,0.3,0.1,0.1c0.1-0.2,0.7,0,0.3,0.3    c-0.5,0.2-0.9,0.2-1.1-0.2c-0.2-0.3-0.2-0.8-0.4-0.8c-0.3,0-0.6,0-0.8-0.1C61.9,87.5,61.9,87.3,62,87.1"/>
	</g>
	<g>
		<path d="M63.9,88.7c-0.3,0-0.5-0.1-0.6-0.4c-0.1-0.1-0.1-0.2-0.1-0.3c-0.1-0.2-0.1-0.4-0.3-0.4c-0.1,0-0.1,0-0.2,0    c-0.2,0-0.4,0-0.6-0.1c-0.1,0-0.1-0.1-0.2-0.2c0-0.1,0-0.2,0.1-0.3l0,0c0.1-0.1,0.3-0.2,0.7-0.2l0,0c0.6,0,1.2,0.2,1.4,0.5    c0.2,0.3,0.2,0.6,0,0.9C64,88.3,64,88.3,64,88.3s0,0,0.2-0.1c0-0.1,0.1-0.1,0.2-0.1s0.2,0.1,0.2,0.2s0,0.1-0.2,0.2    C64.3,88.7,64.1,88.7,63.9,88.7z M62.9,87.6c0.1,0,0.2,0.2,0.3,0.4c0,0.1,0.1,0.2,0.1,0.3c0.2,0.4,0.6,0.4,1.1,0.2    c0.1-0.1,0.2-0.2,0.2-0.2c0-0.1-0.1-0.1-0.2-0.1s-0.2,0-0.2,0.1c-0.2,0.1-0.2,0.1-0.2,0c0,0,0-0.1,0.1-0.2c0.2-0.3,0.2-0.5,0-0.8    c-0.2-0.2-0.8-0.5-1.4-0.5l0,0c-0.3,0-0.6,0.1-0.7,0.2c-0.1,0.1-0.1,0.2-0.1,0.3c0,0.1,0.1,0.1,0.1,0.1c0.1,0.1,0.4,0.1,0.6,0.1    C62.8,87.6,62.8,87.6,62.9,87.6L62.9,87.6z"/>
	</g>
	<g>
		<path class="st5" d="M62.3,86.5c0.3-0.5,0.6-1.1,0.9-1.6c0.3-0.1,0.6-0.1,1,0c0.1,0.1,0.2,0.1-0.1,0.5c0.4,0.1,0.9,0.1,1.3,0.2    c0.2-0.2,0.2-0.3,0-0.3c-0.5,0.2-0.7-0.3-0.2-0.3c0.3,0,0.7,0.1,1.1,0.3c0.4,0.3,0.2,0.6,0,0.9C66,86.9,65.5,87.5,65,88    c-0.4,0.2-0.7,0.1-0.6-0.1c0.1-0.3-0.1-0.6-0.4-0.9c0.1-0.5,0-0.8-0.4-0.7c0.2,0.4,0.2,0.6-0.1,0.4c-0.2,0-0.3,0-0.5,0.1    C62.4,86.7,62.2,86.7,62.3,86.5"/>
	</g>
	<g>
		<path d="M64.7,88c-0.1,0-0.1,0-0.2,0s-0.1-0.1-0.1-0.2c0.1-0.2-0.1-0.5-0.4-0.9c0-0.3,0-0.5-0.1-0.6s-0.2-0.1-0.3-0.1    c0.1,0.2,0.2,0.4,0.1,0.5c0,0-0.1,0-0.2,0c-0.1,0-0.2,0-0.2,0c-0.1,0-0.2,0-0.2,0c-0.4,0-0.7,0-0.7-0.1c0,0,0-0.1,0-0.2    c0.3-0.5,0.6-1,0.9-1.6c0.3-0.1,0.6-0.1,1,0l0,0c0.1,0.1,0.2,0.1-0.1,0.5c0.2,0,0.5,0,0.7,0.1c0.2,0,0.4,0,0.6,0.1    c0.1-0.1,0.2-0.1,0.2-0.2c0,0-0.1-0.1-0.2-0.1c-0.2,0.1-0.4,0-0.5-0.1V85c0-0.1,0.1-0.1,0.3-0.1l0,0c0.3,0,0.8,0.2,1.1,0.3    c0.4,0.3,0.2,0.6,0,0.8l0,0c-0.3,0.7-0.7,1.3-1.3,1.8C64.9,88,64.8,88,64.7,88z M63.7,86.2c0.1,0,0.2,0,0.2,0.1    C64,86.4,64,86.6,64,87c0.3,0.3,0.5,0.6,0.4,0.9c0,0.1,0,0.2,0.1,0.2c0.1,0.1,0.3,0,0.6-0.1c0.6-0.5,1-1.1,1.3-1.8l0,0    c0.2-0.2,0.3-0.5,0-0.8C66,85.1,65.6,85,65.3,85l0,0c-0.1,0-0.2,0-0.3,0.1v0.1c0.1,0.1,0.2,0.1,0.4,0.1c0.1,0,0.2,0.1,0.2,0.1    c0,0.1,0,0.1-0.2,0.2c-0.2,0-0.4,0-0.6-0.1c-0.3,0-0.5-0.1-0.7-0.1c0.3-0.3,0.2-0.4,0.1-0.5l0,0c-0.3-0.1-0.6-0.1-0.9,0    c-0.4,0.6-0.7,1.1-0.9,1.6l0,0c0,0.1,0,0.1,0,0.1c0.1,0.1,0.3,0.1,0.7,0.1c0.1,0,0.2,0,0.2,0c0.1,0,0.2,0,0.2,0    c0.1,0.1,0.2,0.1,0.2,0C63.8,86.6,63.7,86.5,63.7,86.2C63.6,86.2,63.7,86.2,63.7,86.2z"/>
	</g>
	<g>
		<path class="st5" d="M62.3,84.4c0.9-0.9,1.9-1.9,2.8-2.8c1.2,1.7,2.7,3,4.4,3.9c0.6-0.3,1.2-0.1,1.1,0.7c-0.2,1.1-1.5,0.5-1.7-0.2    C67.1,84.7,64.7,84.2,62.3,84.4"/>
	</g>
	<g>
		<path d="M70.1,86.8c-0.4,0-1-0.4-1.1-0.8c-1.8-1.2-4.2-1.8-6.6-1.6l0,0l0,0c0.4-0.5,0.9-0.9,1.4-1.4s0.9-0.9,1.4-1.4    c1.2,1.7,2.6,2.9,4.5,3.9c0.3-0.2,0.6-0.2,0.9-0.1c0.2,0.1,0.3,0.4,0.3,0.7C70.7,86.5,70.5,86.7,70.1,86.8L70.1,86.8z M63.5,84.3    c2,0,4,0.6,5.5,1.6c0.1,0.4,0.7,0.8,1.1,0.8c0,0,0,0,0.1,0c0.2,0,0.5-0.1,0.5-0.6c0-0.3-0.1-0.6-0.3-0.7c-0.2-0.1-0.5-0.1-0.9,0.1    c-1.8-0.9-3.3-2.2-4.5-3.9c-0.4,0.5-0.9,0.9-1.4,1.4s-0.9,0.9-1.4,1.4C62.7,84.4,63.1,84.3,63.5,84.3z"/>
	</g>
	<g>
		<path class="st5" d="M82,79.9H51.5v-1.5h34.6C84.9,79.1,83.5,79.6,82,79.9"/>
	</g>
	<g>
		<path d="M82,79.9H51.5v-1.5h34.6C84.9,79.1,83.6,79.6,82,79.9L82,79.9z M86.1,78.4H51.5v1.5H82C83.5,79.6,84.9,79.1,86.1,78.4z"/>
	</g>
	<g>
		<path class="st5" d="M82,76.6H51.5v1.5h34.6C84.9,77.4,83.5,76.9,82,76.6"/>
	</g>
	<g>
		<path d="M51.5,78.1v-1.5h30.4c1.6,0.4,2.9,0.8,4.2,1.5H51.5z M51.5,76.6v1.5h34.6c-1.2-0.6-2.6-1.1-4.2-1.5H51.5z"/>
	</g>
	<g>
		<path class="st3" d="M51.2,84.7c-2-2-3.3-9.1-0.1-13.3h0.1l0.9,1c-0.6,0.5-1,1-1.1,1.6v8c0.2,0.9,0.6,1.4,1.1,1.7L51.2,84.7z"/>
	</g>
	<g>
		<path d="M51.2,84.7L51.2,84.7c-2-1.9-3.4-9-0.1-13.3h0.1l0.9,1c-0.7,0.6-1,1.1-1,1.6v8c0.1,0.8,0.5,1.3,1.1,1.6L51.2,84.7z     M51.1,71.5c-3.3,4.2-1.9,11.3,0.1,13.2l1-1.1c-0.6-0.3-1-0.8-1.1-1.6v-7.9c0.1-0.6,0.4-1.1,1.1-1.6L51.1,71.5L51.1,71.5z"/>
	</g>
	<g>
		<path class="st3" d="M38,76.2c0,1.2,0,2.5,0.1,3.8C36.8,80.3,35.2,77,38,76.2"/>
	</g>
	<g>
		<path d="M37.9,80c-0.6,0-1.2-0.6-1.4-1.5s0.1-1.9,1.5-2.3l0,0l0,0c0,1.3,0,2.6,0.1,3.8C38,80,38,80,37.9,80z M38,76.3    c-1.4,0.4-1.7,1.4-1.5,2.3c0.2,0.8,0.8,1.5,1.4,1.5c0.1,0,0.1,0,0.2,0C38,78.9,38,77.6,38,76.3z"/>
	</g>
	<g>
		<path class="st3" d="M38.5,77.8l5.5-0.2c0.3,0.5,0.8,0.8,1.4,1.1c-0.1,0.3-0.3,0.4-0.4,0.5l-6.4-0.3L38.5,77.8L38.5,77.8z"/>
	</g>
	<g>
		<path d="M44.9,79.2l-6.4-0.3v-1.1l0,0l5.5-0.2c0.3,0.5,0.8,0.8,1.4,1.1C45.3,79.1,45.1,79.2,44.9,79.2z M38.5,77.8v1.1l6.4,0.3    c0.1-0.1,0.3-0.2,0.4-0.5c-0.6-0.3-1.1-0.6-1.4-1.1L38.5,77.8z"/>
	</g>
	<g>
		<path class="st5" d="M43.5,79.4c0.6,0,1.2,0,1.8,0c0.8-1.6,1.7-2.1,2.5-2.2c-0.2-0.4-0.3-0.8-0.2-1.1c-0.6,0-1.1-0.1-1.3-1    c0-0.3,1-0.2,1.8-0.1c0.5,0.1,0.9,1,0.8,1.4c-0.4,3-0.1,5,0.9,7.2c-2.3,1.5-4.2,2-6.5,1.6c0.8-1,1.5-2,1.8-3.7    c0.2-0.1,0.4-0.2,0.6-0.3C44.6,81.5,43.9,80.8,43.5,79.4"/>
	</g>
	<g>
		<path d="M44.9,85.5c-0.5,0-1,0-1.5-0.1c0.9-1,1.5-2,1.8-3.7c0.1,0,0.2-0.1,0.3-0.1c0.1-0.1,0.2-0.1,0.3-0.1    c-1.1,0.2-1.9-0.4-2.3-1.9l0,0l0,0c0.6,0,1.2,0,1.8,0c0.9-1.8,1.8-2.1,2.5-2.2c-0.2-0.4-0.3-0.8-0.2-1.1h-0.1c-0.5,0-1-0.1-1.2-1    c0-0.3,0.6-0.2,1.2-0.2c0.2,0,0.4,0,0.6,0c0.6,0.1,0.9,1,0.8,1.4c-0.4,2.9-0.1,4.9,0.9,7.2C48.1,84.9,46.5,85.5,44.9,85.5z     M45.8,81.3c-0.1,0-0.2,0.1-0.3,0.2s-0.2,0.1-0.3,0.1c-0.3,1.7-0.9,2.7-1.8,3.7c2.3,0.4,4.2-0.1,6.5-1.6c-1-2.3-1.3-4.3-0.9-7.2    c0.1-0.5-0.2-1.3-0.8-1.4c-0.2,0-0.4,0-0.6,0C47,75,46.4,75,46.4,75.3c0.2,0.9,0.7,0.9,1.3,0.9c-0.1,0.3,0,0.7,0.2,1.1    c-0.7,0.1-1.6,0.4-2.5,2.2c-0.6,0-1.2,0-1.8,0c0.3,1.3,1,1.9,1.9,1.9C45.5,81.3,45.7,81.3,45.8,81.3z"/>
	</g>
	<g>
		<path class="st5" d="M42.9,77.4c0-1.1,1-1.7,3.1-1.9l0,0c0.3,0.6,0.6,0.9,0.9,0.9h0.2c0.2,0.1,0.5,0.5,0.1,0.8    c-0.7,0.2-1.2,0.6-1.6,1.2c-0.6-0.2-1.2-0.6-1.6-1.2l-0.3,0.2H42.9z"/>
	</g>
	<g>
		<path d="M45.7,78.4c-0.6-0.2-1.2-0.6-1.6-1.2l-0.3,0.2h-0.9l0,0c0-1.1,1-1.8,3.1-1.9l0,0c0.3,0.6,0.6,0.8,0.9,0.9h0.2    c0.1,0.1,0.3,0.2,0.3,0.4c0,0.1,0,0.3-0.2,0.4C46.6,77.4,46.1,77.8,45.7,78.4z M44.1,77.2c0.4,0.6,1,1,1.6,1.2    c0.4-0.6,0.9-1,1.6-1.2c0.2-0.1,0.2-0.3,0.2-0.4c0-0.2-0.2-0.4-0.3-0.4H47c-0.3-0.1-0.6-0.4-0.9-0.9H46c-2,0.2-3.1,0.9-3,1.9h0.9    L44.1,77.2z"/>
	</g>
	<g>
		<path class="st5" d="M65.9,161.2c2.1-1.5,4.1-3,5.8-4.8c2.3-3.6,3.9-6.7,3.1-8.2c2.2,0.9,2.6,2.3,1.8,4c-0.8,2.2-1.9,4.1-3.3,5.5    c-1.8,1.7-3.6,3.1-5.4,4.4C67.3,161.7,66.7,161.3,65.9,161.2"/>
	</g>
	<g>
		<path d="M68,162.2c-0.7-0.5-1.4-0.9-2.1-1.1l0,0l0,0c1.9-1.4,4-2.9,5.8-4.8c2-3.2,4-6.6,3.1-8.2c1.1,0.4,1.8,1,2.1,1.7    c0.3,0.7,0.2,1.4-0.3,2.3c-0.9,2.3-2,4.1-3.3,5.5c-1.6,1.5-3.2,2.7-4.7,3.9C68.5,161.8,68.3,162,68,162.2z M66,161.1    c0.7,0.2,1.4,0.5,2.1,1c0.2-0.2,0.5-0.4,0.7-0.6c1.5-1.2,3.1-2.4,4.7-3.9c1.3-1.4,2.4-3.3,3.3-5.5c0.4-0.9,0.5-1.7,0.3-2.3    c-0.3-0.7-1-1.3-2-1.7c0.9,1.6-1.1,5-3.1,8.2C69.9,158.2,67.9,159.8,66,161.1z"/>
	</g>
	<g>
		<path class="st5" d="M29.8,96.7c0.6-1.1,1.7-2.5,3-4.1c0.5,1,1.2,1,2.2,0.1h0.2c0.2,0.3,0.6,0.2,1,0c0.2,0.5-0.2,0.9-1.2,1    c-1.1-0.2-2.2,0.1-3.3,1.8c-0.3,0.5-0.4,1.1-0.5,1.7c0.1,0,0.2,0,0.3,0c0-0.5,0.1-1,0.5-1.6c1-1.3,2.1-1.7,3.2-1.6    c0.7-0.1,1.5,0,1.7-1.4c0.1-0.4,0.2-0.7,0.5-0.8c0.4,0.4,0.9,0.8,1.3,1.2c0.4,0.6,0.3,0.9-0.1,1.4c-1.7,1.7-3.4,3.5-5,5.2    C32.1,98.3,30.8,97.2,29.8,96.7"/>
	</g>
	<g>
		<path d="M33.6,99.6c-1.5-1.3-2.8-2.4-3.8-2.9l0,0l0,0c0.7-1.3,1.9-2.8,3-4.1c0.2,0.4,0.5,0.7,0.8,0.7c0.4,0.1,0.9-0.1,1.4-0.6h0.2    c0.2,0.3,0.6,0.2,1,0c0.1,0.2,0.1,0.4,0,0.5c-0.2,0.3-0.6,0.4-1.2,0.5c-0.9-0.1-2.1,0-3.3,1.8c-0.3,0.6-0.4,1.2-0.5,1.7    c0.1,0,0.1,0,0.2,0c0-0.5,0.1-1,0.5-1.6c0.8-1.1,1.7-1.6,2.8-1.6c0.1,0,0.3,0,0.4,0h0.1c0.7-0.1,1.4-0.1,1.6-1.4    c0.1-0.4,0.2-0.7,0.5-0.8c0.2,0.2,0.4,0.4,0.6,0.6c0.2,0.2,0.5,0.4,0.7,0.6c0.5,0.6,0.3,0.9-0.1,1.4l-0.4,0.4    C36.7,96.4,35.1,98,33.6,99.6z M29.8,96.7c1,0.5,2.2,1.5,3.8,2.9c1.5-1.6,3.1-3.2,4.6-4.8l0.4-0.4c0.4-0.4,0.5-0.7,0.1-1.4    c-0.2-0.2-0.5-0.4-0.7-0.6s-0.4-0.4-0.6-0.6c-0.3,0.1-0.4,0.4-0.5,0.8C36.7,93.9,36,94,35.3,94h-0.1c-0.1,0-0.3,0-0.4,0    c-1.1,0-2,0.5-2.8,1.6c-0.4,0.6-0.5,1.2-0.5,1.6c-0.1,0-0.2,0-0.3,0c0.1-0.5,0.2-1.1,0.5-1.7c1.2-1.8,2.4-1.9,3.3-1.8    c0.6-0.1,1-0.2,1.2-0.5c0.1-0.1,0.1-0.3,0-0.5c-0.4,0.2-0.8,0.3-1,0H35c-0.5,0.5-1,0.7-1.4,0.6c-0.3-0.1-0.6-0.3-0.8-0.7    C31.7,94,30.5,95.5,29.8,96.7z"/>
	</g>
	<g>
		<path class="st5" d="M63.4,164.2c0.6-1,1.3-2,2.1-2.8c1,0.2,1.8,0.6,2.4,1.3l-1.2,1.6L63.4,164.2z"/>
	</g>
	<g>
		<path d="M66.7,164.3h-3.4l0,0c0.6-0.9,1.3-2,2.1-2.8c1,0.1,1.8,0.6,2.5,1.3L66.7,164.3z M63.4,164.2h3.3l1.2-1.6    c-0.7-0.7-1.5-1.1-2.4-1.3C64.7,162.3,64,163.3,63.4,164.2z"/>
	</g>
	<g>
		<path class="st5" d="M34.8,100.6l5.5-5.8c1.1,1.1,1.7,2.5,1.2,4.4c-1.4,1.1-2.8,1.5-4.2,1.1c-0.6,0.3-1.2,0.6-1.5,1.2    C35.4,101.2,35.1,100.9,34.8,100.6"/>
	</g>
	<g>
		<path d="M35.8,101.5c-0.3-0.3-0.6-0.5-0.9-0.8l-0.1-0.1l0,0l5.5-5.8c1.3,1.2,1.7,2.7,1.2,4.4c-1.4,1.1-2.8,1.5-4.2,1.1    C36.6,100.6,36.1,100.9,35.8,101.5z M34.8,100.6L34.8,100.6c0.4,0.3,0.7,0.6,1,0.8c0.3-0.6,0.8-0.9,1.5-1.2c1.4,0.4,2.8,0,4.2-1.1    c0.5-1.7,0.1-3.1-1.2-4.3L34.8,100.6z"/>
	</g>
	<g>
		<path class="st5" d="M66.7,165.3c0.6-1.1,1.4-2.3,2.4-3.3c1.5,0.5,2.8,1.1,3.8,2.3v1.1L66.7,165.3z"/>
	</g>
	<g>
		<path d="M72.9,165.4l-6.2-0.1l0,0c0.8-1.4,1.5-2.4,2.4-3.3c1.7,0.6,2.9,1.3,3.8,2.3L72.9,165.4z M66.7,165.3l6.2,0.1v-1.1    c-0.9-1-2.1-1.7-3.7-2.3C68.2,162.9,67.4,163.9,66.7,165.3z"/>
	</g>
	<g>
		<path class="st5" d="M14.5,127.8c0.2-1,0.6-2,1.2-3.4c1.1-0.3,2.6,0.1,3.9,0.7c-0.3,0.5-0.7,0.8-1,1.3    C17.3,126.8,15.8,127.3,14.5,127.8"/>
	</g>
	<g>
		<path d="M14.5,127.8L14.5,127.8c0.1-0.9,0.5-1.9,1.2-3.4c0.9-0.2,2.4,0,3.9,0.7c-0.1,0.2-0.3,0.4-0.5,0.6s-0.3,0.4-0.5,0.6    c-0.8,0.3-1.7,0.6-2.5,0.9C15.6,127.4,15,127.6,14.5,127.8L14.5,127.8z M16.5,124.3c-0.3,0-0.5,0-0.8,0.1c-0.7,1.4-1,2.5-1.2,3.3    c0.5-0.2,1-0.4,1.6-0.6c0.8-0.3,1.7-0.6,2.5-0.9c0.1-0.2,0.3-0.4,0.5-0.6s0.3-0.4,0.5-0.6C18.5,124.6,17.3,124.3,16.5,124.3z"/>
	</g>
	<g>
		<polygon class="st3" points="14.3,128.4 18.2,126.9 17.5,128 14.5,129   "/>
	</g>
	<g>
		<path d="M14.5,129l-0.2-0.5l0,0l3.9-1.5l-0.7,1.1L14.5,129z M14.3,128.4l0.2,0.5l2.9-1l0.7-1L14.3,128.4z"/>
	</g>
	<g>
		<polygon class="st3" points="17.7,138.9 22.2,133.7 22.5,134.2 18.1,139.2   "/>
	</g>
	<g>
		<path d="M18.1,139.2l-0.4-0.3l0,0l4.4-5.2l0.3,0.5L18.1,139.2z M17.7,138.9l0.4,0.3l4.3-5l-0.3-0.5L17.7,138.9z"/>
	</g>
	<g>
		<path class="st5" d="M17.1,134.3c0.9-1,2.1-1.3,3.3-1.7c0.8-0.1,1.1,0.3,1.4,0.7c-1.4,1.6-2.9,3.2-4.3,4.8    C17.3,137,17.2,135.7,17.1,134.3"/>
	</g>
	<g>
		<path d="M17.5,138.1c-0.2-1-0.3-2.3-0.4-3.8l0,0c0.9-0.9,2-1.3,3.3-1.7c0.1,0,0.1,0,0.2,0c0.7,0,1,0.3,1.3,0.7    c-0.7,0.8-1.4,1.6-2.1,2.4C19,136.5,18.3,137.3,17.5,138.1z M17.1,134.3c0.1,1.5,0.2,2.8,0.4,3.8c0.7-0.8,1.5-1.7,2.2-2.5    s1.4-1.6,2.1-2.4c-0.2-0.3-0.6-0.7-1.3-0.7c-0.1,0-0.1,0-0.2,0C19.1,133,18,133.4,17.1,134.3z"/>
	</g>
	<g>
		<path class="st5" d="M48.7,136c1.4-0.9,2.5-1.9,3.4-3.1c1.2-0.1,2.5-0.2,3.7-0.3c0-1.1,0.5-1.7,1.3-2l0.1,6.5    C54.3,137.3,51.4,137.1,48.7,136"/>
	</g>
	<g>
		<path d="M56.3,137.3c-3,0-5.4-0.4-7.6-1.2l0,0l0,0c1.6-1,2.6-2,3.4-3.1c1.2-0.1,2.5-0.2,3.8-0.3c0-1,0.4-1.6,1.3-2l0.1,6.6    C56.9,137.3,56.6,137.3,56.3,137.3z M48.7,136c2.2,0.9,4.6,1.2,7.6,1.2c0.3,0,0.6,0,0.9,0l-0.1-6.5c-0.9,0.3-1.3,1-1.3,2    c-1.3,0.1-2.5,0.2-3.8,0.3C51.3,134.1,50.3,135,48.7,136z"/>
	</g>
	<g>
		<path class="st4" d="M57.3,130.1c-1,0.4-1.9,1-2.2,2.2c-0.8,0.1-1.7,0.2-2.5,0.3c0.8-1.1,1.5-2.4,1.7-3.7c0.6-0.2,1.2-0.6,1.6-1.7    c0.6-0.3,1.1-0.8,1.4-1.4V130.1z"/>
	</g>
	<g>
		<path d="M52.5,132.5c0.9-1.3,1.5-2.5,1.7-3.7c0.5-0.2,1.2-0.5,1.6-1.8c0.5-0.2,1-0.7,1.4-1.4l0.1,4.4l0,0    c-0.8,0.4-1.8,0.9-2.2,2.2c-0.4,0-0.9,0.1-1.3,0.1C53.4,132.4,52.9,132.5,52.5,132.5z M57.2,125.7c-0.4,0.7-0.9,1.2-1.4,1.4    c-0.4,1.2-1,1.6-1.6,1.7c-0.2,1.1-0.8,2.4-1.7,3.7c0.4,0,0.8-0.1,1.3-0.1c0.4,0,0.9-0.1,1.3-0.1c0.4-1.3,1.4-1.8,2.2-2.2    L57.2,125.7z"/>
	</g>
	<g>
		<path class="st1" d="M65.9,96.6l13-4c2.1,3,2.7,5.7,3.3,8.5c0.9,5.5-0.8,9.9-4,13.8c-3.8-1.3-7.3-3.3-9.8-7.6    C66.6,104.1,65.8,100.5,65.9,96.6"/>
	</g>
	<g>
		<path d="M78.2,114.9c-3.2-1.1-7.1-3-9.8-7.6c-1.7-3.2-2.6-6.8-2.5-10.7l0,0l13-4c2.1,3,2.7,5.8,3.3,8.5    C83.1,106.3,81.7,110.8,78.2,114.9z M65.9,96.6c-0.1,3.9,0.8,7.5,2.5,10.7c2.7,4.6,6.7,6.5,9.8,7.6c3.5-4.1,4.8-8.6,4-13.8    c-0.6-2.7-1.3-5.6-3.3-8.5L65.9,96.6z"/>
	</g>
	<g>
		<path class="st4" d="M66.1,96.8l12.7-3.9c2,2.8,2.6,5.5,3.2,8.2c0.8,5.3-0.7,9.7-3.9,13.4c-3.7-1.3-7.1-3.2-9.5-7.4    C66.9,104.1,66.1,100.6,66.1,96.8"/>
	</g>
	<g>
		<path d="M78.1,114.6c-3.1-1.1-6.9-2.9-9.5-7.4c-1.7-3.1-2.5-6.6-2.4-10.4l0,0l12.7-3.9c2.1,2.9,2.7,5.7,3.2,8.2    C82.8,106.2,81.5,110.6,78.1,114.6z M66.1,96.8c-0.1,3.8,0.7,7.3,2.4,10.4c2.7,4.5,6.5,6.3,9.5,7.4c3.4-4,4.7-8.3,3.9-13.4    c-0.6-2.5-1.2-5.3-3.2-8.2L66.1,96.8z"/>
	</g>
	<g>
		<path class="st1" d="M70.3,96.2c1.5-0.4,3-0.9,4.4-1.3c-1,0.7-0.6,2.3,0.1,4.1c0.1,0,0.1,0,0.2-0.1c1.3-0.2,2.5-0.6,3.3-1.6    c0.4,1.3,0.8,2.5,1.2,3.8c-1.1-0.6-2.4,0-3.7,0.6c0.3,0.9,0.5,1.8,0.7,2.7c1.2-0.3,2.5-0.7,3.4-1.7c0.4,1.2,0.8,2.5,1.2,3.7    c-1.2-0.6-2.4,0-3.7,0.5c0.1,1.3,0.4,2.5,1.8,3.6c-1.4,0.5-2.7,0.9-4.1,1.4c0.7-1.6,0.1-2.8-0.5-4.1c-1.1,0.4-2.1,0.4-3.4,1.7    c-0.4-1.1-0.8-2.3-1.2-3.4c1.3,0.4,2.6-0.2,3.9-0.8c-0.3-0.9-0.5-1.8-0.8-2.7c-1.4,0.3-2.8,0.5-3.6,1.7c-0.3-1.3-0.7-2.6-1.1-3.9    c1.4,0.6,2.6-0.1,3.9-0.6C72.1,98.3,71.6,97.1,70.3,96.2"/>
	</g>
	<g>
		<path d="M75.1,111.9c0.7-1.5,0.1-2.8-0.4-4v-0.1c-0.3,0.1-0.5,0.2-0.8,0.3c-0.8,0.2-1.6,0.4-2.5,1.4c-0.4-1.1-0.8-2.1-1.3-3.4    c1.2,0.4,2.4-0.1,3.6-0.7c0.1,0,0.2-0.1,0.3-0.1c-0.3-0.9-0.5-1.8-0.8-2.7l-0.3,0.1c-1.3,0.3-2.6,0.5-3.3,1.7    c-0.3-0.9-0.5-1.8-0.7-2.7l-0.3-1.2c1.2,0.5,2.3,0,3.5-0.5c0.1-0.1,0.3-0.1,0.4-0.2c-0.2-1.2-0.6-2.6-2-3.6l0,0l0,0    c1-0.3,1.9-0.6,2.8-0.8c0.5-0.2,1.1-0.3,1.6-0.5c-1,0.8-0.5,2.6,0.1,4.1c0,0,0,0,0.1,0c0,0,0,0,0.1,0c1.6-0.2,2.7-0.8,3.3-1.6    c0.2,0.7,0.5,1.5,0.7,2.2c0.2,0.6,0.3,1.1,0.5,1.7c-1-0.6-2.2,0-3.4,0.5l-0.2,0.1c0.2,0.5,0.3,1,0.4,1.5c0.1,0.4,0.2,0.8,0.3,1.2    h0.1c1.2-0.3,2.5-0.7,3.3-1.7c0.4,1.3,0.8,2.5,1.2,3.7c-1.1-0.5-2.3,0-3.5,0.4l-0.2,0.1c0.1,1.4,0.5,2.6,1.8,3.5    c-0.8,0.3-1.6,0.6-2.4,0.8C76.2,111.5,75.7,111.7,75.1,111.9z M74.6,107.8L74.6,107.8c0.7,1.3,1.2,2.6,0.5,4.1    c0.6-0.2,1.2-0.4,1.7-0.6c0.8-0.3,1.6-0.5,2.4-0.8c-1.3-1-1.7-2.1-1.8-3.6l0.2-0.1c1.2-0.5,2.4-1,3.5-0.4    c-0.4-1.2-0.8-2.4-1.2-3.7c-0.8,1-2.1,1.4-3.3,1.7h-0.1c-0.1-0.4-0.2-0.8-0.3-1.2c-0.1-0.5-0.3-1-0.4-1.5l0.2-0.1    c1.2-0.5,2.5-1.1,3.5-0.5c-0.2-0.6-0.4-1.1-0.5-1.7c-0.2-0.7-0.5-1.5-0.7-2.2c-0.7,0.9-1.7,1.4-3.3,1.6h-0.1c0,0,0,0-0.1,0    c-0.6-1.5-1.1-3.3-0.1-4.1c-0.5,0.2-1.1,0.3-1.6,0.5c-0.9,0.3-1.9,0.6-2.8,0.8c1.4,1,1.8,2.4,2,3.6c-0.1,0.1-0.3,0.1-0.4,0.2    c-1.2,0.5-2.3,1-3.5,0.5l0.3,1.2c0.2,0.9,0.5,1.8,0.7,2.7c0.7-1.2,2-1.4,3.3-1.7l0.3-0.1c0.3,0.9,0.5,1.8,0.8,2.7    c-0.1,0.1-0.2,0.1-0.3,0.1c-1.2,0.5-2.3,1-3.6,0.7c0.5,1.3,0.9,2.3,1.3,3.4c0.9-0.9,1.7-1.2,2.5-1.4C74,108,74.3,107.9,74.6,107.8    z"/>
	</g>
	<g>
		<path class="st3" d="M71.1,96.4c1-0.3,2-0.6,3-0.9c-0.5,0.9,0.3,2.5,0.7,3.8c1.3-0.4,2.9-0.7,3.5-1.5c0.3,0.9,0.6,1.8,0.9,2.8    c-1.1-0.3-2.5,0.3-3.8,0.9c0.4,1.1,0.7,2.3,1.1,3.4c1.3-0.5,2.9-0.7,3.5-1.4c0.3,0.8,0.5,1.7,0.8,2.5c-1.4-0.3-2.6,0.4-3.8,0.9    c0.5,1.4,0.9,3.2,1.7,3.7c-1,0.3-2,0.6-3.1,0.9c0.5-1.3-0.3-2.6-0.7-3.9c-1.3,0.4-2.8,0.7-3.6,1.5c-0.3-0.9-0.5-1.7-0.8-2.6    c1.2,0.3,2.5-0.4,3.7-0.8c-0.3-1.1-0.7-2.3-1-3.4c-1.5,0.4-3.1,0.8-3.6,1.7l-0.9-2.9c1.2,0.4,2.6-0.4,3.9-0.9    C72.2,98.4,71.7,96.7,71.1,96.4"/>
	</g>
	<g>
		<path d="M75.6,111.4c0.4-1,0-2.1-0.4-3.1c-0.1-0.3-0.2-0.5-0.3-0.8c-0.2,0.1-0.4,0.1-0.6,0.2c-1.1,0.3-2.3,0.6-2.9,1.3    c-0.2-0.4-0.3-0.9-0.4-1.3s-0.3-0.8-0.4-1.3c0.9,0.2,1.9-0.1,2.8-0.5c0.3-0.1,0.6-0.2,0.9-0.3c-0.4-1.2-0.7-2.3-1-3.4    c-0.1,0-0.3,0.1-0.4,0.1c-1.4,0.4-2.7,0.7-3.2,1.5l-0.9-2.9c1,0.3,2.2-0.2,3.3-0.7c0.2-0.1,0.4-0.2,0.6-0.3    c-0.5-1.6-1-3.3-1.6-3.6l0,0l0,0c1-0.3,2.1-0.6,3-0.9c-0.4,0.7,0,1.8,0.4,2.8c0.1,0.3,0.2,0.7,0.3,1c0.2-0.1,0.5-0.1,0.7-0.2    c1.1-0.3,2.3-0.6,2.8-1.3c0.2,0.5,0.3,1,0.5,1.4c0.1,0.4,0.3,0.9,0.4,1.3c-1-0.3-2.2,0.2-3.4,0.7c-0.1,0.1-0.3,0.1-0.4,0.2    c0.2,0.5,0.3,1,0.5,1.6s0.4,1.2,0.6,1.8c0.4-0.1,0.8-0.3,1.2-0.4c1-0.3,1.9-0.5,2.3-1.1c0.1,0.4,0.3,0.8,0.4,1.1    c0.1,0.4,0.3,0.9,0.5,1.3c-1.2-0.2-2.3,0.2-3.3,0.7c-0.2,0.1-0.4,0.2-0.6,0.2c0.1,0.3,0.2,0.7,0.4,1.1c0.3,1.1,0.7,2.3,1.3,2.6    c-0.5,0.2-1,0.3-1.5,0.5C76.6,111.1,76.1,111.2,75.6,111.4z M74.9,107.5c0.1,0.3,0.2,0.5,0.3,0.8c0.4,1,0.8,2.1,0.4,3.1    c0.5-0.2,1-0.3,1.5-0.5c0.5-0.1,1-0.3,1.5-0.4c-0.6-0.3-1-1.5-1.3-2.6c-0.1-0.4-0.2-0.7-0.4-1.1c0.2-0.1,0.4-0.2,0.6-0.2    c0.8-0.4,1.7-0.7,2.6-0.7c0.2,0,0.4,0,0.6,0.1c-0.2-0.4-0.3-0.9-0.5-1.3c-0.1-0.4-0.2-0.8-0.4-1.1c-0.4,0.5-1.3,0.8-2.3,1.1    c-0.4,0.1-0.8,0.2-1.2,0.4c-0.2-0.6-0.4-1.2-0.6-1.8c-0.2-0.5-0.3-1.1-0.5-1.6c0.1-0.1,0.3-0.1,0.4-0.2c1.2-0.5,2.4-1,3.4-0.7    c-0.1-0.4-0.3-0.9-0.4-1.3c-0.2-0.5-0.3-1-0.5-1.4c-0.5,0.7-1.7,1-2.8,1.3c-0.2,0.1-0.5,0.1-0.7,0.2c-0.1-0.3-0.2-0.7-0.4-1    c-0.4-1.1-0.8-2.1-0.4-2.8c-0.9,0.3-2,0.6-3,0.9c0.6,0.3,1.1,2.1,1.6,3.6c-0.2,0.1-0.4,0.2-0.6,0.3c-1.1,0.5-2.2,1-3.3,0.7    l0.9,2.9c0.5-0.8,1.8-1.2,3.2-1.5c0.1,0,0.3-0.1,0.4-0.1c0.3,1.1,0.7,2.2,1,3.4c-0.3,0.1-0.6,0.2-0.9,0.3c-1,0.3-1.9,0.7-2.8,0.5    c0.1,0.4,0.3,0.8,0.4,1.2c0.1,0.4,0.3,0.9,0.4,1.3c0.6-0.6,1.8-1,2.9-1.3C74.5,107.6,74.7,107.5,74.9,107.5z"/>
	</g>
</g>
<g class="text">
	<path d="M218.1,148.3v23.2h-3.2v-23.2C214.9,148.3,218.1,148.3,218.1,148.3z M230.7,148.3l-8.8,10.6l9.4,12.6h-3.9l-9.2-12.4   l8.8-10.8C227,148.3,230.7,148.3,230.7,148.3z"/>
	<path d="M242.6,161.7H239v9.8h-3.2v-23.2h6.1c2.9,0,5.1,0.6,6.6,1.7c1.5,1.1,2.2,2.7,2.2,4.9c0,1.6-0.4,2.9-1.2,3.9   s-2.1,1.8-3.8,2.3l6.3,10.4h-3.8L242.6,161.7z M242.2,159.2c1.7,0,3-0.3,3.8-1s1.3-1.8,1.3-3.3c0-1.4-0.4-2.5-1.3-3.1   c-0.9-0.6-2.3-1-4.2-1H239v8.4H242.2z"/>
	<path d="M269.5,171.5l-1.7-5.8H259l-1.8,5.8H254l7.4-23.2h4l7.4,23.2H269.5z M259.7,163.1h7.2l-3.6-12.1L259.7,163.1z"/>
	<path d="M287.1,148.6c1.1,0.4,2.2,1.1,3.2,2l-1.8,2c-0.9-0.7-1.7-1.2-2.6-1.5s-1.7-0.5-2.7-0.5c-1.2,0-2.2,0.3-3,0.8   c-0.8,0.6-1.2,1.4-1.2,2.5c0,0.7,0.1,1.2,0.4,1.7s0.8,0.9,1.5,1.3c0.7,0.4,1.8,0.8,3.2,1.2c1.5,0.4,2.7,0.9,3.6,1.4   c1,0.5,1.7,1.2,2.3,2.1c0.6,0.9,0.9,2.1,0.9,3.5c0,1.3-0.3,2.5-1,3.6c-0.7,1-1.6,1.8-2.9,2.4c-1.2,0.6-2.7,0.9-4.4,0.9   c-3.2,0-5.8-1-7.9-3l1.7-2c0.9,0.8,1.9,1.3,2.9,1.7s2,0.6,3.2,0.6c1.4,0,2.6-0.4,3.6-1.1c0.9-0.7,1.4-1.7,1.4-3.1   c0-0.8-0.1-1.4-0.4-1.9s-0.8-1-1.5-1.4c-0.7-0.4-1.7-0.8-3.1-1.2c-2.4-0.7-4.1-1.6-5.2-2.6s-1.7-2.4-1.7-4.1c0-1.2,0.3-2.2,0.9-3.1   c0.6-0.9,1.5-1.6,2.6-2.2c1.1-0.6,2.4-0.8,3.8-0.8C284.7,147.9,286,148.1,287.1,148.6z M287.6,140.9l1.3,1.5l-4.5,3.7h-2.1   l-4.6-3.7l1.3-1.5l4.2,2.7L287.6,140.9z"/>
	<path d="M309.7,148.3l-0.3,2.7H303v20.5h-3.2V151h-6.6v-2.7H309.7z"/>
	<path d="M326.7,149.3c1.5,0.9,2.6,2.3,3.4,4.1c0.8,1.8,1.2,4,1.2,6.5s-0.4,4.7-1.2,6.5s-2,3.2-3.4,4.1c-1.4,0.9-3.2,1.4-5.1,1.4   c-2,0-3.7-0.5-5.1-1.4c-1.5-0.9-2.6-2.3-3.4-4.1c-0.8-1.8-1.2-4-1.2-6.5s0.4-4.6,1.2-6.5c0.8-1.8,2-3.2,3.5-4.2s3.2-1.4,5.1-1.4   C323.5,147.9,325.2,148.4,326.7,149.3z M316.8,152.8c-1.1,1.5-1.7,3.9-1.7,7.1s0.6,5.6,1.7,7.1s2.7,2.3,4.7,2.3   c4.3,0,6.4-3.1,6.4-9.4s-2.1-9.4-6.4-9.4C319.5,150.5,318,151.3,316.8,152.8z"/>
	<path d="M359.9,171.5l-1.7-5.8h-8.8l-1.8,5.8h-3.2l7.4-23.2h4l7.4,23.2H359.9z M350.1,163.1h7.2l-3.6-12.1L350.1,163.1z"/>
	<path d="M380.6,150.1c1.6,1.2,2.4,3,2.4,5.4c0,2.5-0.8,4.4-2.5,5.7c-1.6,1.2-3.8,1.9-6.5,1.9h-3v8.5h-3.2v-23.2h6.1   C376.8,148.3,379,148.9,380.6,150.1z M378.1,159.4c1-0.7,1.5-2,1.5-3.9c0-1.7-0.5-2.9-1.5-3.6s-2.4-1.1-4.2-1.1H371v9.7h2.8   C375.7,160.5,377.1,160.1,378.1,159.4z"/>
	<path d="M397.4,148.6c1.1,0.4,2.2,1.1,3.2,2l-1.8,2c-0.9-0.7-1.7-1.2-2.6-1.5s-1.7-0.5-2.7-0.5c-1.2,0-2.2,0.3-3,0.8   c-0.8,0.6-1.2,1.4-1.2,2.5c0,0.7,0.1,1.2,0.4,1.7s0.8,0.9,1.5,1.3c0.7,0.4,1.8,0.8,3.2,1.2c1.5,0.4,2.7,0.9,3.6,1.4   c1,0.5,1.7,1.2,2.3,2.1c0.6,0.9,0.9,2.1,0.9,3.5c0,1.3-0.3,2.5-1,3.6c-0.7,1-1.6,1.8-2.9,2.4c-1.2,0.6-2.7,0.9-4.4,0.9   c-3.2,0-5.8-1-7.9-3l1.7-2c0.9,0.8,1.9,1.3,2.9,1.7s2,0.6,3.2,0.6c1.4,0,2.6-0.4,3.6-1.1c0.9-0.7,1.4-1.7,1.4-3.1   c0-0.8-0.1-1.4-0.4-1.9s-0.8-1-1.5-1.4c-0.7-0.4-1.7-0.8-3.1-1.2c-2.4-0.7-4.1-1.6-5.2-2.6s-1.7-2.4-1.7-4.1c0-1.2,0.3-2.2,0.9-3.1   c0.6-0.9,1.5-1.6,2.6-2.2c1.1-0.5,2.4-0.8,3.8-0.8C395,147.9,396.3,148.1,397.4,148.6z"/>
	<path d="M419.3,171.5l-1.7-5.8h-8.8l-1.8,5.8h-3.2l7.4-23.2h4l7.4,23.2H419.3z M409.5,163.1h7.2l-3.6-12.1L409.5,163.1z"/>
	<path d="M442.8,164.1c0,1.5-0.3,2.9-1,4.1s-1.6,2.1-2.8,2.8c-1.2,0.7-2.7,1-4.4,1c-2.6,0-4.6-0.7-6-2.1c-1.4-1.4-2.1-3.3-2.1-5.7   v-15.8h3.2v15.5c0,1.8,0.4,3.1,1.2,4c0.8,0.9,2,1.3,3.7,1.3s2.9-0.4,3.7-1.3c0.8-0.9,1.2-2.2,1.2-4.1v-15.5h3.2L442.8,164.1   L442.8,164.1z"/>
	<path d="M462.5,148.5c1.1,0.4,2.1,1.1,3.2,1.9l-1.9,2c-0.8-0.7-1.6-1.2-2.4-1.4c-0.8-0.3-1.7-0.4-2.7-0.4c-1.2,0-2.3,0.3-3.3,1   s-1.8,1.7-2.4,3.1c-0.6,1.4-0.9,3.2-0.9,5.3c0,3.3,0.5,5.6,1.6,7.1s2.6,2.3,4.7,2.3c1.7,0,3.2-0.3,4.4-1v-7h-4.1l-0.4-2.6h7.6V170   c-2.4,1.4-4.9,2.1-7.6,2.1c-3.1,0-5.4-1-7.2-3.1c-1.7-2-2.6-5-2.6-9c0-2.5,0.5-4.7,1.4-6.5s2.1-3.2,3.7-4.1c1.5-0.9,3.2-1.4,5-1.4   C460.2,147.9,461.5,148.1,462.5,148.5z"/>
	<path d="M485.9,149.3c1.5,0.9,2.6,2.3,3.4,4.1c0.8,1.8,1.2,4,1.2,6.5s-0.4,4.7-1.2,6.5s-2,3.2-3.4,4.1c-1.4,0.9-3.2,1.4-5.1,1.4   c-2,0-3.7-0.5-5.1-1.4c-1.5-0.9-2.6-2.3-3.4-4.1c-0.8-1.8-1.2-4-1.2-6.5s0.4-4.6,1.2-6.5c0.8-1.8,2-3.2,3.5-4.2s3.2-1.4,5.1-1.4   C482.7,147.9,484.4,148.4,485.9,149.3z M476,152.8c-1.1,1.5-1.7,3.9-1.7,7.1s0.6,5.6,1.7,7.1s2.7,2.3,4.7,2.3   c4.3,0,6.4-3.1,6.4-9.4s-2.1-9.4-6.4-9.4C478.7,150.5,477.1,151.3,476,152.8z"/>
	<path d="M506.5,148.6c1.1,0.4,2.2,1.1,3.2,2l-1.8,2c-0.9-0.7-1.7-1.2-2.6-1.5s-1.7-0.5-2.7-0.5c-1.2,0-2.2,0.3-3,0.8   c-0.8,0.6-1.2,1.4-1.2,2.5c0,0.7,0.1,1.2,0.4,1.7s0.8,0.9,1.5,1.3c0.7,0.4,1.8,0.8,3.2,1.2c1.5,0.4,2.7,0.9,3.6,1.4   c1,0.5,1.7,1.2,2.3,2.1c0.6,0.9,0.9,2.1,0.9,3.5c0,1.3-0.3,2.5-1,3.6c-0.7,1-1.6,1.8-2.9,2.4c-1.2,0.6-2.7,0.9-4.4,0.9   c-3.2,0-5.8-1-7.9-3l1.7-2c0.9,0.8,1.9,1.3,2.9,1.7s2,0.6,3.2,0.6c1.4,0,2.6-0.4,3.6-1.1c0.9-0.7,1.4-1.7,1.4-3.1   c0-0.8-0.1-1.4-0.4-1.9s-0.8-1-1.5-1.4c-0.7-0.4-1.7-0.8-3.1-1.2c-2.4-0.7-4.1-1.6-5.2-2.6s-1.7-2.4-1.7-4.1c0-1.2,0.3-2.2,0.9-3.1   c0.6-0.9,1.5-1.6,2.6-2.2c1.1-0.6,2.4-0.8,3.8-0.8C504,147.9,505.4,148.1,506.5,148.6z"/>
</g>
<g class="text">
	<path d="M218.1,102.2v20.4h9.5l-0.4,2.8h-12.4v-23.2H218.1z"/>
	<path d="M235.9,102.2v23.2h-3.2v-23.2H235.9z"/>
	<path d="M256.2,102.2l-0.4,2.6h-9v7.6h7.8v2.5h-7.8v7.9h9.6v2.6h-12.8v-23.2H256.2z"/>
	<path d="M276.4,102.2l-0.4,2.7h-6.4v20.5h-3.2v-20.5h-6.6v-2.7H276.4z"/>
	<path d="M297,118c0,1.5-0.3,2.9-1,4.1c-0.7,1.2-1.6,2.1-2.8,2.8c-1.2,0.7-2.7,1-4.4,1c-2.6,0-4.6-0.7-6-2.1s-2.1-3.3-2.1-5.7v-15.9   h3.2v15.5c0,1.8,0.4,3.1,1.2,4c0.8,0.9,2,1.3,3.7,1.3s2.9-0.4,3.7-1.3c0.8-0.9,1.2-2.2,1.2-4.1v-15.4h3.2L297,118L297,118z"/>
	<path d="M319.6,102.2l-7.4,23.2h-3.4l-7.5-23.2h3.4l5.8,19.7l5.8-19.7C316.3,102.2,319.6,102.2,319.6,102.2z"/>
	<path d="M337.6,103.2c1.5,0.9,2.6,2.3,3.4,4.1c0.8,1.8,1.2,4,1.2,6.5s-0.4,4.7-1.2,6.5s-2,3.2-3.4,4.1c-1.5,0.9-3.2,1.4-5.1,1.4   c-2,0-3.7-0.5-5.1-1.4c-1.5-0.9-2.6-2.3-3.4-4.1c-0.8-1.8-1.2-4-1.2-6.5s0.4-4.6,1.2-6.5c0.8-1.8,2-3.2,3.5-4.2s3.2-1.4,5.1-1.4   C334.4,101.8,336.1,102.2,337.6,103.2z M327.7,106.7c-1.1,1.5-1.7,3.9-1.7,7.1c0,3.2,0.6,5.6,1.7,7.1s2.7,2.3,4.7,2.3   c4.3,0,6.4-3.1,6.4-9.4s-2.1-9.4-6.4-9.4C330.4,104.4,328.8,105.2,327.7,106.7z"/>
	<path d="M358.2,102.4c1.1,0.4,2.2,1.1,3.2,2l-1.8,2c-0.9-0.7-1.7-1.2-2.6-1.5c-0.9-0.3-1.7-0.5-2.7-0.5c-1.2,0-2.2,0.3-3,0.8   c-0.8,0.6-1.2,1.4-1.2,2.5c0,0.7,0.1,1.2,0.4,1.7s0.8,0.9,1.5,1.3s1.8,0.8,3.2,1.2c1.5,0.4,2.7,0.9,3.6,1.4c1,0.5,1.7,1.2,2.3,2.1   c0.6,0.9,0.9,2.1,0.9,3.5c0,1.3-0.3,2.5-1,3.6c-0.7,1-1.6,1.8-2.9,2.4c-1.2,0.6-2.7,0.9-4.4,0.9c-3.2,0-5.8-1-7.9-3l1.7-2   c0.9,0.8,1.9,1.3,2.9,1.7s2,0.6,3.2,0.6c1.4,0,2.6-0.4,3.6-1.1c0.9-0.7,1.4-1.7,1.4-3.1c0-0.8-0.1-1.4-0.4-1.9s-0.8-1-1.5-1.4   s-1.7-0.8-3.1-1.2c-2.4-0.7-4.1-1.6-5.2-2.6s-1.7-2.4-1.7-4.1c0-1.2,0.3-2.2,0.9-3.1s1.5-1.6,2.6-2.2c1.1-0.6,2.4-0.8,3.8-0.8   C355.7,101.8,357.1,102,358.2,102.4z"/>
	<path d="M384.6,115.6H381v9.8h-3.2v-23.2h6.1c2.9,0,5.1,0.6,6.6,1.7s2.2,2.7,2.2,4.9c0,1.6-0.4,2.9-1.2,3.9c-0.8,1-2.1,1.8-3.8,2.3   l6.3,10.4h-3.8L384.6,115.6z M384.2,113.2c1.7,0,3-0.3,3.8-1c0.8-0.7,1.3-1.8,1.3-3.3c0-1.4-0.4-2.5-1.3-3.1c-0.9-0.6-2.3-1-4.2-1   h-2.9v8.4H384.2z"/>
	<path d="M411.8,102.2l-0.4,2.6h-9v7.6h7.8v2.6h-7.8v7.9h9.6v2.5h-12.8v-23.2H411.8z"/>
	<path d="M427.9,102.5c1.1,0.4,2.2,1.1,3.2,2l-1.8,2c-0.9-0.7-1.7-1.2-2.6-1.5c-0.9-0.3-1.7-0.5-2.7-0.5c-1.2,0-2.2,0.3-3,0.8   c-0.8,0.6-1.2,1.4-1.2,2.5c0,0.7,0.1,1.2,0.4,1.7s0.8,0.9,1.5,1.3s1.8,0.8,3.2,1.2c1.5,0.4,2.7,0.9,3.6,1.4c1,0.5,1.7,1.2,2.3,2.1   s0.9,2.1,0.9,3.5c0,1.3-0.3,2.5-1,3.6c-0.7,1-1.6,1.8-2.9,2.4c-1.2,0.6-2.7,0.9-4.4,0.9c-3.2,0-5.8-1-7.9-3l1.8-2   c0.9,0.8,1.9,1.3,2.9,1.7c1,0.4,2,0.6,3.2,0.6c1.4,0,2.6-0.4,3.6-1.1c0.9-0.7,1.4-1.7,1.4-3.1c0-0.8-0.1-1.4-0.4-1.9   s-0.8-1-1.5-1.4s-1.7-0.8-3.1-1.2c-2.4-0.7-4.1-1.6-5.2-2.6c-1.1-1-1.7-2.4-1.7-4.1c0-1.2,0.3-2.2,0.9-3.1s1.5-1.6,2.6-2.2   c1.1-0.5,2.4-0.8,3.8-0.8C425.5,101.8,426.8,102.1,427.9,102.5z"/>
	<path d="M450.4,104c1.6,1.2,2.4,3,2.4,5.4c0,2.5-0.8,4.4-2.5,5.7c-1.6,1.2-3.8,1.9-6.5,1.9h-2.9v8.4h-3.2v-23.2h6.1   C446.6,102.2,448.8,102.8,450.4,104z M447.9,113.3c1-0.7,1.5-2,1.5-3.9c0-1.7-0.5-2.9-1.5-3.6s-2.4-1.1-4.2-1.1h-2.9v9.7h2.8   C445.5,114.4,446.9,114,447.9,113.3z"/>
	<path d="M474.1,118c0,1.5-0.3,2.9-1,4.1s-1.6,2.1-2.8,2.8c-1.2,0.7-2.7,1-4.4,1c-2.6,0-4.6-0.7-6-2.1s-2.1-3.3-2.1-5.7v-15.9h3.2   v15.5c0,1.8,0.4,3.1,1.2,4c0.8,0.9,2,1.3,3.7,1.3s2.9-0.4,3.7-1.3c0.8-0.9,1.2-2.2,1.2-4.1v-15.4h3.2L474.1,118L474.1,118z"/>
	<path d="M495.6,114.9c1,0.9,1.5,2.2,1.5,4c0,4.4-3.1,6.6-9.2,6.6h-6.4v-23.3h5.5c2.9,0,5.2,0.5,6.8,1.4c1.6,1,2.3,2.4,2.3,4.4   c0,1.3-0.4,2.5-1.3,3.4c-0.8,0.9-1.9,1.5-3.1,1.7C493.3,113.5,494.6,114,495.6,114.9z M484.7,104.8v7.3h3.5c1.3,0,2.5-0.3,3.3-1   c0.9-0.7,1.3-1.6,1.3-2.8c0-1.3-0.5-2.3-1.4-2.8s-2.3-0.8-4.1-0.8L484.7,104.8L484.7,104.8z M492.2,122c1-0.6,1.5-1.6,1.5-3.2   c0-1.5-0.5-2.6-1.4-3.3c-1-0.7-2.2-1-3.8-1h-3.8v8.4h3.2C489.8,122.9,491.2,122.6,492.2,122z"/>
	<path d="M506.2,102.2v20.4h9.5l-0.4,2.8h-12.4v-23.2H506.2z"/>
	<path d="M524,102.2v23.2h-3.2v-23.2H524z"/>
	<path d="M534.9,102.2v23.2h-3.2v-23.2H534.9z M547.6,102.2l-8.8,10.6l9.4,12.6h-3.9l-9.2-12.4l8.8-10.8H547.6z"/>
	<path d="M566,103.2c1.5,0.9,2.6,2.3,3.4,4.1c0.8,1.8,1.2,4,1.2,6.5s-0.4,4.7-1.2,6.5c-0.8,1.8-2,3.2-3.4,4.1   c-1.4,0.9-3.2,1.4-5.1,1.4c-2,0-3.7-0.5-5.1-1.4c-1.5-0.9-2.6-2.3-3.4-4.1c-0.8-1.8-1.2-4-1.2-6.5s0.4-4.6,1.2-6.5   c0.8-1.8,2-3.2,3.5-4.2s3.2-1.4,5.1-1.4C562.8,101.8,564.5,102.3,566,103.2z M556.1,106.7c-1.1,1.5-1.7,3.9-1.7,7.1   c0,3.2,0.6,5.6,1.7,7.1c1.1,1.5,2.7,2.3,4.7,2.3c4.3,0,6.4-3.1,6.4-9.4s-2.1-9.4-6.4-9.4C558.8,104.5,557.3,105.2,556.1,106.7z"/>
	<path d="M586.6,102.5c1.1,0.4,2.2,1.1,3.2,2l-1.8,2c-0.9-0.7-1.7-1.2-2.6-1.5c-0.9-0.3-1.7-0.5-2.7-0.5c-1.2,0-2.2,0.3-3,0.8   c-0.8,0.6-1.2,1.4-1.2,2.5c0,0.7,0.1,1.2,0.4,1.7s0.8,0.9,1.5,1.3s1.8,0.8,3.2,1.2c1.5,0.4,2.7,0.9,3.6,1.4c1,0.5,1.7,1.2,2.3,2.1   s0.9,2.1,0.9,3.5c0,1.3-0.3,2.5-1,3.6c-0.7,1-1.6,1.8-2.9,2.4c-1.2,0.6-2.7,0.9-4.4,0.9c-3.2,0-5.8-1-7.9-3l1.7-2   c0.9,0.8,1.9,1.3,2.9,1.7c1,0.4,2,0.6,3.2,0.6c1.4,0,2.6-0.4,3.6-1.1c0.9-0.7,1.4-1.7,1.4-3.1c0-0.8-0.1-1.4-0.4-1.9   s-0.8-1-1.5-1.4s-1.7-0.8-3.1-1.2c-2.4-0.7-4.1-1.6-5.2-2.6c-1.1-1-1.7-2.4-1.7-4.1c0-1.2,0.3-2.2,0.9-3.1c0.6-0.9,1.5-1.6,2.6-2.2   c1.1-0.6,2.4-0.8,3.8-0.8C584.2,101.8,585.5,102.1,586.6,102.5z"/>
</g>
<g class="text">
	<path d="M549.3,171.8h-3.1l-0.8-10.5c-0.3-4.1-0.5-7.3-0.6-9.5l-5,17.3h-3l-5.3-17.3c0,2.8-0.1,6.1-0.4,9.7l-0.8,10.2h-3l1.9-23.2   h4.3l4.9,16.9l4.6-16.9h4.3L549.3,171.8z"/>
	<path d="M558.9,148.6v23.2h-3.2v-23.2H558.9z"/>
	<path d="M582.9,171.8h-4.3l-9.4-19.7c0.1,1.5,0.2,3,0.3,4.3c0.1,1.3,0.1,2.9,0.1,4.8v10.6h-3v-23.2h4.2l9.5,19.7   c-0.1-0.6-0.2-1.6-0.3-3.1s-0.2-2.8-0.2-4v-12.7h3L582.9,171.8L582.9,171.8z"/>
	<path d="M593.9,148.6v23.2h-3.2v-23.2H593.9z"/>
	<path d="M611.3,148.8c1.1,0.4,2.2,1.1,3.2,2l-1.8,2c-0.9-0.7-1.7-1.2-2.6-1.5c-0.9-0.3-1.7-0.5-2.7-0.5c-1.2,0-2.2,0.3-3,0.8   c-0.8,0.6-1.2,1.4-1.2,2.5c0,0.7,0.1,1.2,0.4,1.7s0.8,0.9,1.5,1.3c0.7,0.4,1.8,0.8,3.2,1.2c1.5,0.4,2.7,0.9,3.6,1.4   c1,0.5,1.7,1.2,2.3,2.1c0.6,0.9,0.9,2.1,0.9,3.5c0,1.3-0.3,2.5-1,3.6c-0.7,1-1.6,1.8-2.9,2.4c-1.2,0.6-2.7,0.9-4.4,0.9   c-3.2,0-5.8-1-7.9-3l1.7-2c0.9,0.8,1.9,1.3,2.9,1.7s2,0.6,3.2,0.6c1.4,0,2.6-0.4,3.6-1.1c0.9-0.7,1.4-1.7,1.4-3.1   c0-0.8-0.1-1.4-0.4-1.9s-0.8-1-1.5-1.4s-1.7-0.8-3.1-1.2c-2.4-0.7-4.1-1.6-5.2-2.6c-1.1-1-1.7-2.4-1.7-4.1c0-1.2,0.3-2.2,0.9-3.1   c0.6-0.9,1.5-1.6,2.6-2.2c1.1-0.6,2.4-0.8,3.8-0.8C608.9,148.2,610.2,148.4,611.3,148.8z"/>
	<path d="M633.9,148.6l-0.3,2.7h-6.4v20.5H624v-20.5h-6.6v-2.7H633.9z"/>
	<path d="M651.2,148.6l-0.4,2.6h-9v7.6h7.8v2.6h-7.8v7.9h9.6v2.6h-12.8v-23.2h12.6V148.6z"/>
	<path d="M664.5,161.9h-3.6v9.8h-3.2v-23.2h6.1c2.9,0,5.1,0.6,6.6,1.7c1.5,1.1,2.2,2.7,2.2,4.9c0,1.6-0.4,2.9-1.2,3.9   c-0.8,1-2.1,1.8-3.8,2.3l6.3,10.4h-3.8L664.5,161.9z M664.1,159.5c1.7,0,3-0.3,3.8-1c0.9-0.7,1.3-1.8,1.3-3.3   c0-1.4-0.4-2.5-1.3-3.1c-0.9-0.6-2.3-1-4.2-1h-2.9v8.4L664.1,159.5L664.1,159.5z"/>
	<path d="M682.2,148.6v23.2H679v-23.2H682.2z"/>
	<path d="M693.7,168.5c0,2.3-0.5,4-1.5,5.2s-2.5,2-4.6,2.7l-0.8-2.3c1-0.4,1.8-0.8,2.3-1.3s0.9-1,1.1-1.7s0.3-1.5,0.3-2.6v-19.8h3.2   V168.5z"/>
	<path d="M713.6,171.8l-1.7-5.8h-8.8l-1.8,5.8h-3.2l7.4-23.2h4l7.4,23.2H713.6z M703.8,163.3h7.2l-3.6-12.1L703.8,163.3z"/>
</g>
</svg>