<?xml version="1.0" encoding="UTF-8"?>
<svg xmlns="http://www.w3.org/2000/svg" version="1.1" viewBox="0 0 611.51 265.09">
  <defs>
    <style>
      .cls-1 {
        fill: #fff;
      }
    </style>
  </defs>
  <!-- Generator: Adobe Illustrator 28.7.1, SVG Export Plug-In . SVG Version: 1.2.0 Build 142)  -->
  <g>
    <g id="Layer_1">
      <g>
        <g>
          <path class="cls-1" d="M331.31,87.06l-11.19-44.01h8.55l9.3,38.67h.88l9.3-38.67h8.55l-11.19,44.01h-14.21Z"/>
          <path class="cls-1" d="M369.53,87.94c-2.22,0-4.21-.39-5.97-1.16-1.76-.77-3.15-1.91-4.18-3.39-1.03-1.49-1.54-3.3-1.54-5.44s.51-3.93,1.54-5.38c1.03-1.45,2.45-2.54,4.27-3.27,1.82-.73,3.91-1.1,6.26-1.1h8.55v-1.76c0-1.47-.46-2.67-1.38-3.62-.92-.94-2.39-1.41-4.4-1.41s-3.44.45-4.4,1.35c-.96.9-1.59,2.06-1.89,3.49l-7.29-2.45c.5-1.59,1.31-3.05,2.42-4.37s2.6-2.39,4.46-3.21,4.14-1.23,6.82-1.23c4.11,0,7.36,1.03,9.75,3.08s3.58,5.03,3.58,8.93v11.63c0,1.26.59,1.89,1.76,1.89h2.51v6.54h-5.28c-1.55,0-2.83-.38-3.83-1.13-1.01-.75-1.51-1.76-1.51-3.02v-.06h-1.19c-.17.5-.54,1.16-1.13,1.98-.59.82-1.51,1.54-2.77,2.17-1.26.63-2.98.94-5.16.94ZM370.91,81.53c2.22,0,4.03-.62,5.44-1.85,1.4-1.24,2.11-2.88,2.11-4.94v-.63h-7.98c-1.47,0-2.62.31-3.46.94-.84.63-1.26,1.51-1.26,2.64s.44,2.05,1.32,2.77c.88.71,2.16,1.07,3.83,1.07Z"/>
          <path class="cls-1" d="M395.68,87.06v-44.01h7.92v44.01h-7.92Z"/>
          <path class="cls-1" d="M424.85,87.94c-4.07,0-7.4-.88-10-2.64-2.6-1.76-4.17-4.27-4.71-7.54l7.29-1.89c.29,1.47.79,2.62,1.48,3.46.69.84,1.55,1.44,2.58,1.79,1.03.36,2.15.53,3.36.53,1.84,0,3.21-.32,4.09-.97.88-.65,1.32-1.46,1.32-2.42s-.42-1.71-1.26-2.23c-.84-.52-2.18-.95-4.02-1.29l-1.76-.31c-2.18-.42-4.17-1-5.97-1.73-1.8-.73-3.25-1.75-4.34-3.05-1.09-1.3-1.63-2.98-1.63-5.03,0-3.1,1.13-5.48,3.39-7.14,2.26-1.66,5.24-2.48,8.93-2.48,3.48,0,6.37.78,8.68,2.33,2.3,1.55,3.81,3.58,4.53,6.1l-7.36,2.26c-.34-1.59-1.02-2.72-2.04-3.39-1.03-.67-2.29-1.01-3.8-1.01s-2.66.26-3.46.79c-.8.52-1.19,1.25-1.19,2.17,0,1.01.42,1.75,1.26,2.23.84.48,1.97.85,3.4,1.1l1.76.31c2.35.42,4.47.97,6.38,1.67,1.91.69,3.42,1.68,4.53,2.95,1.11,1.28,1.67,3.01,1.67,5.19,0,3.27-1.18,5.79-3.55,7.58-2.37,1.78-5.54,2.67-9.53,2.67Z"/>
          <path class="cls-1" d="M455.66,87.06c-2.05,0-3.72-.64-5-1.92-1.28-1.28-1.92-2.99-1.92-5.12v-17.6h-7.8v-6.54h7.8v-9.68h7.92v9.68h8.55v6.54h-8.55v16.22c0,1.26.59,1.89,1.76,1.89h6.04v6.54h-8.8Z"/>
          <path class="cls-1" d="M475.27,99.63v-6.92h16.97c1.17,0,1.76-.63,1.76-1.89v-7.86h-1.13c-.34.71-.86,1.43-1.57,2.14-.71.71-1.68,1.3-2.89,1.76-1.22.46-2.77.69-4.65.69-2.43,0-4.56-.55-6.38-1.67-1.82-1.11-3.24-2.65-4.24-4.62-1.01-1.97-1.51-4.23-1.51-6.79v-18.61h7.92v17.98c0,2.35.58,4.11,1.73,5.28,1.15,1.17,2.8,1.76,4.94,1.76,2.43,0,4.32-.81,5.66-2.42,1.34-1.61,2.01-3.87,2.01-6.76v-15.84h7.92v36.71c0,2.14-.63,3.84-1.89,5.12-1.26,1.28-2.93,1.92-5.03,1.92h-19.62Z"/>
          <path class="cls-1" d="M528.84,87.94c-2.81,0-4.97-.48-6.48-1.45-1.51-.96-2.62-2.03-3.33-3.21h-1.13v3.77h-7.8v-44.01h7.92v16.41h1.13c.46-.75,1.08-1.47,1.85-2.14.78-.67,1.8-1.23,3.08-1.67,1.28-.44,2.86-.66,4.75-.66,2.51,0,4.84.62,6.98,1.85,2.14,1.24,3.86,3.05,5.16,5.44,1.3,2.39,1.95,5.28,1.95,8.68v1.01c0,3.4-.65,6.29-1.95,8.68-1.3,2.39-3.02,4.2-5.16,5.44-2.14,1.24-4.46,1.85-6.98,1.85ZM526.45,81.02c2.43,0,4.46-.79,6.1-2.36,1.63-1.57,2.45-3.87,2.45-6.88v-.63c0-3.02-.81-5.31-2.42-6.88-1.61-1.57-3.66-2.36-6.13-2.36s-4.46.79-6.1,2.36-2.45,3.87-2.45,6.88v.63c0,3.02.82,5.31,2.45,6.88,1.63,1.57,3.67,2.36,6.1,2.36Z"/>
          <path class="cls-1" d="M563.92,87.94c-3.1,0-5.84-.66-8.2-1.98-2.37-1.32-4.21-3.18-5.53-5.59s-1.98-5.25-1.98-8.52v-.75c0-3.27.65-6.11,1.95-8.52,1.3-2.41,3.12-4.28,5.47-5.6,2.35-1.32,5.07-1.98,8.17-1.98s5.72.68,7.98,2.04c2.26,1.36,4.02,3.25,5.28,5.66,1.26,2.41,1.89,5.21,1.89,8.39v2.7h-22.7c.08,2.14.88,3.88,2.39,5.22,1.51,1.34,3.35,2.01,5.53,2.01s3.86-.48,4.9-1.45c1.05-.96,1.84-2.03,2.39-3.21l6.48,3.39c-.59,1.09-1.44,2.27-2.55,3.55-1.11,1.28-2.59,2.37-4.43,3.27-1.84.9-4.19,1.35-7.04,1.35ZM556.31,67.88h14.59c-.17-1.8-.89-3.25-2.17-4.34-1.28-1.09-2.95-1.63-5-1.63s-3.83.54-5.09,1.63c-1.26,1.09-2.03,2.54-2.33,4.34ZM563.79,52.23c-1.42,0-2.63-.46-3.62-1.38-.99-.92-1.48-2.14-1.48-3.65s.49-2.72,1.48-3.65c.98-.92,2.19-1.38,3.62-1.38s2.68.46,3.65,1.38c.96.92,1.45,2.14,1.45,3.65s-.48,2.73-1.45,3.65c-.96.92-2.18,1.38-3.65,1.38Z"/>
          <path class="cls-1" d="M598.43,87.94c-4.07,0-7.4-.88-10-2.64-2.6-1.76-4.17-4.27-4.71-7.54l7.29-1.89c.29,1.47.79,2.62,1.48,3.46.69.84,1.55,1.44,2.58,1.79,1.03.36,2.15.53,3.36.53,1.84,0,3.21-.32,4.09-.97.88-.65,1.32-1.46,1.32-2.42s-.42-1.71-1.26-2.23c-.84-.52-2.18-.95-4.02-1.29l-1.76-.31c-2.18-.42-4.17-1-5.97-1.73-1.8-.73-3.25-1.75-4.34-3.05-1.09-1.3-1.63-2.98-1.63-5.03,0-3.1,1.13-5.48,3.39-7.14,2.26-1.66,5.24-2.48,8.93-2.48,3.48,0,6.37.78,8.68,2.33,2.3,1.55,3.81,3.58,4.53,6.1l-7.36,2.26c-.34-1.59-1.02-2.72-2.04-3.39-1.03-.67-2.29-1.01-3.8-1.01s-2.66.26-3.46.79c-.8.52-1.19,1.25-1.19,2.17,0,1.01.42,1.75,1.26,2.23.84.48,1.97.85,3.4,1.1l1.76.31c2.35.42,4.47.97,6.38,1.67,1.91.69,3.42,1.68,4.53,2.95,1.11,1.28,1.67,3.01,1.67,5.19,0,3.27-1.18,5.79-3.55,7.58-2.37,1.78-5.54,2.67-9.53,2.67Z"/>
          <path class="cls-1" d="M335.96,148.38c-2.47,0-4.79-.62-6.95-1.85-2.16-1.24-3.89-3.05-5.19-5.44-1.3-2.39-1.95-5.28-1.95-8.68v-1.01c0-3.39.65-6.29,1.95-8.68,1.3-2.39,3.02-4.2,5.16-5.44,2.14-1.24,4.46-1.85,6.98-1.85,1.89,0,3.47.22,4.75.66,1.28.44,2.32,1,3.11,1.67.8.67,1.4,1.38,1.82,2.14h1.13v-16.41h7.92v44.01h-7.8v-3.77h-1.13c-.71,1.17-1.81,2.24-3.3,3.21-1.49.96-3.66,1.45-6.51,1.45ZM338.35,141.46c2.43,0,4.46-.79,6.1-2.36,1.63-1.57,2.45-3.87,2.45-6.88v-.63c0-3.02-.81-5.31-2.42-6.88s-3.66-2.36-6.13-2.36-4.46.79-6.1,2.36-2.45,3.87-2.45,6.88v.63c0,3.02.82,5.31,2.45,6.88,1.63,1.57,3.67,2.36,6.1,2.36Z"/>
          <path class="cls-1" d="M374.87,148c-2.43,0-4.56-.55-6.38-1.67-1.82-1.11-3.24-2.65-4.24-4.62-1.01-1.97-1.51-4.23-1.51-6.79v-18.61h7.92v17.98c0,2.35.58,4.11,1.73,5.28,1.15,1.17,2.8,1.76,4.94,1.76,2.43,0,4.32-.81,5.66-2.42,1.34-1.61,2.01-3.87,2.01-6.76v-15.84h7.92v31.18h-7.79v-4.09h-1.13c-.5,1.05-1.45,2.08-2.83,3.08-1.38,1.01-3.48,1.51-6.29,1.51Z"/>
          <path class="cls-1" d="M416.05,148.38c-3.1,0-5.89-.63-8.36-1.89s-4.42-3.08-5.85-5.47-2.14-5.26-2.14-8.61v-1.01c0-3.35.71-6.22,2.14-8.61,1.42-2.39,3.37-4.21,5.85-5.47,2.47-1.26,5.26-1.89,8.36-1.89s5.89.63,8.36,1.89c2.47,1.26,4.42,3.08,5.85,5.47,1.42,2.39,2.14,5.26,2.14,8.61v1.01c0,3.35-.71,6.22-2.14,8.61s-3.37,4.21-5.85,5.47c-2.47,1.26-5.26,1.89-8.36,1.89ZM416.05,141.34c2.43,0,4.44-.79,6.04-2.36,1.59-1.57,2.39-3.82,2.39-6.76v-.63c0-2.93-.79-5.19-2.36-6.76-1.57-1.57-3.59-2.36-6.07-2.36s-4.44.79-6.04,2.36c-1.59,1.57-2.39,3.83-2.39,6.76v.63c0,2.93.8,5.19,2.39,6.76,1.59,1.57,3.6,2.36,6.04,2.36Z"/>
          <path class="cls-1" d="M439.19,147.5v-31.18h7.8v3.39h1.13c.54-1.05,1.45-1.96,2.7-2.74,1.26-.77,2.91-1.16,4.97-1.16,2.22,0,4,.43,5.34,1.29,1.34.86,2.37,1.98,3.08,3.36h1.13c.71-1.34,1.72-2.45,3.02-3.33,1.3-.88,3.14-1.32,5.53-1.32,1.93,0,3.68.41,5.25,1.23,1.57.82,2.83,2.05,3.77,3.71.94,1.66,1.42,3.74,1.42,6.26v20.5h-7.92v-19.93c0-1.72-.44-3.01-1.32-3.87-.88-.86-2.12-1.29-3.71-1.29-1.8,0-3.2.58-4.18,1.73-.99,1.15-1.48,2.8-1.48,4.93v18.42h-7.92v-19.93c0-1.72-.44-3.01-1.32-3.87-.88-.86-2.12-1.29-3.71-1.29-1.8,0-3.2.58-4.18,1.73-.99,1.15-1.48,2.8-1.48,4.93v18.42h-7.92Z"/>
          <path class="cls-1" d="M506.58,148.38c-3.1,0-5.84-.66-8.2-1.98-2.37-1.32-4.21-3.18-5.53-5.59s-1.98-5.25-1.98-8.52v-.75c0-3.27.65-6.11,1.95-8.52,1.3-2.41,3.12-4.28,5.47-5.6,2.35-1.32,5.07-1.98,8.17-1.98s5.72.68,7.98,2.04c2.26,1.36,4.02,3.25,5.28,5.66,1.26,2.41,1.89,5.21,1.89,8.39v2.7h-22.7c.08,2.14.88,3.88,2.39,5.22,1.51,1.34,3.35,2.01,5.53,2.01s3.86-.48,4.9-1.45c1.05-.96,1.84-2.03,2.39-3.21l6.48,3.39c-.59,1.09-1.44,2.27-2.55,3.55-1.11,1.28-2.59,2.37-4.43,3.27-1.84.9-4.19,1.35-7.04,1.35ZM498.98,128.33h14.59c-.17-1.8-.89-3.25-2.17-4.34-1.28-1.09-2.95-1.63-5-1.63s-3.83.54-5.09,1.63c-1.26,1.09-2.03,2.54-2.33,4.34Z"/>
          <path class="cls-1" d="M528.15,147.5v-31.18h7.8v4.09h1.13c.5-1.09,1.45-2.13,2.83-3.11,1.38-.98,3.48-1.48,6.29-1.48,2.43,0,4.56.56,6.38,1.67s3.24,2.64,4.24,4.59,1.51,4.22,1.51,6.82v18.61h-7.92v-17.98c0-2.35-.58-4.11-1.73-5.28-1.15-1.17-2.8-1.76-4.94-1.76-2.43,0-4.32.81-5.66,2.42-1.34,1.61-2.01,3.87-2.01,6.76v15.84h-7.92Z"/>
          <path class="cls-1" d="M577.75,148c-2.43,0-4.56-.55-6.38-1.67-1.82-1.11-3.24-2.65-4.24-4.62-1.01-1.97-1.51-4.23-1.51-6.79v-18.61h7.92v17.98c0,2.35.58,4.11,1.73,5.28,1.15,1.17,2.8,1.76,4.94,1.76,2.43,0,4.32-.81,5.66-2.42,1.34-1.61,2.01-3.87,2.01-6.76v-15.84h7.92v31.18h-7.79v-4.09h-1.13c-.5,1.05-1.45,2.08-2.83,3.08-1.38,1.01-3.48,1.51-6.29,1.51ZM592.9,158.19c-1.43,0-2.6-.4-3.52-1.19-.92-.8-1.38-1.84-1.38-3.14,0-.63.05-1.3.16-2.01.1-.71.24-1.4.41-2.07l.82-3.52h5.09l-.63,3.46c-.04.29-.09.6-.16.91-.06.31-.09.62-.09.91,0,.92.48,1.38,1.45,1.38h2.89v5.28h-5.03Z"/>
          <path class="cls-1" d="M337.59,208.82c-3.1,0-5.84-.66-8.2-1.98-2.37-1.32-4.21-3.18-5.53-5.59s-1.98-5.25-1.98-8.52v-.75c0-3.27.65-6.11,1.95-8.52,1.3-2.41,3.12-4.28,5.47-5.6,2.35-1.32,5.07-1.98,8.17-1.98s5.72.68,7.98,2.04c2.26,1.36,4.02,3.25,5.28,5.66,1.26,2.41,1.89,5.21,1.89,8.39v2.7h-22.7c.08,2.14.88,3.88,2.39,5.22,1.51,1.34,3.35,2.01,5.53,2.01s3.86-.48,4.9-1.45c1.05-.96,1.84-2.03,2.39-3.21l6.48,3.39c-.59,1.09-1.44,2.27-2.55,3.55-1.11,1.28-2.59,2.37-4.43,3.27-1.84.9-4.19,1.35-7.04,1.35ZM329.99,188.76h14.59c-.17-1.8-.89-3.25-2.17-4.34-1.28-1.09-2.95-1.63-5-1.63s-3.83.54-5.09,1.63c-1.26,1.09-2.03,2.54-2.33,4.34Z"/>
          <path class="cls-1" d="M357.52,207.94v-9.43l17.1-14.21v-1.01h-16.47v-6.54h25.15v9.43l-17.1,14.21v1.01h17.6v6.54h-26.28ZM365.88,173.24l-7.36-9.3h7.98l3.52,4.65h1.13l3.52-4.65h7.98l-7.36,9.3h-9.43Z"/>
          <path class="cls-1" d="M404.42,208.82c-3.1,0-5.84-.66-8.2-1.98-2.37-1.32-4.21-3.18-5.53-5.59s-1.98-5.25-1.98-8.52v-.75c0-3.27.65-6.11,1.95-8.52,1.3-2.41,3.12-4.28,5.47-5.6,2.35-1.32,5.07-1.98,8.17-1.98s5.72.68,7.98,2.04c2.26,1.36,4.02,3.25,5.28,5.66,1.26,2.41,1.89,5.21,1.89,8.39v2.7h-22.7c.08,2.14.88,3.88,2.39,5.22,1.51,1.34,3.35,2.01,5.53,2.01s3.86-.48,4.9-1.45c1.05-.96,1.84-2.03,2.39-3.21l6.48,3.39c-.59,1.09-1.44,2.27-2.55,3.55-1.11,1.28-2.59,2.37-4.43,3.27-1.84.9-4.19,1.35-7.04,1.35ZM396.82,188.76h14.59c-.17-1.8-.89-3.25-2.17-4.34-1.28-1.09-2.95-1.63-5-1.63s-3.83.54-5.09,1.63c-1.26,1.09-2.03,2.54-2.33,4.34Z"/>
          <path class="cls-1" d="M425.99,207.94v-31.18h7.8v3.52h1.13c.46-1.26,1.23-2.18,2.29-2.77,1.07-.59,2.32-.88,3.74-.88h3.77v7.04h-3.9c-2.01,0-3.67.53-4.97,1.6-1.3,1.07-1.95,2.71-1.95,4.93v17.73h-7.92Z"/>
          <path class="cls-1" d="M459.31,208.82c-2.22,0-4.21-.39-5.97-1.16-1.76-.77-3.15-1.91-4.18-3.39-1.03-1.49-1.54-3.3-1.54-5.44s.51-3.93,1.54-5.38c1.03-1.45,2.45-2.54,4.27-3.27,1.82-.73,3.91-1.1,6.26-1.1h8.55v-1.76c0-1.47-.46-2.67-1.38-3.62-.92-.94-2.39-1.41-4.4-1.41s-3.44.45-4.4,1.35c-.96.9-1.59,2.06-1.89,3.49l-7.29-2.45c.5-1.59,1.31-3.05,2.42-4.37s2.6-2.39,4.46-3.21,4.14-1.23,6.82-1.23c4.11,0,7.36,1.03,9.75,3.08s3.58,5.03,3.58,8.93v11.63c0,1.26.59,1.89,1.76,1.89h2.51v6.54h-5.28c-1.55,0-2.83-.38-3.83-1.13-1.01-.75-1.51-1.76-1.51-3.02v-.06h-1.19c-.17.5-.54,1.16-1.13,1.98-.59.82-1.51,1.54-2.77,2.17-1.26.63-2.98.94-5.16.94ZM460.69,202.41c2.22,0,4.03-.62,5.44-1.85,1.4-1.24,2.11-2.88,2.11-4.94v-.63h-7.98c-1.47,0-2.62.31-3.46.94-.84.63-1.26,1.51-1.26,2.64s.44,2.05,1.32,2.77c.88.71,2.16,1.07,3.83,1.07Z"/>
          <path class="cls-1" d="M498.16,208.82c-4.07,0-7.4-.88-10-2.64-2.6-1.76-4.17-4.27-4.71-7.54l7.29-1.89c.29,1.47.79,2.62,1.48,3.46.69.84,1.55,1.44,2.58,1.79,1.03.36,2.15.53,3.36.53,1.84,0,3.21-.32,4.09-.97.88-.65,1.32-1.46,1.32-2.42s-.42-1.71-1.26-2.23c-.84-.52-2.18-.95-4.02-1.29l-1.76-.31c-2.18-.42-4.17-1-5.97-1.73-1.8-.73-3.25-1.75-4.34-3.05-1.09-1.3-1.63-2.98-1.63-5.03,0-3.1,1.13-5.48,3.39-7.14,2.26-1.66,5.24-2.48,8.93-2.48,3.48,0,6.37.78,8.68,2.33,2.3,1.55,3.81,3.58,4.53,6.1l-7.36,2.26c-.34-1.59-1.02-2.72-2.04-3.39-1.03-.67-2.29-1.01-3.8-1.01s-2.66.26-3.46.79c-.8.52-1.19,1.25-1.19,2.17,0,1.01.42,1.75,1.26,2.23.84.48,1.97.85,3.4,1.1l1.76.31c2.35.42,4.47.97,6.38,1.67,1.91.69,3.42,1.68,4.53,2.95,1.11,1.28,1.67,3.01,1.67,5.19,0,3.27-1.18,5.79-3.55,7.58-2.37,1.78-5.54,2.67-9.53,2.67Z"/>
        </g>
        <g>
          <path class="cls-1" d="M17.3,80.69c15.88,0,28.81,12.92,28.81,28.81,0,9.54,7.76,17.29,17.3,17.29s17.29-7.76,17.29-17.29c0-15.88,12.92-28.81,28.81-28.81,9.54,0,17.3-7.76,17.3-17.3s-7.76-17.29-17.3-17.29-17.29,7.76-17.29,17.29c0,15.89-12.92,28.81-28.8,28.81s-28.81-12.92-28.81-28.81,12.92-28.81,28.81-28.81c9.53,0,17.29-7.76,17.29-17.3S72.93,0,63.4,0s-17.3,7.75-17.3,17.29c0,15.88-12.92,28.81-28.81,28.81C7.76,46.1,0,53.85,0,63.39s7.76,17.3,17.3,17.3Z"/>
          <path class="cls-1" d="M155.6,34.58c9.54,0,17.3-7.76,17.3-17.3S165.13,0,155.6,0s-17.29,7.75-17.29,17.29,7.76,17.3,17.29,17.3Z"/>
          <path class="cls-1" d="M46.1,63.39c0,9.54,7.76,17.3,17.3,17.3s17.29-7.76,17.29-17.3c0-15.88,12.92-28.81,28.81-28.81s28.81,12.92,28.81,28.81c0,9.54,7.76,17.3,17.29,17.3s17.3-7.76,17.3-17.3c0-15.88,12.92-28.81,28.81-28.81,9.53,0,17.29-7.76,17.29-17.3S211.23,0,201.7,0s-17.3,7.75-17.3,17.29c0,15.88-12.92,28.81-28.81,28.81s-28.81-12.92-28.81-28.81c0-9.53-7.76-17.29-17.3-17.29s-17.29,7.75-17.29,17.29c0,15.88-12.92,28.81-28.8,28.81-9.54,0-17.3,7.76-17.3,17.29Z"/>
          <path class="cls-1" d="M155.6,184.4c-9.54,0-17.29,7.76-17.29,17.29s7.76,17.3,17.29,17.3,17.3-7.76,17.3-17.3c0-15.88,12.92-28.81,28.81-28.81,9.53,0,17.29-7.75,17.29-17.29s-7.75-17.3-17.29-17.3c-15.88,0-28.81-12.92-28.81-28.81s12.92-28.81,28.81-28.81c9.53,0,17.29-7.76,17.29-17.3s-7.75-17.29-17.29-17.29-17.3,7.76-17.3,17.29c0,15.89-12.92,28.81-28.81,28.81-9.54,0-17.29,7.76-17.29,17.3s7.76,17.29,17.29,17.29c15.88,0,28.81,12.92,28.81,28.81s-12.92,28.8-28.81,28.8Z"/>
          <path class="cls-1" d="M17.3,126.79c9.54,0,17.29-7.76,17.29-17.29s-7.76-17.3-17.29-17.3S0,99.96,0,109.49s7.76,17.29,17.3,17.29Z"/>
          <path class="cls-1" d="M184.41,109.49c0,9.54,7.76,17.29,17.3,17.29s17.29-7.76,17.29-17.29c0-15.88,12.92-28.81,28.81-28.81,9.54,0,17.3-7.76,17.3-17.3s-7.76-17.29-17.3-17.29-17.3,7.76-17.3,17.29c0,15.89-12.92,28.81-28.8,28.81-9.54,0-17.3,7.76-17.3,17.3Z"/>
          <path class="cls-1" d="M247.8,92.2c-9.54,0-17.3,7.76-17.3,17.3s7.76,17.29,17.3,17.29,17.3-7.76,17.3-17.29-7.76-17.3-17.3-17.3Z"/>
          <path class="cls-1" d="M17.3,172.88c9.54,0,17.29-7.75,17.29-17.29s-7.76-17.3-17.29-17.3S0,146.06,0,155.6s7.76,17.29,17.3,17.29Z"/>
          <path class="cls-1" d="M61.21,230.5c-9.54,0-17.3,7.76-17.3,17.3s7.76,17.29,17.3,17.29,17.29-7.75,17.29-17.29-7.76-17.3-17.29-17.3Z"/>
          <path class="cls-1" d="M92.2,201.7c0,9.53,7.76,17.29,17.3,17.29s17.29-7.75,17.29-17.29-7.76-17.3-17.29-17.3-17.3,7.76-17.3,17.3Z"/>
          <path class="cls-1" d="M155.6,172.88c9.54,0,17.3-7.75,17.3-17.29s-7.76-17.3-17.3-17.3c-15.88,0-28.81-12.92-28.81-28.81,0-9.54-7.76-17.3-17.3-17.3s-17.29,7.76-17.29,17.3c0,15.88-12.92,28.81-28.8,28.81-9.54,0-17.3,7.76-17.3,17.3,0,15.88-12.92,28.8-28.81,28.8-9.54,0-17.3,7.76-17.3,17.29s7.76,17.3,17.3,17.3,17.29-7.76,17.29-17.3c0-15.88,12.92-28.81,28.81-28.81,9.53,0,17.29-7.75,17.29-17.29,0-15.88,12.92-28.81,28.81-28.81s28.81,12.92,28.81,28.81c0,9.53,7.76,17.29,17.29,17.29Z"/>
          <path class="cls-1" d="M109.5,230.5c-15.89,0-28.81-12.92-28.81-28.8,0-.02,0-.04,0-.05.03-15.86,12.94-28.75,28.81-28.75,8.98,0,16.38-6.89,17.21-15.66.05-.54.08-1.09.08-1.64h0c0-8.35-5.94-15.33-13.81-16.94-1.12-.23-2.29-.35-3.48-.35s-2.36.12-3.48.35c-7.87,1.62-13.81,8.6-13.81,16.94,0,15.85-12.87,28.75-28.71,28.81-.03,0-.06,0-.09,0-4.77,0-9.09,1.94-12.23,5.07-3.13,3.13-5.07,7.46-5.07,12.23,0,2.98.76,5.79,2.09,8.24,2.93,5.39,8.65,9.06,15.21,9.06.05,0,.1,0,.15,0,15.8.08,28.62,12.94,28.65,28.75,0,.02,0,.04,0,.06,0,9.54,7.76,17.3,17.29,17.3,4.77,0,9.09-1.94,12.23-5.07,3.13-3.13,5.07-7.46,5.07-12.23,0-9.54-7.76-17.29-17.29-17.29Z"/>
          <path class="cls-1" d="M247.8,138.3c-9.54,0-17.3,7.76-17.3,17.3,0,15.88-12.92,28.8-28.8,28.8-9.54,0-17.3,7.76-17.3,17.29,0,15.89-12.92,28.81-28.81,28.81-9.54,0-17.29,7.76-17.29,17.3s7.76,17.3,17.29,17.3,17.3-7.76,17.3-17.3c0-15.88,12.92-28.81,28.81-28.81,9.53,0,17.29-7.76,17.29-17.3,0-15.88,12.92-28.81,28.81-28.81,9.54,0,17.3-7.75,17.3-17.29s-7.76-17.3-17.3-17.3Z"/>
          <path class="cls-1" d="M247.8,184.4c-9.54,0-17.3,7.76-17.3,17.29,0,15.89-12.92,28.81-28.8,28.81-9.54,0-17.3,7.76-17.3,17.3s7.76,17.3,17.3,17.3,17.29-7.76,17.29-17.3c0-15.88,12.92-28.81,28.81-28.81,9.54,0,17.3-7.76,17.3-17.3s-7.76-17.29-17.3-17.29Z"/>
        </g>
      </g>
    </g>
  </g>
</svg>