<?xml version="1.0" encoding="UTF-8"?>
<svg xmlns="http://www.w3.org/2000/svg" version="1.1" viewBox="0 0 437.95 192.82">
  <defs>
    <style>
      .cls-1 {
        fill: #fff;
      }
    </style>
  </defs>
  <!-- Generator: Adobe Illustrator 28.7.1, SVG Export Plug-In . SVG Version: 1.2.0 Build 142)  -->
  <g>
    <g id="Layer_1">
      <g>
        <g>
          <path class="cls-1" d="M257.33,62.33l-7.21-28.37h5.51l6,24.92h.57l6-24.92h5.51l-7.21,28.37h-9.16Z"/>
          <path class="cls-1" d="M281.97,62.89c-1.43,0-2.71-.25-3.85-.75-1.13-.5-2.03-1.23-2.7-2.19s-.99-2.13-.99-3.51.33-2.53.99-3.47c.66-.93,1.58-1.63,2.76-2.11,1.17-.47,2.52-.71,4.03-.71h5.51v-1.13c0-.95-.3-1.72-.89-2.33-.59-.61-1.54-.91-2.84-.91s-2.22.29-2.84.87c-.62.58-1.03,1.33-1.22,2.25l-4.7-1.58c.32-1.03.84-1.97,1.56-2.82s1.67-1.54,2.88-2.07,2.67-.79,4.4-.79c2.65,0,4.74.66,6.28,1.99,1.54,1.32,2.31,3.24,2.31,5.75v7.5c0,.81.38,1.22,1.13,1.22h1.62v4.21h-3.4c-1,0-1.82-.24-2.47-.73s-.97-1.13-.97-1.95v-.04h-.77c-.11.32-.35.75-.73,1.28-.38.53-.97.99-1.78,1.4-.81.41-1.92.61-3.32.61ZM282.86,58.76c1.43,0,2.6-.4,3.5-1.2.91-.8,1.36-1.86,1.36-3.18v-.41h-5.15c-.95,0-1.69.2-2.23.61-.54.41-.81.97-.81,1.7s.28,1.32.85,1.78c.57.46,1.39.69,2.47.69Z"/>
          <path class="cls-1" d="M298.83,62.33v-28.37h5.11v28.37h-5.11Z"/>
          <path class="cls-1" d="M317.63,62.89c-2.62,0-4.77-.57-6.44-1.7-1.68-1.13-2.69-2.76-3.04-4.86l4.7-1.22c.19.95.51,1.69.95,2.23.45.54,1,.93,1.66,1.15.66.23,1.38.34,2.17.34,1.19,0,2.07-.21,2.63-.63.57-.42.85-.94.85-1.56s-.27-1.1-.81-1.44c-.54-.34-1.41-.61-2.59-.83l-1.13-.2c-1.41-.27-2.69-.64-3.85-1.11-1.16-.47-2.09-1.13-2.8-1.97-.7-.84-1.05-1.92-1.05-3.24,0-2,.73-3.53,2.19-4.6,1.46-1.07,3.38-1.6,5.75-1.6,2.24,0,4.11.5,5.59,1.5,1.49,1,2.46,2.31,2.92,3.93l-4.74,1.46c-.22-1.03-.66-1.76-1.32-2.19-.66-.43-1.48-.65-2.45-.65s-1.72.17-2.23.51c-.51.34-.77.8-.77,1.4,0,.65.27,1.13.81,1.44.54.31,1.27.55,2.19.71l1.13.2c1.51.27,2.88.63,4.11,1.07s2.2,1.08,2.92,1.9c.72.82,1.07,1.94,1.07,3.34,0,2.11-.76,3.74-2.29,4.88-1.53,1.15-3.57,1.72-6.14,1.72Z"/>
          <path class="cls-1" d="M337.49,62.33c-1.32,0-2.4-.41-3.22-1.24-.82-.82-1.24-1.93-1.24-3.3v-11.35h-5.03v-4.21h5.03v-6.24h5.11v6.24h5.51v4.21h-5.51v10.46c0,.81.38,1.22,1.13,1.22h3.89v4.21h-5.67Z"/>
          <path class="cls-1" d="M350.13,70.43v-4.46h10.94c.76,0,1.13-.41,1.13-1.22v-5.07h-.73c-.22.46-.55.92-1.01,1.38s-1.08.84-1.86,1.13c-.78.3-1.78.45-3,.45-1.57,0-2.94-.36-4.11-1.07-1.18-.72-2.09-1.71-2.74-2.98-.65-1.27-.97-2.73-.97-4.38v-12h5.11v11.59c0,1.51.37,2.65,1.11,3.4.74.76,1.8,1.13,3.18,1.13,1.57,0,2.78-.52,3.65-1.56.86-1.04,1.3-2.49,1.3-4.36v-10.21h5.11v23.67c0,1.38-.41,2.48-1.22,3.3-.81.82-1.89,1.24-3.24,1.24h-12.64Z"/>
          <path class="cls-1" d="M384.66,62.89c-1.81,0-3.2-.31-4.17-.93s-1.69-1.31-2.15-2.07h-.73v2.43h-5.03v-28.37h5.11v10.58h.73c.3-.49.7-.95,1.2-1.38.5-.43,1.16-.79,1.99-1.07.82-.28,1.84-.43,3.06-.43,1.62,0,3.12.4,4.5,1.2s2.49,1.97,3.32,3.51c.84,1.54,1.26,3.4,1.26,5.59v.65c0,2.19-.42,4.05-1.26,5.59-.84,1.54-1.95,2.71-3.32,3.51-1.38.8-2.88,1.2-4.5,1.2ZM383.12,58.44c1.57,0,2.88-.51,3.93-1.52s1.58-2.49,1.58-4.44v-.41c0-1.95-.52-3.42-1.56-4.44s-2.36-1.52-3.95-1.52-2.88.51-3.93,1.52c-1.05,1.01-1.58,2.49-1.58,4.44v.41c0,1.95.53,3.42,1.58,4.44,1.05,1.01,2.36,1.52,3.93,1.52Z"/>
          <path class="cls-1" d="M407.27,62.89c-2,0-3.76-.43-5.29-1.28-1.53-.85-2.72-2.05-3.57-3.61-.85-1.55-1.28-3.38-1.28-5.49v-.49c0-2.11.42-3.94,1.26-5.49.84-1.55,2.01-2.76,3.53-3.61,1.51-.85,3.27-1.28,5.27-1.28s3.69.44,5.15,1.32,2.59,2.09,3.4,3.65c.81,1.55,1.22,3.36,1.22,5.41v1.74h-14.63c.05,1.38.57,2.5,1.54,3.36s2.16,1.3,3.57,1.3,2.49-.31,3.16-.93c.67-.62,1.19-1.31,1.54-2.07l4.17,2.19c-.38.7-.93,1.47-1.64,2.29-.72.82-1.67,1.53-2.86,2.11-1.19.58-2.7.87-4.54.87ZM402.37,49.97h9.4c-.11-1.16-.58-2.09-1.4-2.8-.82-.7-1.9-1.05-3.22-1.05s-2.47.35-3.28,1.05-1.31,1.63-1.5,2.8ZM407.19,39.88c-.92,0-1.7-.3-2.33-.89-.63-.59-.95-1.38-.95-2.35s.32-1.76.95-2.35c.63-.59,1.41-.89,2.33-.89s1.73.3,2.35.89c.62.59.93,1.38.93,2.35s-.31,1.76-.93,2.35c-.62.59-1.41.89-2.35.89Z"/>
          <path class="cls-1" d="M429.52,62.89c-2.62,0-4.77-.57-6.44-1.7-1.68-1.13-2.69-2.76-3.04-4.86l4.7-1.22c.19.95.51,1.69.95,2.23.45.54,1,.93,1.66,1.15.66.23,1.38.34,2.17.34,1.19,0,2.07-.21,2.63-.63.57-.42.85-.94.85-1.56s-.27-1.1-.81-1.44c-.54-.34-1.41-.61-2.59-.83l-1.13-.2c-1.4-.27-2.69-.64-3.85-1.11-1.16-.47-2.09-1.13-2.8-1.97-.7-.84-1.05-1.92-1.05-3.24,0-2,.73-3.53,2.19-4.6,1.46-1.07,3.38-1.6,5.75-1.6,2.24,0,4.11.5,5.59,1.5,1.49,1,2.46,2.31,2.92,3.93l-4.74,1.46c-.22-1.03-.65-1.76-1.32-2.19s-1.48-.65-2.45-.65-1.72.17-2.23.51c-.51.34-.77.8-.77,1.4,0,.65.27,1.13.81,1.44.54.31,1.27.55,2.19.71l1.13.2c1.51.27,2.88.63,4.11,1.07s2.2,1.08,2.92,1.9c.72.82,1.07,1.94,1.07,3.34,0,2.11-.76,3.74-2.29,4.88-1.53,1.15-3.57,1.72-6.14,1.72Z"/>
          <path class="cls-1" d="M260.33,101.85c-1.59,0-3.09-.4-4.48-1.2-1.39-.8-2.51-1.97-3.34-3.51-.84-1.54-1.26-3.4-1.26-5.59v-.65c0-2.19.42-4.05,1.26-5.59.84-1.54,1.95-2.71,3.32-3.51,1.38-.8,2.88-1.2,4.5-1.2,1.22,0,2.24.14,3.06.43.82.28,1.49.64,2.01,1.07.51.43.91.89,1.17,1.38h.73v-10.58h5.11v28.37h-5.03v-2.43h-.73c-.46.76-1.17,1.45-2.13,2.07s-2.36.93-4.19.93ZM261.87,97.4c1.57,0,2.88-.51,3.93-1.52s1.58-2.49,1.58-4.44v-.41c0-1.95-.52-3.42-1.56-4.44s-2.36-1.52-3.95-1.52-2.88.51-3.93,1.52c-1.05,1.01-1.58,2.49-1.58,4.44v.41c0,1.95.53,3.42,1.58,4.44,1.05,1.01,2.36,1.52,3.93,1.52Z"/>
          <path class="cls-1" d="M285.41,101.61c-1.57,0-2.94-.36-4.11-1.07-1.17-.72-2.09-1.71-2.74-2.98-.65-1.27-.97-2.73-.97-4.38v-12h5.11v11.59c0,1.51.37,2.65,1.11,3.4s1.8,1.13,3.18,1.13c1.57,0,2.78-.52,3.65-1.56.86-1.04,1.3-2.49,1.3-4.36v-10.21h5.11v20.1h-5.03v-2.63h-.73c-.32.68-.93,1.34-1.82,1.99s-2.24.97-4.05.97Z"/>
          <path class="cls-1" d="M311.96,101.85c-2,0-3.8-.41-5.39-1.22s-2.85-1.99-3.77-3.53c-.92-1.54-1.38-3.39-1.38-5.55v-.65c0-2.16.46-4.01,1.38-5.55.92-1.54,2.17-2.72,3.77-3.53s3.39-1.22,5.39-1.22,3.79.41,5.39,1.22c1.59.81,2.85,1.99,3.77,3.53.92,1.54,1.38,3.39,1.38,5.55v.65c0,2.16-.46,4.01-1.38,5.55-.92,1.54-2.17,2.72-3.77,3.53-1.59.81-3.39,1.22-5.39,1.22ZM311.96,97.31c1.57,0,2.86-.51,3.89-1.52,1.03-1.01,1.54-2.46,1.54-4.36v-.41c0-1.89-.51-3.34-1.52-4.36-1.01-1.01-2.32-1.52-3.91-1.52s-2.86.51-3.89,1.52c-1.03,1.01-1.54,2.47-1.54,4.36v.41c0,1.89.51,3.34,1.54,4.36,1.03,1.01,2.32,1.52,3.89,1.52Z"/>
          <path class="cls-1" d="M326.87,101.29v-20.1h5.02v2.19h.73c.35-.68.93-1.26,1.74-1.76s1.88-.75,3.2-.75c1.43,0,2.58.28,3.45.83.86.55,1.53,1.28,1.99,2.17h.73c.46-.86,1.11-1.58,1.95-2.15.84-.57,2.03-.85,3.57-.85,1.24,0,2.37.26,3.38.79,1.01.53,1.82,1.32,2.43,2.39.61,1.07.91,2.41.91,4.03v13.21h-5.11v-12.85c0-1.11-.28-1.94-.85-2.49-.57-.55-1.36-.83-2.39-.83-1.16,0-2.06.37-2.7,1.11-.63.74-.95,1.8-.95,3.18v11.87h-5.11v-12.85c0-1.11-.28-1.94-.85-2.49-.57-.55-1.36-.83-2.39-.83-1.16,0-2.06.37-2.69,1.11-.64.74-.95,1.8-.95,3.18v11.87h-5.11Z"/>
          <path class="cls-1" d="M370.31,101.85c-2,0-3.76-.43-5.29-1.28-1.53-.85-2.72-2.05-3.57-3.61-.85-1.55-1.28-3.38-1.28-5.49v-.49c0-2.11.42-3.94,1.26-5.49.84-1.55,2.01-2.76,3.53-3.61,1.51-.85,3.27-1.28,5.27-1.28s3.69.44,5.15,1.32c1.46.88,2.59,2.09,3.4,3.65.81,1.55,1.22,3.36,1.22,5.41v1.74h-14.63c.05,1.38.57,2.5,1.54,3.36s2.16,1.3,3.57,1.3,2.49-.31,3.16-.93c.67-.62,1.19-1.31,1.54-2.07l4.17,2.19c-.38.7-.93,1.47-1.64,2.29-.72.82-1.67,1.53-2.86,2.11-1.19.58-2.7.87-4.54.87ZM365.41,88.93h9.4c-.11-1.16-.57-2.09-1.4-2.8-.83-.7-1.9-1.05-3.22-1.05s-2.47.35-3.28,1.05-1.31,1.63-1.5,2.8Z"/>
          <path class="cls-1" d="M384.21,101.29v-20.1h5.02v2.63h.73c.32-.7.93-1.37,1.82-2.01s2.24-.95,4.05-.95c1.57,0,2.94.36,4.11,1.07,1.17.72,2.09,1.7,2.74,2.96.65,1.26.97,2.72.97,4.4v12h-5.11v-11.59c0-1.51-.37-2.65-1.11-3.4-.74-.76-1.8-1.13-3.18-1.13-1.57,0-2.78.52-3.65,1.56-.87,1.04-1.3,2.49-1.3,4.36v10.21h-5.11Z"/>
          <path class="cls-1" d="M416.19,101.61c-1.57,0-2.94-.36-4.11-1.07-1.18-.72-2.09-1.71-2.74-2.98-.65-1.27-.97-2.73-.97-4.38v-12h5.11v11.59c0,1.51.37,2.65,1.11,3.4s1.8,1.13,3.18,1.13c1.57,0,2.78-.52,3.65-1.56.86-1.04,1.3-2.49,1.3-4.36v-10.21h5.11v20.1h-5.02v-2.63h-.73c-.32.68-.93,1.34-1.82,1.99s-2.24.97-4.05.97ZM425.95,108.18c-.92,0-1.67-.26-2.27-.77-.59-.51-.89-1.19-.89-2.03,0-.41.03-.84.1-1.3.07-.46.16-.91.26-1.34l.53-2.27h3.28l-.41,2.23c-.03.19-.06.38-.1.59-.04.2-.06.4-.06.59,0,.59.31.89.93.89h1.86v3.4h-3.24Z"/>
          <path class="cls-1" d="M258.46,140.81c-1.43,0-2.71-.25-3.85-.75-1.13-.5-2.03-1.23-2.7-2.19s-.99-2.13-.99-3.51.33-2.53.99-3.47c.66-.93,1.58-1.63,2.76-2.11s2.52-.71,4.03-.71h5.51v-1.13c0-.95-.3-1.72-.89-2.33-.59-.61-1.54-.91-2.84-.91s-2.22.29-2.84.87c-.62.58-1.03,1.33-1.22,2.25l-4.7-1.58c.32-1.03.84-1.97,1.56-2.82s1.67-1.54,2.88-2.07,2.67-.79,4.4-.79c2.65,0,4.74.66,6.28,1.99,1.54,1.32,2.31,3.24,2.31,5.75v7.5c0,.81.38,1.22,1.13,1.22h1.62v4.21h-3.4c-1,0-1.82-.24-2.47-.73s-.97-1.13-.97-1.95v-.04h-.77c-.11.32-.35.75-.73,1.28-.38.53-.97.99-1.78,1.4s-1.92.61-3.32.61ZM259.35,136.68c1.43,0,2.6-.4,3.51-1.2.9-.8,1.36-1.86,1.36-3.18v-.41h-5.15c-.95,0-1.69.2-2.23.61s-.81.97-.81,1.7.28,1.32.85,1.78c.57.46,1.39.69,2.47.69Z"/>
          <path class="cls-1" d="M273.94,130.28v-.65c0-2.11.42-3.91,1.26-5.41s1.95-2.65,3.34-3.44,2.91-1.2,4.56-1.2c1.84,0,3.23.32,4.17.97.95.65,1.63,1.32,2.07,2.03h.73v-2.43h5.03v23.67c0,1.38-.41,2.48-1.22,3.3-.81.82-1.89,1.24-3.24,1.24h-13.45v-4.46h11.67c.76,0,1.13-.41,1.13-1.22v-5.23h-.73c-.27.43-.65.87-1.13,1.32s-1.13.82-1.95,1.11c-.81.3-1.84.45-3.08.45-1.65,0-3.17-.4-4.56-1.2s-2.51-1.95-3.34-3.44-1.26-3.3-1.26-5.41ZM284.56,135.87c1.57,0,2.88-.5,3.93-1.5s1.58-2.4,1.58-4.21v-.41c0-1.84-.52-3.25-1.56-4.23-1.04-.99-2.36-1.48-3.95-1.48s-2.88.49-3.93,1.48c-1.05.99-1.58,2.4-1.58,4.23v.41c0,1.81.53,3.22,1.58,4.21s2.36,1.5,3.93,1.5Z"/>
          <path class="cls-1" d="M309.6,140.81c-2,0-3.76-.43-5.29-1.28-1.53-.85-2.72-2.05-3.57-3.61-.85-1.55-1.28-3.38-1.28-5.49v-.49c0-2.11.42-3.94,1.26-5.49.84-1.55,2.01-2.76,3.53-3.61,1.51-.85,3.27-1.28,5.27-1.28s3.69.44,5.15,1.32,2.59,2.09,3.4,3.65c.81,1.55,1.21,3.36,1.21,5.41v1.74h-14.63c.05,1.38.57,2.5,1.54,3.36s2.16,1.3,3.57,1.3,2.49-.31,3.16-.93c.67-.62,1.19-1.31,1.54-2.07l4.17,2.19c-.38.7-.93,1.47-1.64,2.29-.72.82-1.67,1.53-2.86,2.11-1.19.58-2.7.87-4.54.87ZM304.7,127.89h9.4c-.11-1.16-.58-2.09-1.4-2.8-.82-.7-1.9-1.05-3.22-1.05s-2.47.35-3.28,1.05-1.31,1.63-1.5,2.8Z"/>
          <path class="cls-1" d="M323.5,140.25v-20.1h5.03v2.63h.73c.32-.7.93-1.37,1.82-2.01s2.24-.95,4.05-.95c1.57,0,2.94.36,4.11,1.07s2.09,1.7,2.74,2.96.97,2.72.97,4.4v12h-5.11v-11.59c0-1.51-.37-2.65-1.11-3.4s-1.8-1.13-3.18-1.13c-1.57,0-2.78.52-3.65,1.56-.87,1.04-1.3,2.49-1.3,4.36v10.21h-5.11Z"/>
          <path class="cls-1" d="M355.28,140.25c-1.32,0-2.4-.41-3.22-1.24-.82-.82-1.24-1.93-1.24-3.3v-11.35h-5.03v-4.21h5.03v-6.24h5.11v6.24h5.51v4.21h-5.51v10.46c0,.81.38,1.22,1.13,1.22h3.89v4.21h-5.67Z"/>
          <path class="cls-1" d="M373.39,140.57c-1.57,0-2.94-.36-4.11-1.07-1.18-.72-2.09-1.71-2.74-2.98-.65-1.27-.97-2.73-.97-4.38v-12h5.11v11.59c0,1.51.37,2.65,1.11,3.4.74.76,1.8,1.13,3.18,1.13,1.57,0,2.78-.52,3.65-1.56.86-1.04,1.3-2.49,1.3-4.36v-10.21h5.11v20.1h-5.03v-2.63h-.73c-.32.68-.93,1.34-1.82,1.99s-2.24.97-4.05.97ZM368.65,117.31v-4.05h13.29v4.05h-13.29Z"/>
          <path class="cls-1" d="M390.37,140.25v-20.1h5.03v2.27h.73c.3-.81.79-1.4,1.48-1.78.69-.38,1.49-.57,2.41-.57h2.43v4.54h-2.51c-1.3,0-2.36.34-3.2,1.03-.84.69-1.26,1.75-1.26,3.18v11.43h-5.11Z"/>
          <path class="cls-1" d="M411.85,140.81c-1.43,0-2.72-.25-3.85-.75-1.13-.5-2.03-1.23-2.69-2.19-.66-.96-.99-2.13-.99-3.51s.33-2.53.99-3.47c.66-.93,1.58-1.63,2.76-2.11,1.17-.47,2.52-.71,4.03-.71h5.51v-1.13c0-.95-.3-1.72-.89-2.33s-1.54-.91-2.84-.91-2.21.29-2.84.87c-.62.58-1.03,1.33-1.22,2.25l-4.7-1.58c.32-1.03.84-1.97,1.56-2.82s1.68-1.54,2.88-2.07,2.67-.79,4.4-.79c2.65,0,4.74.66,6.28,1.99,1.54,1.32,2.31,3.24,2.31,5.75v7.5c0,.81.38,1.22,1.13,1.22h1.62v4.21h-3.4c-1,0-1.82-.24-2.47-.73s-.97-1.13-.97-1.95v-.04h-.77c-.11.32-.35.75-.73,1.28-.38.53-.97.99-1.78,1.4s-1.92.61-3.32.61ZM412.74,136.68c1.43,0,2.6-.4,3.51-1.2.9-.8,1.36-1.86,1.36-3.18v-.41h-5.15c-.95,0-1.69.2-2.23.61-.54.41-.81.97-.81,1.7s.28,1.32.85,1.78c.57.46,1.39.69,2.47.69Z"/>
        </g>
        <path class="cls-1" d="M81.93,90.74c1.36-6.79-4.46-12.69-11.25-11.4-3.74.71-6.8,3.77-7.52,7.51-1.29,6.72,4.43,12.53,11.17,11.33,3.75-.67,6.84-3.7,7.6-7.44Z"/>
        <path class="cls-1" d="M55.34,117.29c1.31-6.79-4.57-12.62-11.36-11.28-3.74.74-6.78,3.83-7.45,7.58-1.2,6.74,4.56,12.46,11.27,11.2,3.74-.71,6.81-3.76,7.53-7.5Z"/>
        <path class="cls-1" d="M52.84,55.29c-3.76-3.76-9.88-3.76-13.65,0-6.27,6.27-16.46,6.27-22.73,0-3.76-3.76-9.88-3.76-13.65,0-3.76,3.76-3.76,9.88,0,13.65,3.76,3.76,9.88,3.76,13.64,0,6.27-6.27,16.46-6.27,22.73,0,3.76,3.76,9.88,3.76,13.65,0,3.76-3.76,3.76-9.88,0-13.65Z"/>
        <path class="cls-1" d="M142.42,55.29c-3.76-3.76-9.18-4.4-12.95-.63-6.27,6.27-17.16,6.9-23.43.64-3.76-3.76-9.88-3.76-13.65,0-3.76,3.76-3.76,9.88,0,13.65,3.76,3.76,9.88,3.76,13.64,0,6.27-6.27,17.16-5.63,23.43.63,3.76,3.76,9.18,3.13,12.95-.63,3.76-3.76,3.76-9.88,0-13.65Z"/>
        <path class="cls-1" d="M152.41,81.93c-3.76-3.76-9.88-3.76-13.65,0-6.27,6.27-16.46,6.27-22.73,0-3.76-3.76-9.88-3.76-13.65,0-3.76,3.76-3.76,9.88,0,13.65,3.76,3.76,9.88,3.76,13.64,0,6.27-6.27,16.46-6.27,22.73,0,3.76,3.76,9.88,3.76,13.65,0,3.76-3.76,3.76-9.88,0-13.65Z"/>
        <circle class="cls-1" cx="72.56" cy="88.75" r="9.67"/>
        <circle class="cls-1" cx="45.93" cy="115.38" r="9.67"/>
        <path class="cls-1" d="M142.53,108.55c-3.76-3.76-9.88-3.76-13.65,0-6.27,6.27-16.46,6.27-22.73,0-3.76-3.76-9.88-3.76-13.65,0-3.76,3.76-3.76,9.88,0,13.65,3.76,3.76,9.88,3.76,13.64,0,6.27-6.27,16.46-6.27,22.73,0,3.76,3.76,9.88,3.76,13.65,0,3.76-3.76,3.76-9.88,0-13.65Z"/>
        <path class="cls-1" d="M203.49,0H55.24c-6.57,0-11.9,5.33-11.9,11.9v27.4c0,1.64,1.33,2.98,2.98,2.98h0c1.64,0,2.98-1.33,2.98-2.98V11.9c0-3.28,2.66-5.94,5.94-5.94h55.78c10.14,0,18.36,8.22,18.36,18.36v162.56h0c-33.52,0-62.22-20.61-74.15-49.84-.46-1.12-1.53-1.87-2.75-1.87-2.14,0-3.56,2.17-2.75,4.15,12.83,31.39,43.65,53.52,79.65,53.52h0c47.51,0,86.03-38.52,86.03-86.03V11.91c0-6.58-5.33-11.91-11.91-11.91Z"/>
      </g>
    </g>
  </g>
</svg>