<?xml version="1.0" encoding="UTF-8"?>
<svg id="Layer_1" xmlns="http://www.w3.org/2000/svg" viewBox="0 0 680.02 299.4">
  <defs>
    <style>
      .cls-1 {
        fill: #fff;
      }
    </style>
  </defs>
  <polygon class="cls-1" points="407.12 91.43 406.24 91.43 396.93 52.73 388.37 52.73 399.57 96.78 413.79 96.78 424.99 52.73 416.43 52.73 407.12 91.43"/>
  <path class="cls-1" d="M438.2,77.9c-2.35,0-4.44.37-6.26,1.1-1.82.73-3.25,1.82-4.28,3.27-1.03,1.45-1.54,3.24-1.54,5.38s.51,3.95,1.54,5.44,2.42,2.62,4.19,3.4c1.76.78,3.75,1.16,5.98,1.16s3.9-.31,5.16-.94c1.26-.63,2.18-1.35,2.77-2.17.59-.82.96-1.48,1.13-1.98h1.19v.06c0,1.26.5,2.27,1.51,3.02s2.29,1.13,3.84,1.13h5.29v-6.54h-2.52c-1.18,0-1.76-.63-1.76-1.89v-11.64c0-3.9-1.2-6.88-3.59-8.94-2.39-2.05-5.64-3.08-9.75-3.08-2.68,0-4.96.41-6.83,1.23-1.87.82-3.36,1.89-4.47,3.21-1.11,1.32-1.92,2.78-2.42,4.37l7.3,2.45c.29-1.43.92-2.59,1.89-3.49.96-.9,2.43-1.35,4.41-1.35s3.48.47,4.41,1.42c.92.94,1.38,2.15,1.38,3.62v1.76h-8.56ZM446.76,84.45c0,2.06-.7,3.7-2.11,4.94-1.41,1.24-3.22,1.86-5.44,1.86-1.68,0-2.96-.36-3.84-1.07-.88-.71-1.32-1.64-1.32-2.77s.42-2.01,1.26-2.64c.84-.63,1.99-.94,3.46-.94h7.99v.63Z"/>
  <rect class="cls-1" x="464" y="52.73" width="7.93" height="44.05"/>
  <path class="cls-1" d="M497.29,90.39c-.88.65-2.25.98-4.09.98-1.22,0-2.34-.18-3.37-.53-1.03-.36-1.89-.95-2.58-1.79-.69-.84-1.19-1.99-1.48-3.46l-7.3,1.89c.54,3.27,2.12,5.79,4.72,7.55,2.6,1.76,5.94,2.64,10.01,2.64s7.16-.89,9.53-2.67c2.37-1.78,3.56-4.31,3.56-7.58,0-2.18-.56-3.91-1.67-5.19-1.11-1.28-2.62-2.26-4.53-2.96-1.91-.69-4.04-1.25-6.39-1.67l-1.76-.31c-1.43-.25-2.56-.62-3.4-1.1-.84-.48-1.26-1.23-1.26-2.23,0-.92.4-1.65,1.2-2.17.8-.52,1.95-.79,3.46-.79s2.78.34,3.81,1.01c1.03.67,1.71,1.8,2.05,3.4l7.36-2.26c-.71-2.52-2.22-4.55-4.53-6.1-2.31-1.55-5.2-2.33-8.68-2.33-3.69,0-6.67.83-8.94,2.49-2.27,1.66-3.4,4.04-3.4,7.14,0,2.06.54,3.73,1.64,5.03,1.09,1.3,2.54,2.32,4.34,3.05,1.8.73,3.8,1.31,5.98,1.73l1.76.31c1.85.34,3.19.77,4.03,1.29.84.53,1.26,1.27,1.26,2.23s-.44,1.77-1.32,2.42Z"/>
  <path class="cls-1" d="M517.11,89.73c0,2.14.64,3.85,1.92,5.13,1.28,1.28,2.95,1.92,5,1.92h8.81v-6.54h-6.04c-1.18,0-1.76-.63-1.76-1.89v-16.23h8.56v-6.54h-8.56v-9.69h-7.93v9.69h-7.8v6.54h7.8v17.62Z"/>
  <path class="cls-1" d="M545.77,95.62c1.83,1.11,3.95,1.67,6.39,1.67,1.89,0,3.44-.23,4.66-.69,1.22-.46,2.18-1.05,2.89-1.76.71-.71,1.24-1.43,1.57-2.14h1.13v7.87c0,1.26-.59,1.89-1.76,1.89h-16.99v6.92h19.63c2.1,0,3.78-.64,5.03-1.92,1.26-1.28,1.89-2.99,1.89-5.13v-36.75h-7.93v15.86c0,2.89-.67,5.15-2.01,6.76-1.34,1.62-3.23,2.42-5.66,2.42-2.14,0-3.79-.59-4.94-1.76-1.15-1.17-1.73-2.94-1.73-5.29v-18h-7.93v18.63c0,2.56.5,4.82,1.51,6.8,1.01,1.97,2.42,3.51,4.25,4.63Z"/>
  <path class="cls-1" d="M586.33,93.01h1.13c.71,1.18,1.83,2.24,3.34,3.21s3.67,1.45,6.48,1.45c2.52,0,4.85-.62,6.98-1.86,2.14-1.24,3.86-3.05,5.16-5.44,1.3-2.39,1.95-5.29,1.95-8.68v-1.01c0-3.4-.65-6.29-1.95-8.68-1.3-2.39-3.02-4.21-5.16-5.44-2.14-1.24-4.47-1.86-6.98-1.86-1.89,0-3.47.22-4.75.66-1.28.44-2.31,1-3.08,1.67-.78.67-1.4,1.38-1.86,2.14h-1.13v-16.42h-7.93v44.05h7.8v-3.78ZM586.33,80.86c0-3.02.82-5.32,2.45-6.89,1.64-1.57,3.67-2.36,6.1-2.36s4.52.79,6.14,2.36c1.61,1.57,2.42,3.87,2.42,6.89v.63c0,3.02-.82,5.32-2.45,6.89-1.63,1.57-3.67,2.36-6.1,2.36s-4.47-.79-6.1-2.36c-1.64-1.57-2.45-3.87-2.45-6.89v-.63Z"/>
  <path class="cls-1" d="M632.26,61.92c1.47,0,2.68-.46,3.65-1.38.96-.92,1.45-2.14,1.45-3.65s-.48-2.73-1.45-3.65c-.97-.92-2.18-1.38-3.65-1.38s-2.63.46-3.62,1.38c-.99.92-1.48,2.14-1.48,3.65s.49,2.73,1.48,3.65c.99.92,2.19,1.38,3.62,1.38Z"/>
  <path class="cls-1" d="M624.18,95.68c2.37,1.32,5.11,1.98,8.21,1.98,2.85,0,5.2-.45,7.05-1.35,1.84-.9,3.32-1.99,4.44-3.27,1.11-1.28,1.96-2.46,2.55-3.56l-6.48-3.4c-.55,1.17-1.34,2.24-2.39,3.21-1.05.97-2.68,1.45-4.91,1.45s-4.03-.67-5.54-2.01c-1.51-1.34-2.31-3.08-2.39-5.22h22.72v-2.71c0-3.19-.63-5.99-1.89-8.4-1.26-2.41-3.02-4.3-5.29-5.66-2.27-1.36-4.93-2.05-7.99-2.05s-5.83.66-8.18,1.98c-2.35,1.32-4.17,3.19-5.47,5.6-1.3,2.41-1.95,5.25-1.95,8.53v.76c0,3.27.66,6.11,1.98,8.53,1.32,2.41,3.17,4.28,5.54,5.6ZM627.1,73.25c1.26-1.09,2.96-1.64,5.1-1.64s3.72.55,5,1.64c1.28,1.09,2,2.54,2.17,4.34h-14.6c.29-1.8,1.07-3.25,2.33-4.34Z"/>
  <path class="cls-1" d="M678.36,82.21c-1.11-1.28-2.62-2.26-4.53-2.96-1.91-.69-4.04-1.25-6.39-1.67l-1.76-.31c-1.43-.25-2.56-.62-3.4-1.1-.84-.48-1.26-1.23-1.26-2.23,0-.92.4-1.65,1.19-2.17.8-.52,1.95-.79,3.46-.79s2.78.34,3.81,1.01c1.03.67,1.71,1.8,2.05,3.4l7.36-2.26c-.71-2.52-2.22-4.55-4.53-6.1-2.31-1.55-5.2-2.33-8.68-2.33-3.69,0-6.67.83-8.94,2.49-2.27,1.66-3.4,4.04-3.4,7.14,0,2.06.54,3.73,1.64,5.03,1.09,1.3,2.54,2.32,4.34,3.05,1.8.73,3.8,1.31,5.98,1.73l1.76.31c1.85.34,3.19.77,4.03,1.29.84.53,1.26,1.27,1.26,2.23s-.44,1.77-1.32,2.42c-.88.65-2.24.98-4.09.98-1.22,0-2.34-.18-3.37-.53-1.03-.36-1.89-.95-2.58-1.79-.69-.84-1.19-1.99-1.48-3.46l-7.3,1.89c.54,3.27,2.12,5.79,4.72,7.55,2.6,1.76,5.94,2.64,10,2.64s7.16-.89,9.53-2.67c2.37-1.78,3.56-4.31,3.56-7.58,0-2.18-.56-3.91-1.67-5.19Z"/>
  <path class="cls-1" d="M415.05,129.65h-1.13c-.42-.76-1.03-1.47-1.82-2.14-.8-.67-1.84-1.23-3.11-1.67-1.28-.44-2.86-.66-4.75-.66-2.52,0-4.84.62-6.98,1.86-2.14,1.24-3.86,3.05-5.16,5.44-1.3,2.39-1.95,5.29-1.95,8.68v1.01c0,3.4.65,6.29,1.95,8.68,1.3,2.39,3.03,4.21,5.19,5.44,2.16,1.24,4.48,1.86,6.95,1.86,2.85,0,5.02-.48,6.51-1.45,1.49-.96,2.59-2.03,3.3-3.21h1.13v3.78h7.8v-44.05h-7.93v16.42ZM415.17,141.99c0,3.02-.82,5.32-2.45,6.89-1.64,1.57-3.67,2.36-6.1,2.36s-4.47-.79-6.1-2.36c-1.64-1.57-2.45-3.87-2.45-6.89v-.63c0-3.02.82-5.32,2.45-6.89,1.64-1.57,3.67-2.36,6.1-2.36s4.52.79,6.14,2.36c1.61,1.57,2.42,3.87,2.42,6.89v.63Z"/>
  <path class="cls-1" d="M453.3,141.92c0,2.89-.67,5.15-2.01,6.76-1.34,1.62-3.23,2.42-5.66,2.42-2.14,0-3.79-.59-4.94-1.76-1.16-1.17-1.73-2.94-1.73-5.29v-18h-7.93v18.63c0,2.56.5,4.82,1.51,6.8,1.01,1.97,2.42,3.51,4.25,4.63,1.82,1.11,3.95,1.67,6.39,1.67,2.81,0,4.91-.5,6.29-1.51,1.38-1.01,2.33-2.03,2.83-3.08h1.13v4.09h7.8v-31.21h-7.93v15.86Z"/>
  <path class="cls-1" d="M492.76,127.07c-2.47-1.26-5.26-1.89-8.37-1.89s-5.89.63-8.37,1.89c-2.48,1.26-4.43,3.08-5.85,5.47-1.43,2.39-2.14,5.26-2.14,8.62v1.01c0,3.36.71,6.23,2.14,8.62,1.43,2.39,3.38,4.22,5.85,5.47,2.47,1.26,5.26,1.89,8.37,1.89s5.89-.63,8.37-1.89c2.47-1.26,4.43-3.08,5.85-5.47,1.43-2.39,2.14-5.26,2.14-8.62v-1.01c0-3.36-.71-6.23-2.14-8.62-1.43-2.39-3.38-4.22-5.85-5.47ZM492.82,141.99c0,2.94-.8,5.19-2.39,6.76-1.6,1.57-3.61,2.36-6.04,2.36s-4.45-.79-6.04-2.36c-1.6-1.57-2.39-3.83-2.39-6.76v-.63c0-2.94.79-5.19,2.39-6.76,1.59-1.57,3.61-2.36,6.04-2.36s4.5.79,6.07,2.36c1.57,1.57,2.36,3.83,2.36,6.76v.63Z"/>
  <path class="cls-1" d="M543.48,133.46c.88.86,1.32,2.15,1.32,3.87v19.95h7.93v-20.51c0-2.52-.47-4.6-1.42-6.26-.94-1.66-2.2-2.89-3.78-3.71-1.57-.82-3.33-1.23-5.25-1.23-2.39,0-4.24.44-5.54,1.32-1.3.88-2.31,1.99-3.02,3.34h-1.13c-.71-1.38-1.74-2.51-3.08-3.37-1.34-.86-3.13-1.29-5.35-1.29-2.06,0-3.71.39-4.97,1.16-1.26.78-2.16,1.69-2.71,2.74h-1.13v-3.4h-7.8v31.21h7.93v-18.44c0-2.14.49-3.78,1.48-4.94.99-1.15,2.38-1.73,4.19-1.73,1.59,0,2.83.43,3.71,1.29.88.86,1.32,2.15,1.32,3.87v19.95h7.93v-18.44c0-2.14.49-3.78,1.48-4.94.98-1.15,2.38-1.73,4.18-1.73,1.59,0,2.83.43,3.71,1.29Z"/>
  <path class="cls-1" d="M582.05,156.8c1.85-.9,3.33-1.99,4.44-3.27,1.11-1.28,1.96-2.46,2.55-3.56l-6.48-3.4c-.55,1.17-1.34,2.24-2.39,3.21-1.05.97-2.69,1.45-4.91,1.45s-4.03-.67-5.54-2.01c-1.51-1.34-2.31-3.08-2.39-5.22h22.72v-2.71c0-3.19-.63-5.99-1.89-8.4-1.26-2.41-3.02-4.3-5.29-5.66-2.27-1.36-4.93-2.05-7.99-2.05s-5.83.66-8.18,1.98c-2.35,1.32-4.17,3.19-5.48,5.6-1.3,2.41-1.95,5.25-1.95,8.53v.76c0,3.27.66,6.11,1.98,8.53,1.32,2.41,3.17,4.28,5.54,5.6,2.37,1.32,5.11,1.98,8.21,1.98,2.85,0,5.2-.45,7.05-1.35ZM569.72,133.74c1.26-1.09,2.96-1.64,5.1-1.64s3.72.55,5,1.64c1.28,1.09,2,2.54,2.17,4.34h-14.6c.29-1.8,1.07-3.25,2.33-4.34Z"/>
  <path class="cls-1" d="M621.03,127.23c-1.83-1.11-3.95-1.67-6.39-1.67-2.81,0-4.91.49-6.29,1.48s-2.33,2.02-2.83,3.11h-1.13v-4.09h-7.8v31.21h7.93v-15.86c0-2.89.67-5.15,2.01-6.76,1.34-1.61,3.23-2.42,5.66-2.42,2.14,0,3.78.59,4.94,1.76,1.15,1.17,1.73,2.94,1.73,5.29v18h7.93v-18.63c0-2.6-.5-4.88-1.51-6.83-1.01-1.95-2.42-3.48-4.25-4.59Z"/>
  <path class="cls-1" d="M662.09,161.3c0-.29.03-.6.09-.91.06-.31.12-.62.16-.91l.4-2.2h1.55v-31.21h-7.93v15.86c0,2.89-.67,5.15-2.01,6.76-1.34,1.62-3.23,2.42-5.66,2.42-2.14,0-3.79-.59-4.94-1.76-1.15-1.17-1.73-2.94-1.73-5.29v-18h-7.93v18.63c0,2.56.5,4.82,1.51,6.8,1.01,1.97,2.42,3.51,4.25,4.63,1.82,1.11,3.95,1.67,6.39,1.67,2.81,0,4.91-.5,6.29-1.51,1.38-1.01,2.33-2.03,2.83-3.08h1.13v4.09h1.09l-.52,2.27c-.17.67-.31,1.36-.41,2.08-.11.71-.16,1.38-.16,2.01,0,1.3.46,2.35,1.38,3.15.92.8,2.1,1.2,3.52,1.2h5.03v-5.29h-2.89c-.97,0-1.45-.46-1.45-1.38Z"/>
  <path class="cls-1" d="M417.94,209.34v-11.64c0-3.9-1.2-6.88-3.59-8.94-2.39-2.05-5.64-3.08-9.75-3.08-2.69,0-4.96.41-6.83,1.23-1.87.82-3.36,1.89-4.47,3.21-1.11,1.32-1.92,2.78-2.42,4.37l7.3,2.45c.29-1.43.92-2.59,1.89-3.49.96-.9,2.43-1.35,4.4-1.35s3.48.47,4.41,1.42c.92.94,1.38,2.15,1.38,3.62v1.76h-8.56c-2.35,0-4.44.37-6.26,1.1-1.83.73-3.25,1.82-4.28,3.27-1.03,1.45-1.54,3.24-1.54,5.38s.51,3.95,1.54,5.44c1.03,1.49,2.42,2.62,4.18,3.4,1.76.78,3.75,1.16,5.98,1.16s3.9-.31,5.16-.94,2.18-1.35,2.77-2.17c.59-.82.96-1.48,1.13-1.98h1.2v.06c0,1.26.5,2.27,1.51,3.02,1.01.76,2.29,1.13,3.84,1.13h5.29v-6.54h-2.52c-1.18,0-1.76-.63-1.76-1.89ZM410.26,205.44c0,2.06-.7,3.7-2.11,4.94-1.41,1.24-3.22,1.86-5.44,1.86-1.68,0-2.96-.36-3.84-1.07-.88-.71-1.32-1.64-1.32-2.77s.42-2.01,1.26-2.64c.84-.63,1.99-.94,3.46-.94h7.99v.63Z"/>
  <path class="cls-1" d="M450.41,190.34h-1.13c-.67-1.09-1.74-2.14-3.21-3.15-1.47-1.01-3.63-1.51-6.48-1.51-2.56,0-4.92.62-7.08,1.86-2.16,1.24-3.89,3.02-5.19,5.35-1.3,2.33-1.95,5.13-1.95,8.4v1.01c0,3.27.65,6.07,1.95,8.4,1.3,2.33,3.03,4.11,5.19,5.35,2.16,1.24,4.52,1.86,7.08,1.86,1.93,0,3.52-.23,4.78-.69,1.26-.46,2.27-1.04,3.02-1.73s1.34-1.37,1.76-2.05h1.13v8.12c0,1.26-.59,1.89-1.76,1.89h-18.12v6.92h20.89c2.1,0,3.78-.64,5.03-1.92,1.26-1.28,1.89-2.99,1.89-5.13v-36.75h-7.8v3.78ZM450.41,202.1c0,2.81-.82,4.99-2.45,6.54-1.64,1.55-3.67,2.33-6.1,2.33s-4.47-.78-6.1-2.33c-1.63-1.55-2.45-3.73-2.45-6.54v-.63c0-2.85.82-5.04,2.45-6.58,1.64-1.53,3.67-2.3,6.1-2.3s4.52.77,6.14,2.3c1.61,1.53,2.42,3.72,2.42,6.58v.63Z"/>
  <path class="cls-1" d="M488.61,187.72c-2.27-1.36-4.93-2.05-7.99-2.05s-5.83.66-8.18,1.98c-2.35,1.32-4.17,3.19-5.47,5.6-1.3,2.41-1.95,5.25-1.95,8.53v.76c0,3.27.66,6.11,1.98,8.53,1.32,2.41,3.17,4.28,5.54,5.6,2.37,1.32,5.11,1.98,8.21,1.98,2.85,0,5.2-.45,7.05-1.35,1.85-.9,3.32-1.99,4.44-3.27,1.11-1.28,1.96-2.46,2.55-3.56l-6.48-3.4c-.55,1.17-1.34,2.24-2.39,3.21-1.05.97-2.69,1.45-4.91,1.45s-4.03-.67-5.54-2.01c-1.51-1.34-2.31-3.08-2.39-5.22h22.72v-2.71c0-3.19-.63-5.99-1.89-8.4-1.26-2.41-3.02-4.3-5.29-5.66ZM473.13,198.58c.29-1.8,1.07-3.25,2.33-4.34,1.26-1.09,2.96-1.64,5.1-1.64s3.72.55,5,1.64c1.28,1.09,2,2.54,2.17,4.34h-14.6Z"/>
  <path class="cls-1" d="M526.77,187.72c-1.82-1.11-3.95-1.67-6.39-1.67-2.81,0-4.91.49-6.29,1.48-1.38.99-2.33,2.02-2.83,3.11h-1.13v-4.09h-7.8v31.21h7.93v-15.86c0-2.89.67-5.15,2.01-6.76,1.34-1.61,3.23-2.42,5.66-2.42,2.14,0,3.78.59,4.94,1.76,1.15,1.17,1.73,2.94,1.73,5.29v18h7.93v-18.63c0-2.6-.5-4.88-1.51-6.83s-2.42-3.48-4.25-4.59Z"/>
  <path class="cls-1" d="M552.66,176.87h-7.93v9.69h-7.8v6.54h7.8v17.62c0,2.14.64,3.85,1.92,5.13,1.28,1.28,2.95,1.92,5,1.92h8.81v-6.54h-6.04c-1.18,0-1.76-.63-1.76-1.89v-16.23h8.56v-6.54h-8.56v-9.69Z"/>
  <path class="cls-1" d="M589.92,202.42c0,2.89-.67,5.15-2.01,6.76-1.34,1.62-3.23,2.42-5.66,2.42-2.14,0-3.79-.59-4.94-1.76-1.15-1.17-1.73-2.94-1.73-5.29v-18h-7.93v18.63c0,2.56.5,4.82,1.51,6.8,1.01,1.97,2.42,3.51,4.25,4.63,1.83,1.11,3.95,1.67,6.39,1.67,2.81,0,4.91-.5,6.29-1.51,1.38-1.01,2.33-2.03,2.83-3.08h1.13v4.09h7.8v-31.21h-7.93v15.86Z"/>
  <rect class="cls-1" x="572.42" y="175.86" width="20.64" height="6.29"/>
  <path class="cls-1" d="M617.38,187.32c-1.07.59-1.83,1.51-2.3,2.77h-1.13v-3.52h-7.8v31.21h7.93v-17.75c0-2.22.65-3.87,1.95-4.94,1.3-1.07,2.96-1.6,4.97-1.6h3.9v-7.05h-3.78c-1.43,0-2.67.29-3.74.88Z"/>
  <path class="cls-1" d="M656.12,209.34v-11.64c0-3.9-1.2-6.88-3.59-8.94-2.39-2.05-5.64-3.08-9.75-3.08-2.69,0-4.96.41-6.83,1.23-1.87.82-3.36,1.89-4.47,3.21-1.11,1.32-1.92,2.78-2.42,4.37l7.3,2.45c.29-1.43.92-2.59,1.89-3.49.96-.9,2.43-1.35,4.41-1.35s3.48.47,4.41,1.42c.92.94,1.38,2.15,1.38,3.62v1.76h-8.56c-2.35,0-4.44.37-6.26,1.1-1.83.73-3.25,1.82-4.28,3.27-1.03,1.45-1.54,3.24-1.54,5.38s.51,3.95,1.54,5.44,2.42,2.62,4.19,3.4c1.76.78,3.75,1.16,5.98,1.16s3.9-.31,5.16-.94c1.26-.63,2.18-1.35,2.77-2.17.59-.82.96-1.48,1.13-1.98h1.19v.06c0,1.26.5,2.27,1.51,3.02,1.01.76,2.29,1.13,3.84,1.13h5.28v-6.54h-2.52c-1.18,0-1.76-.63-1.76-1.89ZM648.44,205.44c0,2.06-.7,3.7-2.11,4.94-1.41,1.24-3.22,1.86-5.44,1.86-1.68,0-2.96-.36-3.84-1.07-.88-.71-1.32-1.64-1.32-2.77s.42-2.01,1.26-2.64c.84-.63,1.99-.94,3.46-.94h7.99v.63Z"/>
  <g>
    <path class="cls-1" d="M82.05,107.04c5.84-5.84,5.84-15.35,0-21.19-5.84-5.84-15.35-5.84-21.19,0-9.73,9.73-25.56,9.73-35.29,0-5.84-5.84-15.35-5.84-21.19,0-5.84,5.84-5.84,15.35,0,21.19,5.84,5.84,15.34,5.84,21.19,0,9.73-9.73,25.56-9.73,35.29,0,5.84,5.84,15.35,5.84,21.19,0Z"/>
    <path class="cls-1" d="M127.67,137.81c0-8.29-6.72-15.01-15.01-15.01s-15.01,6.72-15.01,15.01,6.72,15.01,15.01,15.01,15.01-6.72,15.01-15.01Z"/>
    <path class="cls-1" d="M86.3,180.02c.48-8.28-5.84-15.37-14.12-15.85-8.28-.48-15.37,5.84-15.85,14.12-.48,8.28,5.84,15.37,14.12,15.85,8.27.48,15.37-5.84,15.85-14.12Z"/>
    <path class="cls-1" d="M315.97,0H85.77c-10.21,0-18.48,8.27-18.48,18.48v42.3c0,2.5,1.86,4.72,4.35,4.86,1.4.09,2.65-.45,3.56-1.35.84-.84,1.35-1.99,1.35-3.26V18.48c0-5.09,4.13-9.22,9.22-9.22h86.61c15.74,0,28.51,12.76,28.51,28.51v47.24c-9.74,9.61-26.55,10.54-36.23.85-6.02-6.01-15.91-5.83-21.69.52-5.14,5.64-5.14,14.51,0,20.15,5.78,6.36,15.67,6.53,21.68.51,9.69-9.67,26.51-8.76,36.24.85v26.43c-7.38.93-15.08-1.44-20.71-7.1-5.84-5.84-15.34-5.84-21.19,0-5.84,5.84-5.84,15.36,0,21.19,5.84,5.84,15.34,5.84,21.19,0,5.64-5.65,13.34-8.03,20.71-7.11v26.54c-.26.22-.53.47-.78.71-9.74,9.74-25.56,9.74-35.29.02-5.84-5.84-15.34-5.84-21.18,0-5.85,5.84-5.85,15.34,0,21.18,5.84,5.85,15.34,5.84,21.18,0,9.73-9.74,25.56-9.74,35.29,0,.25.25.51.5.78.71v81.96c0,2.14-.33,4.28-1.11,6.28-.71,1.81-1.84,3.79-3.66,5.61-.7.7-1.42,1.3-2.15,1.81-3.49,2.45-7.86,3.23-12.07,2.59-18.77-2.87-36.15-9.93-51.16-20.22-19.97-13.68-35.73-33.03-45-55.71-.71-1.75-2.38-2.9-4.25-2.9-3.32,0-5.53,3.37-4.29,6.44,19.92,48.74,67.78,83.09,123.69,83.09,36.88,0,70.28-14.95,94.45-39.13,24.18-24.16,39.13-57.56,39.13-94.45V18.51c0-10.22-8.29-18.51-18.51-18.51Z"/>
  </g>
</svg>