<?xml version="1.0" encoding="UTF-8"?>
<svg xmlns="http://www.w3.org/2000/svg" version="1.1" viewBox="0 0 638.36 300.28">
  <defs>
    <style>
      .cls-1 {
        fill: #fff;
      }
    </style>
  </defs>
  <!-- Generator: Adobe Illustrator 28.7.1, SVG Export Plug-In . SVG Version: 1.2.0 Build 142)  -->
  <g>
    <g id="Layer_1">
      <g id="Layer_1-2" data-name="Layer_1">
        <g>
          <g>
            <path class="cls-1" d="M358.13,108.85l-11.19-44.01h8.55l9.3,38.67h.88l9.3-38.67h8.55l-11.19,44.01h-14.21.01Z"/>
            <path class="cls-1" d="M396.35,109.73c-2.22,0-4.21-.39-5.97-1.16-1.76-.77-3.15-1.91-4.18-3.39-1.03-1.49-1.54-3.3-1.54-5.44s.51-3.93,1.54-5.38,2.45-2.54,4.27-3.27c1.82-.73,3.91-1.1,6.26-1.1h8.55v-1.76c0-1.47-.46-2.67-1.38-3.62-.92-.94-2.39-1.41-4.4-1.41s-3.44.45-4.4,1.35c-.96.9-1.59,2.06-1.89,3.49l-7.29-2.45c.5-1.59,1.31-3.05,2.42-4.37s2.6-2.39,4.46-3.21,4.14-1.23,6.82-1.23c4.11,0,7.36,1.03,9.75,3.08s3.58,5.03,3.58,8.93v11.63c0,1.26.59,1.89,1.76,1.89h2.51v6.54h-5.28c-1.55,0-2.83-.38-3.83-1.13-1.01-.75-1.51-1.76-1.51-3.02v-.06h-1.19c-.17.5-.54,1.16-1.13,1.98s-1.51,1.54-2.77,2.17c-1.26.63-2.98.94-5.16.94ZM397.73,103.32c2.22,0,4.03-.62,5.44-1.85,1.4-1.24,2.11-2.88,2.11-4.94v-.63h-7.98c-1.47,0-2.62.31-3.46.94-.84.63-1.26,1.51-1.26,2.64s.44,2.05,1.32,2.77c.88.71,2.16,1.07,3.83,1.07h0Z"/>
            <path class="cls-1" d="M422.5,108.85v-44.01h7.92v44.01h-7.92Z"/>
            <path class="cls-1" d="M451.67,109.73c-4.07,0-7.4-.88-10-2.64s-4.17-4.27-4.71-7.54l7.29-1.89c.29,1.47.79,2.62,1.48,3.46s1.55,1.44,2.58,1.79c1.03.36,2.15.53,3.36.53,1.84,0,3.21-.32,4.09-.97s1.32-1.46,1.32-2.42-.42-1.71-1.26-2.23c-.84-.52-2.18-.95-4.02-1.29l-1.76-.31c-2.18-.42-4.17-1-5.97-1.73s-3.25-1.75-4.34-3.05-1.63-2.98-1.63-5.03c0-3.1,1.13-5.48,3.39-7.14s5.24-2.48,8.93-2.48c3.48,0,6.37.78,8.68,2.33,2.3,1.55,3.81,3.58,4.53,6.1l-7.36,2.26c-.34-1.59-1.02-2.72-2.04-3.39-1.03-.67-2.29-1.01-3.8-1.01s-2.66.26-3.46.79c-.8.52-1.19,1.25-1.19,2.17,0,1.01.42,1.75,1.26,2.23s1.97.85,3.4,1.1l1.76.31c2.35.42,4.47.97,6.38,1.67,1.91.69,3.42,1.68,4.53,2.95,1.11,1.28,1.67,3.01,1.67,5.19,0,3.27-1.18,5.79-3.55,7.58-2.37,1.78-5.54,2.67-9.53,2.67h-.03Z"/>
            <path class="cls-1" d="M482.48,108.85c-2.05,0-3.72-.64-5-1.92s-1.92-2.99-1.92-5.12v-17.6h-7.8v-6.54h7.8v-9.68h7.92v9.68h8.55v6.54h-8.55v16.22c0,1.26.59,1.89,1.76,1.89h6.04v6.54h-8.8Z"/>
            <path class="cls-1" d="M502.09,121.42v-6.92h16.97c1.17,0,1.76-.63,1.76-1.89v-7.86h-1.13c-.34.71-.86,1.43-1.57,2.14-.71.71-1.68,1.3-2.89,1.76-1.22.46-2.77.69-4.65.69-2.43,0-4.56-.55-6.38-1.67-1.82-1.11-3.24-2.65-4.24-4.62-1.01-1.97-1.51-4.23-1.51-6.79v-18.61h7.92v17.98c0,2.35.58,4.11,1.73,5.28,1.15,1.17,2.8,1.76,4.94,1.76,2.43,0,4.32-.81,5.66-2.42s2.01-3.87,2.01-6.76v-15.84h7.92v36.71c0,2.14-.63,3.84-1.89,5.12-1.26,1.28-2.93,1.92-5.03,1.92h-19.62v.02Z"/>
            <path class="cls-1" d="M555.66,109.73c-2.81,0-4.97-.48-6.48-1.45-1.51-.96-2.62-2.03-3.33-3.21h-1.13v3.77h-7.8v-44.01h7.92v16.41h1.13c.46-.75,1.08-1.47,1.85-2.14.78-.67,1.8-1.23,3.08-1.67s2.86-.66,4.75-.66c2.51,0,4.84.62,6.98,1.85,2.14,1.24,3.86,3.05,5.16,5.44s1.95,5.28,1.95,8.68v1.01c0,3.4-.65,6.29-1.95,8.68s-3.02,4.2-5.16,5.44c-2.14,1.24-4.46,1.85-6.98,1.85h.01ZM553.27,102.81c2.43,0,4.46-.79,6.1-2.36,1.63-1.57,2.45-3.87,2.45-6.88v-.63c0-3.02-.81-5.31-2.42-6.88s-3.66-2.36-6.13-2.36-4.46.79-6.1,2.36-2.45,3.87-2.45,6.88v.63c0,3.02.82,5.31,2.45,6.88s3.67,2.36,6.1,2.36Z"/>
            <path class="cls-1" d="M590.74,109.73c-3.1,0-5.84-.66-8.2-1.98-2.37-1.32-4.21-3.18-5.53-5.59s-1.98-5.25-1.98-8.52v-.75c0-3.27.65-6.11,1.95-8.52s3.12-4.28,5.47-5.6,5.07-1.98,8.17-1.98,5.72.68,7.98,2.04,4.02,3.25,5.28,5.66,1.89,5.21,1.89,8.39v2.7h-22.7c.08,2.14.88,3.88,2.39,5.22,1.51,1.34,3.35,2.01,5.53,2.01s3.86-.48,4.9-1.45c1.05-.96,1.84-2.03,2.39-3.21l6.48,3.39c-.59,1.09-1.44,2.27-2.55,3.55-1.11,1.28-2.59,2.37-4.43,3.27-1.84.9-4.19,1.35-7.04,1.35v.02ZM583.13,89.67h14.59c-.17-1.8-.89-3.25-2.17-4.34-1.28-1.09-2.95-1.63-5-1.63s-3.83.54-5.09,1.63-2.03,2.54-2.33,4.34ZM590.61,74.02c-1.42,0-2.63-.46-3.62-1.38-.99-.92-1.48-2.14-1.48-3.65s.49-2.72,1.48-3.65c.98-.92,2.19-1.38,3.62-1.38s2.68.46,3.65,1.38c.96.92,1.45,2.14,1.45,3.65s-.48,2.73-1.45,3.65c-.96.92-2.18,1.38-3.65,1.38Z"/>
            <path class="cls-1" d="M625.25,109.73c-4.07,0-7.4-.88-10-2.64s-4.17-4.27-4.71-7.54l7.29-1.89c.29,1.47.79,2.62,1.48,3.46s1.55,1.44,2.58,1.79c1.03.36,2.15.53,3.36.53,1.84,0,3.21-.32,4.09-.97s1.32-1.46,1.32-2.42-.42-1.71-1.26-2.23c-.84-.52-2.18-.95-4.02-1.29l-1.76-.31c-2.18-.42-4.17-1-5.97-1.73s-3.25-1.75-4.34-3.05-1.63-2.98-1.63-5.03c0-3.1,1.13-5.48,3.39-7.14s5.24-2.48,8.93-2.48c3.48,0,6.37.78,8.68,2.33,2.3,1.55,3.81,3.58,4.53,6.1l-7.36,2.26c-.34-1.59-1.02-2.72-2.04-3.39-1.03-.67-2.29-1.01-3.8-1.01s-2.66.26-3.46.79c-.8.52-1.19,1.25-1.19,2.17,0,1.01.42,1.75,1.26,2.23s1.97.85,3.4,1.1l1.76.31c2.35.42,4.47.97,6.38,1.67,1.91.69,3.42,1.68,4.53,2.95,1.11,1.28,1.67,3.01,1.67,5.19,0,3.27-1.18,5.79-3.55,7.58-2.37,1.78-5.54,2.67-9.53,2.67h-.03Z"/>
            <path class="cls-1" d="M362.78,170.17c-2.47,0-4.79-.62-6.95-1.85-2.16-1.24-3.89-3.05-5.19-5.44s-1.95-5.28-1.95-8.68v-1.01c0-3.39.65-6.29,1.95-8.68,1.3-2.39,3.02-4.2,5.16-5.44,2.14-1.24,4.46-1.85,6.98-1.85,1.89,0,3.47.22,4.75.66s2.32,1,3.11,1.67c.8.67,1.4,1.38,1.82,2.14h1.13v-16.41h7.92v44.01h-7.8v-3.77h-1.13c-.71,1.17-1.81,2.24-3.3,3.21-1.49.96-3.66,1.45-6.51,1.45h0ZM365.17,163.25c2.43,0,4.46-.79,6.1-2.36,1.63-1.57,2.45-3.87,2.45-6.88v-.63c0-3.02-.81-5.31-2.42-6.88s-3.66-2.36-6.13-2.36-4.46.79-6.1,2.36-2.45,3.87-2.45,6.88v.63c0,3.02.82,5.31,2.45,6.88s3.67,2.36,6.1,2.36Z"/>
            <path class="cls-1" d="M401.69,169.79c-2.43,0-4.56-.55-6.38-1.67-1.82-1.11-3.24-2.65-4.24-4.62-1.01-1.97-1.51-4.23-1.51-6.79v-18.61h7.92v17.98c0,2.35.58,4.11,1.73,5.28,1.15,1.17,2.8,1.76,4.94,1.76,2.43,0,4.32-.81,5.66-2.42s2.01-3.87,2.01-6.76v-15.84h7.92v31.18h-7.79v-4.09h-1.13c-.5,1.05-1.45,2.08-2.83,3.08-1.38,1.01-3.48,1.51-6.29,1.51h-.01Z"/>
            <path class="cls-1" d="M442.87,170.17c-3.1,0-5.89-.63-8.36-1.89s-4.42-3.08-5.85-5.47-2.14-5.26-2.14-8.61v-1.01c0-3.35.71-6.22,2.14-8.61,1.42-2.39,3.37-4.21,5.85-5.47,2.47-1.26,5.26-1.89,8.36-1.89s5.89.63,8.36,1.89c2.47,1.26,4.42,3.08,5.85,5.47,1.42,2.39,2.14,5.26,2.14,8.61v1.01c0,3.35-.71,6.22-2.14,8.61s-3.37,4.21-5.85,5.47c-2.47,1.26-5.26,1.89-8.36,1.89ZM442.87,163.13c2.43,0,4.44-.79,6.04-2.36,1.59-1.57,2.39-3.82,2.39-6.76v-.63c0-2.93-.79-5.19-2.36-6.76-1.57-1.57-3.59-2.36-6.07-2.36s-4.44.79-6.04,2.36c-1.59,1.57-2.39,3.83-2.39,6.76v.63c0,2.93.8,5.19,2.39,6.76,1.59,1.57,3.6,2.36,6.04,2.36h0Z"/>
            <path class="cls-1" d="M466.01,169.29v-31.18h7.8v3.39h1.13c.54-1.05,1.45-1.96,2.7-2.74,1.26-.77,2.91-1.16,4.97-1.16,2.22,0,4,.43,5.34,1.29s2.37,1.98,3.08,3.36h1.13c.71-1.34,1.72-2.45,3.02-3.33,1.3-.88,3.14-1.32,5.53-1.32,1.93,0,3.68.41,5.25,1.23s2.83,2.05,3.77,3.71c.94,1.66,1.42,3.74,1.42,6.26v20.5h-7.92v-19.93c0-1.72-.44-3.01-1.32-3.87s-2.12-1.29-3.71-1.29c-1.8,0-3.2.58-4.18,1.73-.99,1.15-1.48,2.8-1.48,4.93v18.42h-7.92v-19.93c0-1.72-.44-3.01-1.32-3.87s-2.12-1.29-3.71-1.29c-1.8,0-3.2.58-4.18,1.73-.99,1.15-1.48,2.8-1.48,4.93v18.42h-7.92,0Z"/>
            <path class="cls-1" d="M533.4,170.17c-3.1,0-5.84-.66-8.2-1.98-2.37-1.32-4.21-3.18-5.53-5.59s-1.98-5.25-1.98-8.52v-.75c0-3.27.65-6.11,1.95-8.52,1.3-2.41,3.12-4.28,5.47-5.6s5.07-1.98,8.17-1.98,5.72.68,7.98,2.04,4.02,3.25,5.28,5.66c1.26,2.41,1.89,5.21,1.89,8.39v2.7h-22.7c.08,2.14.88,3.88,2.39,5.22s3.35,2.01,5.53,2.01,3.86-.48,4.9-1.45c1.05-.96,1.84-2.03,2.39-3.21l6.48,3.39c-.59,1.09-1.44,2.27-2.55,3.55s-2.59,2.37-4.43,3.27c-1.84.9-4.19,1.35-7.04,1.35v.02ZM525.8,150.12h14.59c-.17-1.8-.89-3.25-2.17-4.34s-2.95-1.63-5-1.63-3.83.54-5.09,1.63-2.03,2.54-2.33,4.34Z"/>
            <path class="cls-1" d="M554.97,169.29v-31.18h7.8v4.09h1.13c.5-1.09,1.45-2.13,2.83-3.11s3.48-1.48,6.29-1.48c2.43,0,4.56.56,6.38,1.67s3.24,2.64,4.24,4.59,1.51,4.22,1.51,6.82v18.61h-7.92v-17.98c0-2.35-.58-4.11-1.73-5.28-1.15-1.17-2.8-1.76-4.94-1.76-2.43,0-4.32.81-5.66,2.42-1.34,1.61-2.01,3.87-2.01,6.76v15.84h-7.92Z"/>
            <path class="cls-1" d="M604.57,169.79c-2.43,0-4.56-.55-6.38-1.67-1.82-1.11-3.24-2.65-4.24-4.62-1.01-1.97-1.51-4.23-1.51-6.79v-18.61h7.92v17.98c0,2.35.58,4.11,1.73,5.28,1.15,1.17,2.8,1.76,4.94,1.76,2.43,0,4.32-.81,5.66-2.42,1.34-1.61,2.01-3.87,2.01-6.76v-15.84h7.92v31.18h-7.79v-4.09h-1.13c-.5,1.05-1.45,2.08-2.83,3.08-1.38,1.01-3.48,1.51-6.29,1.51h0ZM619.72,179.98c-1.43,0-2.6-.4-3.52-1.19-.92-.8-1.38-1.84-1.38-3.14,0-.63.05-1.3.16-2.01.1-.71.24-1.4.41-2.07l.82-3.52h5.09l-.63,3.46c-.04.29-.09.6-.16.91-.06.31-.09.62-.09.91,0,.92.48,1.38,1.45,1.38h2.89v5.28h-5.04Z"/>
            <path class="cls-1" d="M364.41,230.61c-3.1,0-5.84-.66-8.2-1.98-2.37-1.32-4.21-3.18-5.53-5.59s-1.98-5.25-1.98-8.52v-.75c0-3.27.65-6.11,1.95-8.52,1.3-2.41,3.12-4.28,5.47-5.6s5.07-1.98,8.17-1.98,5.72.68,7.98,2.04,4.02,3.25,5.28,5.66,1.89,5.21,1.89,8.39v2.7h-22.7c.08,2.14.88,3.88,2.39,5.22s3.35,2.01,5.53,2.01,3.86-.48,4.9-1.45c1.05-.96,1.84-2.03,2.39-3.21l6.48,3.39c-.59,1.09-1.44,2.27-2.55,3.55s-2.59,2.37-4.43,3.27c-1.84.9-4.19,1.35-7.04,1.35v.02ZM356.81,210.55h14.59c-.17-1.8-.89-3.25-2.17-4.34s-2.95-1.63-5-1.63-3.83.54-5.09,1.63c-1.26,1.09-2.03,2.54-2.33,4.34Z"/>
            <path class="cls-1" d="M384.34,229.73v-9.43l17.1-14.21v-1.01h-16.47v-6.54h25.15v9.43l-17.1,14.21v1.01h17.6v6.54h-26.28ZM392.7,195.03l-7.36-9.3h7.98l3.52,4.65h1.13l3.52-4.65h7.98l-7.36,9.3h-9.43.02Z"/>
            <path class="cls-1" d="M431.24,230.61c-3.1,0-5.84-.66-8.2-1.98-2.37-1.32-4.21-3.18-5.53-5.59s-1.98-5.25-1.98-8.52v-.75c0-3.27.65-6.11,1.95-8.52,1.3-2.41,3.12-4.28,5.47-5.6s5.07-1.98,8.17-1.98,5.72.68,7.98,2.04,4.02,3.25,5.28,5.66,1.89,5.21,1.89,8.39v2.7h-22.7c.08,2.14.88,3.88,2.39,5.22s3.35,2.01,5.53,2.01,3.86-.48,4.9-1.45c1.05-.96,1.84-2.03,2.39-3.21l6.48,3.39c-.59,1.09-1.44,2.27-2.55,3.55s-2.59,2.37-4.43,3.27c-1.84.9-4.19,1.35-7.04,1.35v.02ZM423.64,210.55h14.59c-.17-1.8-.89-3.25-2.17-4.34s-2.95-1.63-5-1.63-3.83.54-5.09,1.63c-1.26,1.09-2.03,2.54-2.33,4.34Z"/>
            <path class="cls-1" d="M452.81,229.73v-31.18h7.8v3.52h1.13c.46-1.26,1.23-2.18,2.29-2.77,1.07-.59,2.32-.88,3.74-.88h3.77v7.04h-3.9c-2.01,0-3.67.53-4.97,1.6s-1.95,2.71-1.95,4.93v17.73h-7.92.01Z"/>
            <path class="cls-1" d="M486.13,230.61c-2.22,0-4.21-.39-5.97-1.16s-3.15-1.91-4.18-3.39c-1.03-1.49-1.54-3.3-1.54-5.44s.51-3.93,1.54-5.38c1.03-1.45,2.45-2.54,4.27-3.27,1.82-.73,3.91-1.1,6.26-1.1h8.55v-1.76c0-1.47-.46-2.67-1.38-3.62-.92-.94-2.39-1.41-4.4-1.41s-3.44.45-4.4,1.35c-.96.9-1.59,2.06-1.89,3.49l-7.29-2.45c.5-1.59,1.31-3.05,2.42-4.37s2.6-2.39,4.46-3.21,4.14-1.23,6.82-1.23c4.11,0,7.36,1.03,9.75,3.08s3.58,5.03,3.58,8.93v11.63c0,1.26.59,1.89,1.76,1.89h2.51v6.54h-5.28c-1.55,0-2.83-.38-3.83-1.13-1.01-.75-1.51-1.76-1.51-3.02v-.06h-1.19c-.17.5-.54,1.16-1.13,1.98-.59.82-1.51,1.54-2.77,2.17-1.26.63-2.98.94-5.16.94h0ZM487.51,224.2c2.22,0,4.03-.62,5.44-1.85,1.4-1.24,2.11-2.88,2.11-4.94v-.63h-7.98c-1.47,0-2.62.31-3.46.94s-1.26,1.51-1.26,2.64.44,2.05,1.32,2.77c.88.71,2.16,1.07,3.83,1.07h0Z"/>
            <path class="cls-1" d="M524.98,230.61c-4.07,0-7.4-.88-10-2.64s-4.17-4.27-4.71-7.54l7.29-1.89c.29,1.47.79,2.62,1.48,3.46.69.84,1.55,1.44,2.58,1.79,1.03.36,2.15.53,3.36.53,1.84,0,3.21-.32,4.09-.97s1.32-1.46,1.32-2.42-.42-1.71-1.26-2.23c-.84-.52-2.18-.95-4.02-1.29l-1.76-.31c-2.18-.42-4.17-1-5.97-1.73s-3.25-1.75-4.34-3.05-1.63-2.98-1.63-5.03c0-3.1,1.13-5.48,3.39-7.14s5.24-2.48,8.93-2.48c3.48,0,6.37.78,8.68,2.33,2.3,1.55,3.81,3.58,4.53,6.1l-7.36,2.26c-.34-1.59-1.02-2.72-2.04-3.39-1.03-.67-2.29-1.01-3.8-1.01s-2.66.26-3.46.79c-.8.52-1.19,1.25-1.19,2.17,0,1.01.42,1.75,1.26,2.23s1.97.85,3.4,1.1l1.76.31c2.35.42,4.47.97,6.38,1.67,1.91.69,3.42,1.68,4.53,2.95,1.11,1.28,1.67,3.01,1.67,5.19,0,3.27-1.18,5.79-3.55,7.58-2.37,1.78-5.54,2.67-9.53,2.67h-.03Z"/>
          </g>
          <g>
            <path class="cls-1" d="M19.61,91.39c17.99,0,32.63,14.63,32.63,32.63,0,10.81,8.79,19.58,19.59,19.58s19.58-8.79,19.58-19.58c0-17.99,14.63-32.63,32.63-32.63,10.81,0,19.59-8.79,19.59-19.59s-8.79-19.58-19.59-19.58-19.58,8.79-19.58,19.58c0,18-14.63,32.63-32.62,32.63s-32.63-14.63-32.63-32.63,14.63-32.63,32.63-32.63c10.79,0,19.58-8.79,19.58-19.59S82.61,0,71.82,0s-19.59,8.78-19.59,19.58c0,17.99-14.63,32.63-32.63,32.63C8.8,52.21.01,60.99.01,71.8s8.79,19.59,19.59,19.59Z"/>
            <path class="cls-1" d="M176.25,39.17c10.81,0,19.59-8.79,19.59-19.59S187.04,0,176.25,0s-19.58,8.78-19.58,19.58,8.79,19.59,19.58,19.59h0Z"/>
            <path class="cls-1" d="M52.23,71.8c0,10.81,8.79,19.59,19.59,19.59s19.58-8.79,19.58-19.59c0-17.99,14.63-32.63,32.63-32.63s32.63,14.63,32.63,32.63c0,10.81,8.79,19.59,19.58,19.59s19.59-8.79,19.59-19.59c0-17.99,14.63-32.63,32.63-32.63,10.79,0,19.58-8.79,19.58-19.59S239.26,0,228.46,0s-19.59,8.78-19.59,19.58c0,17.99-14.63,32.63-32.63,32.63s-32.63-14.63-32.63-32.63c0-10.79-8.79-19.58-19.59-19.58s-19.58,8.78-19.58,19.58c0,17.99-14.63,32.63-32.62,32.63-10.81,0-19.59,8.79-19.59,19.58h.01Z"/>
            <path class="cls-1" d="M176.25,208.86c-10.81,0-19.58,8.79-19.58,19.58s8.79,19.59,19.58,19.59,19.59-8.79,19.59-19.59c0-17.99,14.63-32.63,32.63-32.63,10.79,0,19.58-8.78,19.58-19.58s-8.78-19.59-19.58-19.59c-17.99,0-32.63-14.63-32.63-32.63s14.63-32.63,32.63-32.63c10.79,0,19.58-8.79,19.58-19.59s-8.78-19.58-19.58-19.58-19.59,8.79-19.59,19.58c0,18-14.63,32.63-32.63,32.63-10.81,0-19.58,8.79-19.58,19.59s8.79,19.58,19.58,19.58c17.99,0,32.63,14.63,32.63,32.63s-14.63,32.62-32.63,32.62v.02Z"/>
            <path class="cls-1" d="M19.61,143.61c10.81,0,19.58-8.79,19.58-19.58s-8.79-19.59-19.58-19.59S.01,113.22.01,124.01s8.79,19.58,19.59,19.58h0Z"/>
            <path class="cls-1" d="M208.88,124.01c0,10.81,8.79,19.58,19.59,19.58s19.58-8.79,19.58-19.58c0-17.99,14.63-32.63,32.63-32.63,10.81,0,19.59-8.79,19.59-19.59s-8.79-19.58-19.59-19.58-19.59,8.79-19.59,19.58c0,18-14.63,32.63-32.62,32.63-10.81,0-19.59,8.79-19.59,19.59h0Z"/>
            <path class="cls-1" d="M280.68,104.43c-10.81,0-19.59,8.79-19.59,19.59s8.79,19.58,19.59,19.58,19.59-8.79,19.59-19.58-8.79-19.59-19.59-19.59Z"/>
            <path class="cls-1" d="M19.61,195.81c10.81,0,19.58-8.78,19.58-19.58s-8.79-19.59-19.58-19.59S.01,165.43.01,176.24s8.79,19.58,19.59,19.58h0Z"/>
            <path class="cls-1" d="M69.34,261.07c-10.81,0-19.59,8.79-19.59,19.59s8.79,19.58,19.59,19.58,19.58-8.78,19.58-19.58-8.79-19.59-19.58-19.59h0Z"/>
            <path class="cls-1" d="M104.44,228.45c0,10.79,8.79,19.58,19.59,19.58s19.58-8.78,19.58-19.58-8.79-19.59-19.58-19.59-19.59,8.79-19.59,19.59h0Z"/>
            <path class="cls-1" d="M176.25,195.81c10.81,0,19.59-8.78,19.59-19.58s-8.79-19.59-19.59-19.59c-17.99,0-32.63-14.63-32.63-32.63,0-10.81-8.79-19.59-19.59-19.59s-19.58,8.79-19.58,19.59c0,17.99-14.63,32.63-32.62,32.63-10.81,0-19.59,8.79-19.59,19.59,0,17.99-14.63,32.62-32.63,32.62-10.81,0-19.59,8.79-19.59,19.58s8.79,19.59,19.59,19.59,19.58-8.79,19.58-19.59c0-17.99,14.63-32.63,32.63-32.63,10.79,0,19.58-8.78,19.58-19.58,0-17.99,14.63-32.63,32.63-32.63s32.63,14.63,32.63,32.63c0,10.79,8.79,19.58,19.58,19.58h.01Z"/>
            <path class="cls-1" d="M124.03,261.07c-18,0-32.63-14.63-32.63-32.62v-.06c.03-17.96,14.66-32.56,32.63-32.56,10.17,0,18.55-7.8,19.49-17.74.06-.61.09-1.23.09-1.86h0c0-9.46-6.73-17.36-15.64-19.19-1.27-.26-2.59-.4-3.94-.4s-2.67.14-3.94.4c-8.91,1.83-15.64,9.74-15.64,19.19,0,17.95-14.58,32.56-32.52,32.63h-.1c-5.4,0-10.3,2.2-13.85,5.74-3.55,3.55-5.74,8.45-5.74,13.85,0,3.38.86,6.56,2.37,9.33,3.32,6.1,9.8,10.26,17.23,10.26h.17c17.9.09,32.42,14.66,32.45,32.56v.07c0,10.81,8.79,19.59,19.58,19.59,5.4,0,10.3-2.2,13.85-5.74,3.55-3.55,5.74-8.45,5.74-13.85,0-10.81-8.79-19.58-19.58-19.58v-.03Z"/>
            <path class="cls-1" d="M280.68,156.64c-10.81,0-19.59,8.79-19.59,19.59,0,17.99-14.63,32.62-32.62,32.62-10.81,0-19.59,8.79-19.59,19.58,0,18-14.63,32.63-32.63,32.63-10.81,0-19.58,8.79-19.58,19.59s8.79,19.59,19.58,19.59,19.59-8.79,19.59-19.59c0-17.99,14.63-32.63,32.63-32.63,10.79,0,19.58-8.79,19.58-19.59,0-17.99,14.63-32.63,32.63-32.63,10.81,0,19.59-8.78,19.59-19.58s-8.79-19.59-19.59-19.59h0Z"/>
            <path class="cls-1" d="M280.68,208.86c-10.81,0-19.59,8.79-19.59,19.58,0,18-14.63,32.63-32.62,32.63-10.81,0-19.59,8.79-19.59,19.59s8.79,19.59,19.59,19.59,19.58-8.79,19.58-19.59c0-17.99,14.63-32.63,32.63-32.63,10.81,0,19.59-8.79,19.59-19.59s-8.79-19.58-19.59-19.58h0Z"/>
          </g>
        </g>
      </g>
    </g>
  </g>
</svg>