<?xml version="1.0" encoding="UTF-8"?>
<svg id="Layer_1" xmlns="http://www.w3.org/2000/svg" xmlns:xlink="http://www.w3.org/1999/xlink" viewBox="0 0 2637.38 2637.38">
  <defs>
    <style>
      .cls-1 {
        mask: url(#mask);
      }

      .cls-2 {
        fill: #d9fff4;
      }

      .cls-3 {
        fill: url(#radial-gradient);
      }

      .cls-4 {
        filter: url(#outer-glow-2);
        opacity: .33;
      }
    </style>
    <radialGradient id="radial-gradient" cx="1288.87" cy="1271.61" fx="1288.87" fy="1271.61" r="1211.96" gradientUnits="userSpaceOnUse">
      <stop offset="0" stop-color="#221f20"/>
      <stop offset=".14" stop-color="#252223"/>
      <stop offset=".27" stop-color="#312e2f"/>
      <stop offset=".4" stop-color="#454243"/>
      <stop offset=".54" stop-color="#605e5f"/>
      <stop offset=".67" stop-color="#838282"/>
      <stop offset=".8" stop-color="#afadae"/>
      <stop offset=".93" stop-color="#e1e0e0"/>
      <stop offset="1" stop-color="#fff"/>
    </radialGradient>
    <mask id="mask" x="-45.53" y="-45.87" width="2728" height="2729" maskUnits="userSpaceOnUse">
      <circle class="cls-3" cx="1288.87" cy="1271.61" r="1211.96"/>
    </mask>
    <filter id="outer-glow-2" x="-45.53" y="-45.87" width="2728" height="2729" filterUnits="userSpaceOnUse">
      <feOffset dx="0" dy="0"/>
      <feGaussianBlur result="blur" stdDeviation="15"/>
      <feFlood flood-color="#c0ffed" flood-opacity=".98"/>
      <feComposite in2="blur" operator="in"/>
      <feComposite in="SourceGraphic"/>
    </filter>
  </defs>
  <g class="cls-1">
    <g class="cls-4">
      <g id="_x3C_Radial_Repeat_x3E_">
        <g>
          <path class="cls-2" d="M754.64,876.07h-.08c-1.09-.23-2.19-.39-3.28-.55h-.08c-1.8-.31-3.67-.55-5.46-.86.08,4.45.16,8.9.16,13.27,17.25,2.65,34.5,5.23,51.76,7.88,8.35.31,16.63.62,24.9.86.39-1.09,1.01-3.2.62-5.78-.31-2.5-1.33-4.29-2.03-5.31-7.65-.94-15.22-1.87-22.87-2.81-14.52-2.19-29.12-4.45-43.64-6.71Z"/>
          <path class="cls-2" d="M802.18,900.19c-18.81-2.65-37.63-5.39-56.44-8.12.16,3.82.23,7.65.31,11.48,15.92,2.89,31.85,5.85,47.77,8.82,11.48.55,22.95,1.17,34.43,1.72.47-1.09,1.17-3.2.78-5.85-.39-2.42-1.48-4.22-2.19-5.23-8.27-.94-16.47-1.87-24.67-2.81Z"/>
          <path class="cls-2" d="M796.95,878.8c5.15.39,10.3.78,15.46,1.17.47-1.01,1.25-3.04,1.01-5.7-.16-1.72-.7-3.12-1.09-3.98-7.81-1.01-15.61-2.03-23.5-3.12-11.94-1.56-23.65-3.28-35.36-5h-.08c-2.58-.39-5.15-.78-7.73-1.17v9.68c3.67.55,7.42,1.17,11.08,1.72,13.43,2.11,26.78,4.29,40.2,6.4Z"/>
          <path class="cls-2" d="M715.14,936.88h-.08c-.16-.08-.23-.16-.39-.23-8.98-3.98-17.56-7.18-25.6-9.84.16-3.59,0-8.12-.78-13.19-.47-3.04-1.17-6.32-2.26-9.68-1.56-4.84-3.43-8.98-5.31-12.33,11.94-.08,23.89-.16,35.83-.31,2.03,9.52,4.14,18.97,6.17,28.41,6.4.31,12.8.62,19.13.94-.23-17.1-.55-34.19-.78-51.29-.08-3.04-.08-6.17-.16-9.21-5.15-.08-10.23-.16-15.38-.23-20.22-.31-40.59-.62-60.89-.94-19.91-14.44-43.64-29.66-71.11-43.64-6.87-3.51-13.97-6.95-21.31-10.23-18.19-8.2-37.94-15.69-59.01-21.94h-.16c-9.37-2.89-18.97-5.54-28.96-7.73h-.08c-3.04-.78-6.09-1.48-9.21-2.11-17.25-3.59-33.96-6.09-49.8-7.65,6.48,5,14.99,12.72,22.72,23.97,4.29,6.24,7.49,12.33,9.91,18.03,3.36,7.57,5.23,14.36,6.32,19.52,8.04,2.58,16,5.15,24.04,7.73h.08c16.86,5.39,33.64,10.77,50.51,16.24,7.96,2.5,15.92,5.07,23.81,7.65,19.05,6.09,38.02,12.18,57.06,18.27h.08c7.65,2.5,15.38,4.92,23.03,7.42,1.8,4.68,3.67,9.45,5.85,14.36v.08c2.19,5.15,4.61,10.46,7.26,15.92,3.12,6.24,6.25,12.18,9.37,17.8,13.74,6.4,28.02,12.72,42.78,18.97,10.46,4.37,20.84,8.59,30.99,12.49.94-1.17,2.5-3.59,3.12-7.03.55-2.97.23-5.39-.08-6.79-7.88-4.53-16.78-9.06-26.7-13.43Z"/>
          <path class="cls-2" d="M383.14,818.07c6.88.8,14.6,1.72,14.6,1.72,14.52,1.79,28.96,3.59,43.48,5.31-11.48-30.37-29.04-45.75-38.25-52.46-19.44-14.21-40.9-18.74-70.72-24.75-.78-.16-1.56-.31-2.42-.47,0,0-4.85-.94-9.37-1.8-4.39-.83-78.68-10.3-180.56-22.59.77,26.51,1.54,53.03,2.31,79.54,126.46,6.99,219.52,12.99,240.94,15.49Z"/>
          <path class="cls-2" d="M793.51,916.59c-15.92-3.04-31.85-6.17-47.77-9.29.08,4.37.16,8.66.16,12.96,15.14,3.2,30.29,6.4,45.43,9.6,9.91.16,19.83.23,29.74.31.7-.7,2.81-2.97,3.04-6.56.16-2.03-.31-3.59-.7-4.53-9.99-.86-19.91-1.64-29.9-2.5Z"/>
        </g>
      </g>
      <g id="_x3C_Radial_Repeat_x3E_-2" data-name="_x3C_Radial_Repeat_x3E_">
        <g>
          <path class="cls-2" d="M1051.51,653.34l-.07-.04c-.83-.75-1.7-1.43-2.57-2.11l-.07-.04c-1.4-1.17-2.9-2.31-4.3-3.48-2.16,3.89-4.31,7.78-6.5,11.57,13.61,10.92,27.27,21.78,40.88,32.71,7.08,4.45,14.09,8.85,21.14,13.19.88-.75,2.48-2.26,3.43-4.69.98-2.32,1-4.38.9-5.61-6.16-4.64-12.25-9.23-18.4-13.87-11.48-9.15-22.99-18.41-34.43-27.63Z"/>
          <path class="cls-2" d="M1080.63,698c-14.97-11.71-29.89-23.48-44.82-35.25-1.78,3.39-3.62,6.74-5.47,10.09,12.35,10.46,24.66,20.99,36.96,31.53,9.66,6.21,19.29,12.49,28.95,18.7.95-.71,2.61-2.19,3.6-4.68.87-2.29.82-4.39.72-5.62-6.7-4.95-13.33-9.86-19.96-14.77Z"/>
          <path class="cls-2" d="M1086.79,676.86c4.27,2.91,8.53,5.83,12.8,8.74.91-.64,2.6-2.01,3.73-4.43.72-1.57.95-3.06,1.04-3.99-6.25-4.78-12.51-9.56-18.79-14.45-9.56-7.32-18.84-14.67-28.13-22.01l-.07-.04c-2.04-1.63-4.07-3.25-6.11-4.88l-4.84,8.38c2.9,2.31,5.84,4.72,8.74,7.03,10.57,8.54,21.04,17.11,31.62,25.64Z"/>
          <path class="cls-2" d="M986.9,686.26l-.07-.04c-.1-.15-.13-.25-.22-.4-5.78-7.94-11.62-15-17.26-21.32,1.93-3.03,4.06-7.03,5.92-11.82,1.12-2.87,2.15-6.06,2.88-9.51,1.07-4.97,1.51-9.49,1.57-13.34,10.38,5.9,20.76,11.81,31.19,17.65-3,9.26-5.9,18.5-8.87,27.69,5.39,3.47,10.78,6.94,16.09,10.37,8.34-14.92,16.62-29.88,24.97-44.81,1.45-2.68,3.02-5.38,4.47-8.06-4.42-2.64-8.78-5.25-13.2-7.89-17.35-10.38-34.84-20.84-52.26-31.26-10.02-22.46-22.96-47.51-39.77-73.35-4.19-6.48-8.63-13-13.34-19.51-11.65-16.19-25.01-32.56-40.14-48.5l-.13-.08c-6.67-7.19-13.66-14.28-21.22-21.17l-.07-.04c-2.25-2.2-4.53-4.33-6.92-6.43-13.15-11.74-26.36-22.25-39.31-31.53,3.11,7.57,6.62,18.51,7.69,32.11.6,7.55.32,14.43-.43,20.57-.88,8.24-2.65,15.05-4.28,20.06,5.68,6.25,11.28,12.46,16.96,18.71l.07.04c11.91,13.1,23.75,26.15,35.62,39.31,5.65,6.14,11.25,12.36,16.79,18.53,13.45,14.8,26.83,29.55,40.28,44.35l.07.04c5.38,5.99,10.86,11.95,16.24,17.94-.79,4.95-1.55,10.01-2.11,15.37l-.04.07c-.68,5.56-1.24,11.36-1.68,17.42-.42,6.97-.68,13.67-.79,20.1,8.7,12.41,17.91,25.03,27.56,37.82,6.87,9.02,13.76,17.86,20.59,26.31,1.4-.55,3.96-1.86,6.22-4.52,1.96-2.3,2.9-4.55,3.33-5.92-4.56-7.86-10.01-16.23-16.41-24.98Z"/>
          <path class="cls-2" d="M758.79,417.36c5.56,4.14,11.78,8.79,11.78,8.79,11.68,8.81,23.29,17.59,35,26.34,5.25-32.04-2.28-54.14-6.9-64.56-9.73-22.02-26.06-36.68-48.88-56.79-.6-.53-1.2-1.05-1.86-1.62,0,0-3.74-3.24-7.21-6.24-3.38-2.92-62.99-48.26-145.08-109.84-12.59,23.35-25.18,46.69-37.77,70.04,106.02,69.29,183.61,121.01,200.92,133.88Z"/>
          <path class="cls-2" d="M1064.92,707.87c-12.27-10.6-24.5-21.27-36.73-31.93-2.12,3.82-4.2,7.58-6.34,11.3,11.51,10.34,23.03,20.69,34.54,31.03,8.51,5.09,17.05,10.12,25.6,15.14.96-.26,3.92-1.16,5.92-4.16,1.15-1.68,1.53-3.27,1.66-4.27-8.22-5.74-16.42-11.37-24.64-17.11Z"/>
        </g>
      </g>
      <g id="_x3C_Radial_Repeat_x3E_-3" data-name="_x3C_Radial_Repeat_x3E_">
        <g>
          <path class="cls-2" d="M1419.98,608.9l-.04-.07c-.34-1.06-.76-2.09-1.17-3.11l-.04-.07c-.63-1.71-1.36-3.45-1.99-5.16-3.81,2.29-7.63,4.58-11.41,6.77,6.33,16.27,12.72,32.5,19.05,48.76,3.91,7.39,7.77,14.71,11.71,21.99,1.14-.21,3.28-.72,5.31-2.35,2.01-1.52,3.06-3.3,3.58-4.41-3.01-7.09-5.99-14.12-9-21.21-5.37-13.67-10.71-27.44-16-41.15Z"/>
          <path class="cls-2" d="M1422.86,662.13c-7.11-17.62-14.15-35.28-21.19-52.94-3.23,2.05-6.51,4.03-9.78,6.01,5.46,15.24,10.85,30.51,16.25,45.78,5.26,10.21,10.46,20.46,15.73,30.67,1.18-.14,3.36-.59,5.46-2.25,1.9-1.55,2.91-3.39,3.44-4.51-3.33-7.63-6.61-15.2-9.9-22.77Z"/>
          <path class="cls-2" d="M1438.77,646.9c2.24,4.66,4.48,9.31,6.71,13.97,1.11-.1,3.26-.44,5.44-1.97,1.41-.99,2.35-2.17,2.9-2.94-3.02-7.27-6.05-14.54-9.04-21.91-4.62-11.12-8.99-22.12-13.35-33.12l-.04-.07c-.95-2.43-1.9-4.85-2.85-7.28l-8.38,4.84c1.36,3.45,2.69,7.01,4.05,10.46,4.89,12.68,9.67,25.33,14.56,38.02Z"/>
          <path class="cls-2" d="M1347.57,605.09l-.04-.07c-.01-.17.02-.28,0-.46-1.04-9.76-2.56-18.8-4.28-27.09,3.19-1.66,7.03-4.06,11.03-7.27,2.4-1.93,4.89-4.18,7.25-6.8,3.41-3.77,6.06-7.46,8.03-10.76,6.04,10.3,12.08,20.61,18.19,30.87-7.23,6.52-14.36,13.07-21.52,19.55,2.93,5.7,5.86,11.4,8.75,17.03,14.69-8.75,29.34-17.57,44.03-26.32,2.6-1.59,5.3-3.15,7.9-4.74-2.51-4.5-4.98-8.93-7.49-13.44-9.84-17.67-19.76-35.47-29.63-53.2,2.55-24.46,3.87-52.62,2.23-83.41-.39-7.71-.97-15.58-1.8-23.57-2-19.85-5.38-40.7-10.51-62.08l-.08-.13c-2.18-9.56-4.68-19.2-7.79-28.95l-.04-.07c-.85-3.03-1.76-6.01-2.78-9.03-5.52-16.74-11.71-32.45-18.28-46.96-1.09,8.11-3.53,19.34-9.4,31.66-3.26,6.84-6.93,12.66-10.66,17.6-4.88,6.69-9.82,11.71-13.74,15.23,1.79,8.25,3.54,16.44,5.33,24.69l.04.07c3.77,17.3,7.49,34.52,11.19,51.86,1.82,8.14,3.57,16.33,5.28,24.44,4.25,19.54,8.46,39.01,12.71,58.55l.04.07c1.66,7.87,3.43,15.78,5.09,23.65-3.16,3.9-6.35,7.9-9.51,12.25l-.07.04c-3.37,4.47-6.76,9.22-10.16,14.25-3.85,5.83-7.42,11.5-10.73,17.01,1.33,15.1,2.99,30.63,4.96,46.53,1.44,11.24,2.98,22.34,4.68,33.08,1.48.23,4.36.37,7.65-.81,2.84-1.01,4.78-2.49,5.84-3.46-.02-9.09-.55-19.06-1.72-29.83Z"/>
          <path class="cls-2" d="M1284.46,258.17c2.75,6.36,5.81,13.5,5.81,13.5,5.71,13.47,11.37,26.88,17.14,40.31,20.56-25.12,25.1-48.02,26.3-59.36,2.59-23.94-4.23-44.79-13.93-73.62-.25-.75-.51-1.51-.8-2.33,0,0-1.62-4.67-3.13-9.01-1.47-4.22-30.42-73.29-70.72-167.66-22.58,13.92-45.15,27.84-67.73,41.77,57.18,113.02,98.5,196.6,107.06,216.4Z"/>
          <path class="cls-2" d="M1404.33,662.82c-5.33-15.31-10.58-30.67-15.84-46.02-3.75,2.25-7.43,4.47-11.14,6.61,4.8,14.72,9.6,29.43,14.4,44.15,4.82,8.66,9.71,17.29,14.6,25.91.96.26,3.97.95,7.2-.64,1.84-.88,2.95-2.07,3.57-2.87-4.25-9.08-8.53-18.06-12.79-27.14Z"/>
        </g>
      </g>
      <g id="_x3C_Radial_Repeat_x3E_-4" data-name="_x3C_Radial_Repeat_x3E_">
        <g>
          <path class="cls-2" d="M1761.31,754.64v-.08c.23-1.09.39-2.19.55-3.28v-.08c.31-1.8.55-3.67.86-5.46-4.45.08-8.9.16-13.27.16-2.65,17.25-5.23,34.5-7.88,51.76-.31,8.35-.62,16.63-.86,24.9,1.09.39,3.2,1.01,5.78.62,2.5-.31,4.29-1.33,5.31-2.03.94-7.65,1.87-15.22,2.81-22.87,2.19-14.52,4.45-29.12,6.71-43.64Z"/>
          <path class="cls-2" d="M1737.19,802.18c2.65-18.81,5.39-37.63,8.12-56.44-3.82.16-7.65.23-11.48.31-2.89,15.92-5.85,31.85-8.82,47.77-.55,11.48-1.17,22.95-1.72,34.43,1.09.47,3.2,1.17,5.85.78,2.42-.39,4.22-1.48,5.23-2.19.94-8.27,1.87-16.47,2.81-24.67Z"/>
          <path class="cls-2" d="M1758.58,796.95c-.39,5.15-.78,10.3-1.17,15.46,1.01.47,3.04,1.25,5.7,1.01,1.72-.16,3.12-.7,3.98-1.09,1.01-7.81,2.03-15.61,3.12-23.5,1.56-11.94,3.28-23.65,5-35.36v-.08c.39-2.58.78-5.15,1.17-7.73h-9.68c-.55,3.67-1.17,7.42-1.72,11.08-2.11,13.43-4.29,26.78-6.4,40.2Z"/>
          <path class="cls-2" d="M1700.5,715.14v-.08c.08-.16.16-.23.23-.39,3.98-8.98,7.18-17.56,9.84-25.6,3.59.16,8.12,0,13.19-.78,3.04-.47,6.32-1.17,9.68-2.26,4.84-1.56,8.98-3.43,12.33-5.31.08,11.94.16,23.89.31,35.83-9.52,2.03-18.97,4.14-28.41,6.17-.31,6.4-.62,12.8-.94,19.13,17.1-.23,34.19-.55,51.29-.78,3.04-.08,6.17-.08,9.21-.16.08-5.15.16-10.23.23-15.38.31-20.22.62-40.59.94-60.89,14.44-19.91,29.66-43.64,43.64-71.11,3.51-6.87,6.95-13.97,10.23-21.31,8.2-18.19,15.69-37.94,21.94-59.01v-.16c2.89-9.37,5.54-18.97,7.73-28.96v-.08c.78-3.04,1.48-6.09,2.11-9.21,3.59-17.25,6.09-33.96,7.65-49.8-5,6.48-12.72,14.99-23.97,22.72-6.24,4.29-12.33,7.49-18.03,9.91-7.57,3.36-14.36,5.23-19.52,6.32-2.58,8.04-5.15,16-7.73,24.04v.08c-5.39,16.86-10.77,33.64-16.24,50.51-2.5,7.96-5.07,15.92-7.65,23.81-6.09,19.05-12.18,38.02-18.27,57.06v.08c-2.5,7.65-4.92,15.38-7.42,23.03-4.68,1.8-9.45,3.67-14.36,5.85h-.08c-5.15,2.19-10.46,4.61-15.92,7.26-6.24,3.12-12.18,6.25-17.8,9.37-6.4,13.74-12.72,28.02-18.97,42.78-4.37,10.46-8.59,20.84-12.49,30.99,1.17.94,3.59,2.5,7.03,3.12,2.97.55,5.39.23,6.79-.08,4.53-7.88,9.06-16.78,13.43-26.7Z"/>
          <path class="cls-2" d="M1819.31,383.14c-.8,6.88-1.72,14.6-1.72,14.6-1.79,14.52-3.59,28.96-5.31,43.48,30.37-11.48,45.75-29.04,52.46-38.25,14.21-19.44,18.74-40.9,24.75-70.72.16-.78.31-1.56.47-2.42,0,0,.94-4.85,1.8-9.37.83-4.39,10.3-78.68,22.59-180.56-26.51.77-53.03,1.54-79.54,2.31-6.99,126.46-12.99,219.52-15.49,240.94Z"/>
          <path class="cls-2" d="M1720.8,793.51c3.04-15.92,6.17-31.85,9.29-47.77-4.37.08-8.66.16-12.96.16-3.2,15.14-6.4,30.29-9.6,45.43-.16,9.91-.23,19.83-.31,29.74.7.7,2.97,2.81,6.56,3.04,2.03.16,3.59-.31,4.53-.7.86-9.99,1.64-19.91,2.5-29.9Z"/>
        </g>
      </g>
      <g id="_x3C_Radial_Repeat_x3E_-5" data-name="_x3C_Radial_Repeat_x3E_">
        <g>
          <path class="cls-2" d="M1984.04,1051.51l.04-.07c.75-.83,1.43-1.7,2.11-2.57l.04-.07c1.17-1.4,2.31-2.9,3.48-4.3-3.89-2.16-7.78-4.31-11.57-6.5-10.92,13.61-21.78,27.27-32.71,40.88-4.45,7.08-8.85,14.09-13.19,21.14.75.88,2.26,2.48,4.69,3.43,2.32.98,4.38,1,5.61.9,4.64-6.16,9.23-12.25,13.87-18.4,9.15-11.48,18.41-22.99,27.63-34.43Z"/>
          <path class="cls-2" d="M1939.38,1080.63c11.71-14.97,23.48-29.89,35.25-44.82-3.39-1.78-6.74-3.62-10.09-5.47-10.46,12.35-20.99,24.66-31.53,36.96-6.21,9.66-12.49,19.29-18.7,28.95.71.95,2.19,2.61,4.68,3.6,2.29.87,4.39.82,5.62.72,4.95-6.7,9.86-13.33,14.77-19.96Z"/>
          <path class="cls-2" d="M1960.52,1086.79c-2.91,4.27-5.83,8.53-8.74,12.8.64.91,2.01,2.6,4.43,3.73,1.57.72,3.06.95,3.99,1.04,4.78-6.25,9.56-12.51,14.45-18.79,7.32-9.56,14.67-18.84,22.01-28.13l.04-.07c1.63-2.04,3.25-4.07,4.88-6.11l-8.38-4.84c-2.31,2.9-4.72,5.84-7.03,8.74-8.54,10.57-17.11,21.04-25.64,31.62Z"/>
          <path class="cls-2" d="M1951.13,986.9l.04-.07c.15-.1.25-.13.4-.22,7.94-5.78,15-11.62,21.32-17.26,3.03,1.93,7.03,4.06,11.82,5.92,2.87,1.12,6.06,2.15,9.51,2.88,4.97,1.07,9.49,1.51,13.34,1.57-5.9,10.38-11.81,20.76-17.65,31.19-9.26-3-18.5-5.9-27.69-8.87-3.47,5.39-6.94,10.78-10.37,16.09,14.92,8.34,29.88,16.62,44.81,24.97,2.68,1.45,5.38,3.02,8.06,4.47,2.64-4.42,5.25-8.78,7.89-13.2,10.38-17.35,20.84-34.84,31.26-52.26,22.46-10.02,47.51-22.96,73.35-39.77,6.48-4.19,13-8.63,19.51-13.34,16.19-11.65,32.56-25.01,48.5-40.14l.08-.13c7.19-6.67,14.28-13.66,21.17-21.22l.04-.07c2.2-2.25,4.33-4.53,6.43-6.92,11.74-13.15,22.25-26.36,31.53-39.31-7.57,3.11-18.51,6.62-32.11,7.69-7.55.6-14.43.32-20.57-.43-8.24-.88-15.05-2.65-20.06-4.28-6.25,5.68-12.46,11.28-18.71,16.96l-.04.07c-13.1,11.91-26.15,23.75-39.31,35.62-6.14,5.65-12.36,11.25-18.53,16.79-14.8,13.45-29.55,26.83-44.35,40.28l-.04.07c-5.99,5.38-11.95,10.86-17.94,16.24-4.95-.79-10.01-1.55-15.37-2.11l-.07-.04c-5.56-.68-11.36-1.24-17.42-1.68-6.97-.42-13.67-.68-20.1-.79-12.41,8.7-25.03,17.91-37.82,27.56-9.02,6.87-17.86,13.76-26.31,20.59.55,1.4,1.86,3.96,4.52,6.22,2.3,1.96,4.55,2.9,5.92,3.33,7.86-4.56,16.23-10.01,24.98-16.41Z"/>
          <path class="cls-2" d="M2220.02,758.79c-4.14,5.56-8.79,11.78-8.79,11.78-8.81,11.68-17.59,23.29-26.34,35,32.04,5.25,54.14-2.28,64.56-6.9,22.02-9.73,36.68-26.06,56.79-48.88.53-.6,1.05-1.2,1.62-1.86,0,0,3.24-3.74,6.24-7.21,2.92-3.38,48.26-62.99,109.84-145.08-23.35-12.59-46.69-25.18-70.04-37.77-69.29,106.02-121.01,183.61-133.88,200.92Z"/>
          <path class="cls-2" d="M1929.51,1064.92c10.6-12.27,21.27-24.5,31.93-36.73-3.82-2.12-7.58-4.2-11.3-6.34-10.34,11.51-20.69,23.03-31.03,34.54-5.09,8.51-10.12,17.05-15.14,25.6.26.96,1.16,3.92,4.16,5.92,1.68,1.15,3.27,1.53,4.27,1.66,5.74-8.22,11.37-16.42,17.11-24.64Z"/>
        </g>
      </g>
      <g id="_x3C_Radial_Repeat_x3E_-6" data-name="_x3C_Radial_Repeat_x3E_">
        <g>
          <path class="cls-2" d="M2028.49,1419.98l.07-.04c1.06-.34,2.09-.76,3.11-1.17l.07-.04c1.71-.63,3.45-1.36,5.16-1.99-2.29-3.81-4.58-7.63-6.77-11.41-16.27,6.33-32.5,12.72-48.76,19.05-7.39,3.91-14.71,7.77-21.99,11.71.21,1.14.72,3.28,2.35,5.31,1.52,2.01,3.3,3.06,4.41,3.58,7.09-3.01,14.12-5.99,21.21-9,13.67-5.37,27.44-10.71,41.15-16Z"/>
          <path class="cls-2" d="M1975.26,1422.86c17.62-7.11,35.28-14.15,52.94-21.19-2.05-3.23-4.03-6.51-6.01-9.78-15.24,5.46-30.51,10.85-45.78,16.25-10.21,5.26-20.46,10.46-30.67,15.73.14,1.18.59,3.36,2.25,5.46,1.55,1.9,3.39,2.91,4.51,3.44,7.63-3.33,15.2-6.61,22.77-9.9Z"/>
          <path class="cls-2" d="M1990.48,1438.77c-4.66,2.24-9.31,4.48-13.97,6.71.1,1.11.44,3.26,1.97,5.44.99,1.41,2.17,2.35,2.94,2.9,7.27-3.02,14.54-6.05,21.91-9.04,11.12-4.62,22.12-8.99,33.12-13.35l.07-.04c2.43-.95,4.85-1.9,7.28-2.85l-4.84-8.38c-3.45,1.36-7.01,2.69-10.46,4.05-12.68,4.89-25.33,9.67-38.02,14.56Z"/>
          <path class="cls-2" d="M2032.29,1347.57l.07-.04c.17-.01.28.02.46,0,9.76-1.04,18.8-2.56,27.09-4.28,1.66,3.19,4.06,7.03,7.27,11.03,1.93,2.4,4.18,4.89,6.8,7.25,3.77,3.41,7.46,6.06,10.76,8.03-10.3,6.04-20.61,12.08-30.87,18.19-6.52-7.23-13.07-14.36-19.55-21.52-5.7,2.93-11.4,5.86-17.03,8.75,8.75,14.69,17.57,29.34,26.32,44.03,1.59,2.6,3.15,5.3,4.74,7.9,4.5-2.51,8.93-4.98,13.44-7.49,17.67-9.84,35.47-19.76,53.2-29.63,24.46,2.55,52.62,3.87,83.41,2.23,7.71-.39,15.58-.97,23.57-1.8,19.85-2,40.7-5.38,62.08-10.51l.13-.08c9.56-2.18,19.2-4.68,28.95-7.79l.07-.04c3.03-.85,6.01-1.76,9.03-2.78,16.74-5.52,32.45-11.71,46.96-18.28-8.11-1.09-19.34-3.53-31.66-9.4-6.84-3.26-12.66-6.93-17.6-10.66-6.69-4.88-11.71-9.82-15.23-13.74-8.25,1.79-16.44,3.54-24.69,5.33l-.07.04c-17.3,3.77-34.52,7.49-51.86,11.19-8.14,1.82-16.33,3.57-24.44,5.28-19.54,4.25-39.01,8.46-58.55,12.71l-.07.04c-7.87,1.66-15.78,3.43-23.65,5.09-3.9-3.16-7.9-6.35-12.25-9.51l-.04-.07c-4.47-3.37-9.22-6.76-14.25-10.16-5.83-3.85-11.5-7.42-17.01-10.73-15.1,1.33-30.63,2.99-46.53,4.96-11.24,1.44-22.34,2.98-33.08,4.68-.23,1.48-.37,4.36.81,7.65,1.01,2.84,2.49,4.78,3.46,5.84,9.09-.02,19.06-.55,29.83-1.72Z"/>
          <path class="cls-2" d="M2379.21,1284.46c-6.36,2.75-13.5,5.81-13.5,5.81-13.47,5.71-26.88,11.37-40.31,17.14,25.12,20.56,48.02,25.1,59.36,26.3,23.94,2.59,44.79-4.23,73.62-13.93.75-.25,1.51-.51,2.33-.8,0,0,4.67-1.62,9.01-3.13,4.22-1.47,73.29-30.42,167.66-70.72-13.92-22.58-27.84-45.15-41.77-67.73-113.02,57.18-196.6,98.5-216.4,107.06Z"/>
          <path class="cls-2" d="M1974.56,1404.33c15.31-5.33,30.67-10.58,46.02-15.84-2.25-3.75-4.47-7.43-6.61-11.14-14.72,4.8-29.43,9.6-44.15,14.4-8.66,4.82-17.29,9.71-25.91,14.6-.26.96-.95,3.97.64,7.2.88,1.84,2.07,2.95,2.87,3.57,9.08-4.25,18.06-8.53,27.14-12.79Z"/>
        </g>
      </g>
      <g id="_x3C_Radial_Repeat_x3E_-7" data-name="_x3C_Radial_Repeat_x3E_">
        <g>
          <path class="cls-2" d="M1882.75,1761.31h.08c1.09.23,2.19.39,3.28.55h.08c1.8.31,3.67.55,5.46.86-.08-4.45-.16-8.9-.16-13.27-17.25-2.65-34.5-5.23-51.76-7.88-8.35-.31-16.63-.62-24.9-.86-.39,1.09-1.01,3.2-.62,5.78.31,2.5,1.33,4.29,2.03,5.31,7.65.94,15.22,1.87,22.87,2.81,14.52,2.19,29.12,4.45,43.64,6.71Z"/>
          <path class="cls-2" d="M1835.21,1737.19c18.81,2.65,37.63,5.39,56.44,8.12-.16-3.82-.23-7.65-.31-11.48-15.92-2.89-31.85-5.85-47.77-8.82-11.48-.55-22.95-1.17-34.43-1.72-.47,1.09-1.17,3.2-.78,5.85.39,2.42,1.48,4.22,2.19,5.23,8.27.94,16.47,1.87,24.67,2.81Z"/>
          <path class="cls-2" d="M1840.44,1758.58c-5.15-.39-10.3-.78-15.46-1.17-.47,1.01-1.25,3.04-1.01,5.7.16,1.72.7,3.12,1.09,3.98,7.81,1.01,15.61,2.03,23.5,3.12,11.94,1.56,23.65,3.28,35.36,5h.08c2.58.39,5.15.78,7.73,1.17v-9.68c-3.67-.55-7.42-1.17-11.08-1.72-13.43-2.11-26.78-4.29-40.2-6.4Z"/>
          <path class="cls-2" d="M1922.25,1700.5h.08c.16.08.23.16.39.23,8.98,3.98,17.56,7.18,25.6,9.84-.16,3.59,0,8.12.78,13.19.47,3.04,1.17,6.32,2.26,9.68,1.56,4.84,3.43,8.98,5.31,12.33-11.94.08-23.89.16-35.83.31-2.03-9.52-4.14-18.97-6.17-28.41-6.4-.31-12.8-.62-19.13-.94.23,17.1.55,34.19.78,51.29.08,3.04.08,6.17.16,9.21,5.15.08,10.23.16,15.38.23,20.22.31,40.59.62,60.89.94,19.91,14.44,43.64,29.66,71.11,43.64,6.87,3.51,13.97,6.95,21.31,10.23,18.19,8.2,37.94,15.69,59.01,21.94h.16c9.37,2.89,18.97,5.54,28.96,7.73h.08c3.04.78,6.09,1.48,9.21,2.11,17.25,3.59,33.96,6.09,49.8,7.65-6.48-5-14.99-12.72-22.72-23.97-4.29-6.24-7.49-12.33-9.91-18.03-3.36-7.57-5.23-14.36-6.32-19.52-8.04-2.58-16-5.15-24.04-7.73h-.08c-16.86-5.39-33.64-10.77-50.51-16.24-7.96-2.5-15.92-5.07-23.81-7.65-19.05-6.09-38.02-12.18-57.06-18.27h-.08c-7.65-2.5-15.38-4.92-23.03-7.42-1.8-4.68-3.67-9.45-5.85-14.36v-.08c-2.19-5.15-4.61-10.46-7.26-15.92-3.12-6.24-6.25-12.18-9.37-17.8-13.74-6.4-28.02-12.72-42.78-18.97-10.46-4.37-20.84-8.59-30.99-12.49-.94,1.17-2.5,3.59-3.12,7.03-.55,2.97-.23,5.39.08,6.79,7.88,4.53,16.78,9.06,26.7,13.43Z"/>
          <path class="cls-2" d="M2254.24,1819.31c-6.88-.8-14.6-1.72-14.6-1.72-14.52-1.79-28.96-3.59-43.48-5.31,11.48,30.37,29.04,45.75,38.25,52.46,19.44,14.21,40.9,18.74,70.72,24.75.78.16,1.56.31,2.42.47,0,0,4.85.94,9.37,1.8,4.39.83,78.68,10.3,180.56,22.59-.77-26.51-1.54-53.03-2.31-79.54-126.46-6.99-219.52-12.99-240.94-15.49Z"/>
          <path class="cls-2" d="M1843.87,1720.8c15.92,3.04,31.85,6.17,47.77,9.29-.08-4.37-.16-8.66-.16-12.96-15.14-3.2-30.29-6.4-45.43-9.6-9.91-.16-19.83-.23-29.74-.31-.7.7-2.81,2.97-3.04,6.56-.16,2.03.31,3.59.7,4.53,9.99.86,19.91,1.64,29.9,2.5Z"/>
        </g>
      </g>
      <g id="_x3C_Radial_Repeat_x3E_-8" data-name="_x3C_Radial_Repeat_x3E_">
        <g>
          <path class="cls-2" d="M1585.87,1984.04l.07.04c.83.75,1.7,1.43,2.57,2.11l.07.04c1.4,1.17,2.9,2.31,4.3,3.48,2.16-3.89,4.31-7.78,6.5-11.57-13.61-10.92-27.27-21.78-40.88-32.71-7.08-4.45-14.09-8.85-21.14-13.19-.88.75-2.48,2.26-3.43,4.69-.98,2.32-1,4.38-.9,5.61,6.16,4.64,12.25,9.23,18.4,13.87,11.48,9.15,22.99,18.41,34.43,27.63Z"/>
          <path class="cls-2" d="M1556.76,1939.38c14.97,11.71,29.89,23.48,44.82,35.25,1.78-3.39,3.62-6.74,5.47-10.09-12.35-10.46-24.66-20.99-36.96-31.53-9.66-6.21-19.29-12.49-28.95-18.7-.95.71-2.61,2.19-3.6,4.68-.87,2.29-.82,4.39-.72,5.62,6.7,4.95,13.33,9.86,19.96,14.77Z"/>
          <path class="cls-2" d="M1550.59,1960.52c-4.27-2.91-8.53-5.83-12.8-8.74-.91.64-2.6,2.01-3.73,4.43-.72,1.57-.95,3.06-1.04,3.99,6.25,4.78,12.51,9.56,18.79,14.45,9.56,7.32,18.84,14.67,28.13,22.01l.07.04c2.04,1.63,4.07,3.25,6.11,4.88l4.84-8.38c-2.9-2.31-5.84-4.72-8.74-7.03-10.57-8.54-21.04-17.11-31.62-25.64Z"/>
          <path class="cls-2" d="M1650.48,1951.13l.07.04c.1.15.13.25.22.4,5.78,7.94,11.62,15,17.26,21.32-1.93,3.03-4.06,7.03-5.92,11.82-1.12,2.87-2.15,6.06-2.88,9.51-1.07,4.97-1.51,9.49-1.57,13.34-10.38-5.9-20.76-11.81-31.19-17.65,3-9.26,5.9-18.5,8.87-27.69-5.39-3.47-10.78-6.94-16.09-10.37-8.34,14.92-16.62,29.88-24.97,44.81-1.45,2.68-3.02,5.38-4.47,8.06,4.42,2.64,8.78,5.25,13.2,7.89,17.35,10.38,34.84,20.84,52.26,31.26,10.02,22.46,22.96,47.51,39.77,73.35,4.19,6.48,8.63,13,13.34,19.51,11.65,16.19,25.01,32.56,40.14,48.5l.13.08c6.67,7.19,13.66,14.28,21.22,21.17l.07.04c2.25,2.2,4.53,4.33,6.92,6.43,13.15,11.74,26.36,22.25,39.31,31.53-3.11-7.57-6.62-18.51-7.69-32.11-.6-7.55-.32-14.43.43-20.57.88-8.24,2.65-15.05,4.28-20.06-5.68-6.25-11.28-12.46-16.96-18.71l-.07-.04c-11.91-13.1-23.75-26.15-35.62-39.31-5.65-6.14-11.25-12.36-16.79-18.53-13.45-14.8-26.83-29.55-40.28-44.35l-.07-.04c-5.38-5.99-10.86-11.95-16.24-17.94.79-4.95,1.55-10.01,2.11-15.37l.04-.07c.68-5.56,1.24-11.36,1.68-17.42.42-6.97.68-13.67.79-20.1-8.7-12.41-17.91-25.03-27.56-37.82-6.87-9.02-13.76-17.86-20.59-26.31-1.4.55-3.96,1.86-6.22,4.52-1.96,2.3-2.9,4.55-3.33,5.92,4.56,7.86,10.01,16.23,16.41,24.98Z"/>
          <path class="cls-2" d="M1878.59,2220.02c-5.56-4.14-11.78-8.79-11.78-8.79-11.68-8.81-23.29-17.59-35-26.34-5.25,32.04,2.28,54.14,6.9,64.56,9.73,22.02,26.06,36.68,48.88,56.79.6.53,1.2,1.05,1.86,1.62,0,0,3.74,3.24,7.21,6.24,3.38,2.92,62.99,48.26,145.08,109.84,12.59-23.35,25.18-46.69,37.77-70.04-106.02-69.29-183.61-121.01-200.92-133.88Z"/>
          <path class="cls-2" d="M1572.46,1929.51c12.27,10.6,24.5,21.27,36.73,31.93,2.12-3.82,4.2-7.58,6.34-11.3-11.51-10.34-23.03-20.69-34.54-31.03-8.51-5.09-17.05-10.12-25.6-15.14-.96.26-3.92,1.16-5.92,4.16-1.15,1.68-1.53,3.27-1.66,4.27,8.22,5.74,16.42,11.37,24.64,17.11Z"/>
        </g>
      </g>
      <g id="_x3C_Radial_Repeat_x3E_-9" data-name="_x3C_Radial_Repeat_x3E_">
        <g>
          <path class="cls-2" d="M1217.4,2028.49l.04.07c.34,1.06.76,2.09,1.17,3.11l.04.07c.63,1.71,1.36,3.45,1.99,5.16,3.81-2.29,7.63-4.58,11.41-6.77-6.33-16.27-12.72-32.5-19.05-48.76-3.91-7.39-7.77-14.71-11.71-21.99-1.14.21-3.28.72-5.31,2.35-2.01,1.52-3.06,3.3-3.58,4.41,3.01,7.09,5.99,14.12,9,21.21,5.37,13.67,10.71,27.44,16,41.15Z"/>
          <path class="cls-2" d="M1214.52,1975.26c7.11,17.62,14.15,35.28,21.19,52.94,3.23-2.05,6.51-4.03,9.78-6.01-5.46-15.24-10.85-30.51-16.25-45.78-5.26-10.21-10.46-20.46-15.73-30.67-1.18.14-3.36.59-5.46,2.25-1.9,1.55-2.91,3.39-3.44,4.51,3.33,7.63,6.61,15.2,9.9,22.77Z"/>
          <path class="cls-2" d="M1198.61,1990.48c-2.24-4.66-4.48-9.31-6.71-13.97-1.11.1-3.26.44-5.44,1.97-1.41.99-2.35,2.17-2.9,2.94,3.02,7.27,6.05,14.54,9.04,21.91,4.62,11.12,8.99,22.12,13.35,33.12l.04.07c.95,2.43,1.9,4.85,2.85,7.28l8.38-4.84c-1.36-3.45-2.69-7.01-4.05-10.46-4.89-12.68-9.67-25.33-14.56-38.02Z"/>
          <path class="cls-2" d="M1289.81,2032.29l.04.07c.01.17-.02.28,0,.46,1.04,9.76,2.56,18.8,4.28,27.09-3.19,1.66-7.03,4.06-11.03,7.27-2.4,1.93-4.89,4.18-7.25,6.8-3.41,3.77-6.06,7.46-8.03,10.76-6.04-10.3-12.08-20.61-18.19-30.87,7.23-6.52,14.36-13.07,21.52-19.55-2.93-5.7-5.86-11.4-8.75-17.03-14.69,8.75-29.34,17.57-44.03,26.32-2.6,1.59-5.3,3.15-7.9,4.74,2.51,4.5,4.98,8.93,7.49,13.44,9.84,17.67,19.76,35.47,29.63,53.2-2.55,24.46-3.87,52.62-2.23,83.41.39,7.71.97,15.58,1.8,23.57,2,19.85,5.38,40.7,10.51,62.08l.08.13c2.18,9.56,4.68,19.2,7.79,28.95l.04.07c.85,3.03,1.76,6.01,2.78,9.03,5.52,16.74,11.71,32.45,18.28,46.96,1.09-8.11,3.53-19.34,9.4-31.66,3.26-6.84,6.93-12.66,10.66-17.6,4.88-6.69,9.82-11.71,13.74-15.23-1.79-8.25-3.54-16.44-5.33-24.69l-.04-.07c-3.77-17.3-7.49-34.52-11.19-51.86-1.82-8.14-3.57-16.33-5.28-24.44-4.25-19.54-8.46-39.01-12.71-58.55l-.04-.07c-1.66-7.87-3.43-15.78-5.09-23.65,3.16-3.9,6.35-7.9,9.51-12.25l.07-.04c3.37-4.47,6.76-9.22,10.16-14.25,3.85-5.83,7.42-11.5,10.73-17.01-1.33-15.1-2.99-30.63-4.96-46.53-1.44-11.24-2.98-22.34-4.68-33.08-1.48-.23-4.36-.37-7.65.81-2.84,1.01-4.78,2.49-5.84,3.46.02,9.09.55,19.06,1.72,29.83Z"/>
          <path class="cls-2" d="M1352.92,2379.21c-2.75-6.36-5.81-13.5-5.81-13.5-5.71-13.47-11.37-26.88-17.14-40.31-20.56,25.12-25.1,48.02-26.3,59.36-2.59,23.94,4.23,44.79,13.93,73.62.25.75.51,1.51.8,2.33,0,0,1.62,4.67,3.13,9.01,1.47,4.22,30.42,73.29,70.72,167.66,22.58-13.92,45.15-27.84,67.73-41.77-57.18-113.02-98.5-196.6-107.06-216.4Z"/>
          <path class="cls-2" d="M1233.05,1974.56c5.33,15.31,10.58,30.67,15.84,46.02,3.75-2.25,7.43-4.47,11.14-6.61-4.8-14.72-9.6-29.43-14.4-44.15-4.82-8.66-9.71-17.29-14.6-25.91-.96-.26-3.97-.95-7.2.64-1.84.88-2.95,2.07-3.57,2.87,4.25,9.08,8.53,18.06,12.79,27.14Z"/>
        </g>
      </g>
      <g id="_x3C_Radial_Repeat_x3E_-10" data-name="_x3C_Radial_Repeat_x3E_">
        <g>
          <path class="cls-2" d="M876.07,1882.75v.08c-.23,1.09-.39,2.19-.55,3.28v.08c-.31,1.8-.55,3.67-.86,5.46,4.45-.08,8.9-.16,13.27-.16,2.65-17.25,5.23-34.5,7.88-51.76.31-8.35.62-16.63.86-24.9-1.09-.39-3.2-1.01-5.78-.62-2.5.31-4.29,1.33-5.31,2.03-.94,7.65-1.87,15.22-2.81,22.87-2.19,14.52-4.45,29.12-6.71,43.64Z"/>
          <path class="cls-2" d="M900.19,1835.21c-2.65,18.81-5.39,37.63-8.12,56.44,3.82-.16,7.65-.23,11.48-.31,2.89-15.92,5.85-31.85,8.82-47.77.55-11.48,1.17-22.95,1.72-34.43-1.09-.47-3.2-1.17-5.85-.78-2.42.39-4.22,1.48-5.23,2.19-.94,8.27-1.87,16.47-2.81,24.67Z"/>
          <path class="cls-2" d="M878.8,1840.44c.39-5.15.78-10.3,1.17-15.46-1.01-.47-3.04-1.25-5.7-1.01-1.72.16-3.12.7-3.98,1.09-1.01,7.81-2.03,15.61-3.12,23.5-1.56,11.94-3.28,23.65-5,35.36v.08c-.39,2.58-.78,5.15-1.17,7.73h9.68c.55-3.67,1.17-7.42,1.72-11.08,2.11-13.43,4.29-26.78,6.4-40.2Z"/>
          <path class="cls-2" d="M936.88,1922.25v.08c-.08.16-.16.23-.23.39-3.98,8.98-7.18,17.56-9.84,25.6-3.59-.16-8.12,0-13.19.78-3.04.47-6.32,1.17-9.68,2.26-4.84,1.56-8.98,3.43-12.33,5.31-.08-11.94-.16-23.89-.31-35.83,9.52-2.03,18.97-4.14,28.41-6.17.31-6.4.62-12.8.94-19.13-17.1.23-34.19.55-51.29.78-3.04.08-6.17.08-9.21.16-.08,5.15-.16,10.23-.23,15.38-.31,20.22-.62,40.59-.94,60.89-14.44,19.91-29.66,43.64-43.64,71.11-3.51,6.87-6.95,13.97-10.23,21.31-8.2,18.19-15.69,37.94-21.94,59.01v.16c-2.89,9.37-5.54,18.97-7.73,28.96v.08c-.78,3.04-1.48,6.09-2.11,9.21-3.59,17.25-6.09,33.96-7.65,49.8,5-6.48,12.72-14.99,23.97-22.72,6.24-4.29,12.33-7.49,18.03-9.91,7.57-3.36,14.36-5.23,19.52-6.32,2.58-8.04,5.15-16,7.73-24.04v-.08c5.39-16.86,10.77-33.64,16.24-50.51,2.5-7.96,5.07-15.92,7.65-23.81,6.09-19.05,12.18-38.02,18.27-57.06v-.08c2.5-7.65,4.92-15.38,7.42-23.03,4.68-1.8,9.45-3.67,14.36-5.85h.08c5.15-2.19,10.46-4.61,15.92-7.26,6.24-3.12,12.18-6.25,17.8-9.37,6.4-13.74,12.72-28.02,18.97-42.78,4.37-10.46,8.59-20.84,12.49-30.99-1.17-.94-3.59-2.5-7.03-3.12-2.97-.55-5.39-.23-6.79.08-4.53,7.88-9.06,16.78-13.43,26.7Z"/>
          <path class="cls-2" d="M818.07,2254.24c.8-6.88,1.72-14.6,1.72-14.6,1.79-14.52,3.59-28.96,5.31-43.48-30.37,11.48-45.75,29.04-52.46,38.25-14.21,19.44-18.74,40.9-24.75,70.72-.16.78-.31,1.56-.47,2.42,0,0-.94,4.85-1.8,9.37-.83,4.39-10.3,78.68-22.59,180.56,26.51-.77,53.03-1.54,79.54-2.31,6.99-126.46,12.99-219.52,15.49-240.94Z"/>
          <path class="cls-2" d="M916.59,1843.87c-3.04,15.92-6.17,31.85-9.29,47.77,4.37-.08,8.66-.16,12.96-.16,3.2-15.14,6.4-30.29,9.6-45.43.16-9.91.23-19.83.31-29.74-.7-.7-2.97-2.81-6.56-3.04-2.03-.16-3.59.31-4.53.7-.86,9.99-1.64,19.91-2.5,29.9Z"/>
        </g>
      </g>
      <g id="_x3C_Radial_Repeat_x3E_-11" data-name="_x3C_Radial_Repeat_x3E_">
        <g>
          <path class="cls-2" d="M653.34,1585.87l-.04.07c-.75.83-1.43,1.7-2.11,2.57l-.04.07c-1.17,1.4-2.31,2.9-3.48,4.3,3.89,2.16,7.78,4.31,11.57,6.5,10.92-13.61,21.78-27.27,32.71-40.88,4.45-7.08,8.85-14.09,13.19-21.14-.75-.88-2.26-2.48-4.69-3.43-2.32-.98-4.38-1-5.61-.9-4.64,6.16-9.23,12.25-13.87,18.4-9.15,11.48-18.41,22.99-27.63,34.43Z"/>
          <path class="cls-2" d="M698,1556.76c-11.71,14.97-23.48,29.89-35.25,44.82,3.39,1.78,6.74,3.62,10.09,5.47,10.46-12.35,20.99-24.66,31.53-36.96,6.21-9.66,12.49-19.29,18.7-28.95-.71-.95-2.19-2.61-4.68-3.6-2.29-.87-4.39-.82-5.62-.72-4.95,6.7-9.86,13.33-14.77,19.96Z"/>
          <path class="cls-2" d="M676.87,1550.59c2.91-4.27,5.83-8.53,8.74-12.8-.64-.91-2.01-2.6-4.43-3.73-1.57-.72-3.06-.95-3.99-1.04-4.78,6.25-9.56,12.51-14.45,18.79-7.32,9.56-14.67,18.84-22.01,28.13l-.04.07c-1.63,2.04-3.25,4.07-4.88,6.11l8.38,4.84c2.31-2.9,4.72-5.84,7.03-8.74,8.54-10.57,17.11-21.04,25.64-31.62Z"/>
          <path class="cls-2" d="M686.26,1650.48l-.04.07c-.15.1-.25.13-.4.22-7.94,5.78-15,11.62-21.32,17.26-3.03-1.93-7.03-4.06-11.82-5.92-2.87-1.12-6.06-2.15-9.51-2.88-4.97-1.07-9.49-1.51-13.34-1.57,5.9-10.38,11.81-20.76,17.65-31.19,9.26,3,18.5,5.9,27.69,8.87,3.47-5.39,6.94-10.78,10.37-16.09-14.92-8.34-29.88-16.62-44.81-24.97-2.68-1.45-5.38-3.02-8.06-4.47-2.64,4.42-5.25,8.78-7.89,13.2-10.38,17.35-20.84,34.84-31.26,52.26-22.46,10.02-47.51,22.96-73.35,39.77-6.48,4.19-13,8.63-19.51,13.34-16.19,11.65-32.56,25.01-48.5,40.14l-.08.13c-7.19,6.67-14.28,13.66-21.17,21.22l-.04.07c-2.2,2.25-4.33,4.53-6.43,6.92-11.74,13.15-22.25,26.36-31.53,39.31,7.57-3.11,18.51-6.62,32.11-7.69,7.55-.6,14.43-.32,20.57.43,8.24.88,15.05,2.65,20.06,4.28,6.25-5.68,12.46-11.28,18.71-16.96l.04-.07c13.1-11.91,26.15-23.75,39.31-35.62,6.14-5.65,12.36-11.25,18.53-16.79,14.8-13.45,29.55-26.83,44.35-40.28l.04-.07c5.99-5.38,11.95-10.86,17.94-16.24,4.95.79,10.01,1.55,15.37,2.11l.07.04c5.56.68,11.36,1.24,17.42,1.68,6.97.42,13.67.68,20.1.79,12.41-8.7,25.03-17.91,37.82-27.56,9.02-6.87,17.86-13.76,26.31-20.59-.55-1.4-1.86-3.96-4.52-6.22-2.3-1.96-4.55-2.9-5.92-3.33-7.86,4.56-16.23,10.01-24.98,16.41Z"/>
          <path class="cls-2" d="M417.37,1878.59c4.14-5.56,8.79-11.78,8.79-11.78,8.81-11.68,17.59-23.29,26.34-35-32.04-5.25-54.14,2.28-64.56,6.9-22.02,9.73-36.68,26.06-56.79,48.88-.53.6-1.05,1.2-1.62,1.86,0,0-3.24,3.74-6.24,7.21-2.92,3.38-48.26,62.99-109.84,145.08,23.35,12.59,46.69,25.18,70.04,37.77,69.29-106.02,121.01-183.61,133.88-200.92Z"/>
          <path class="cls-2" d="M707.87,1572.46c-10.6,12.27-21.27,24.5-31.93,36.73,3.82,2.12,7.58,4.2,11.3,6.34,10.34-11.51,20.69-23.03,31.03-34.54,5.09-8.51,10.12-17.05,15.14-25.6-.26-.96-1.16-3.92-4.16-5.92-1.68-1.15-3.27-1.53-4.27-1.66-5.74,8.22-11.37,16.42-17.11,24.64Z"/>
        </g>
      </g>
      <g id="_x3C_Radial_Repeat_x3E_-12" data-name="_x3C_Radial_Repeat_x3E_">
        <g>
          <path class="cls-2" d="M608.9,1217.4l-.07.04c-1.06.34-2.09.76-3.11,1.17l-.07.04c-1.71.63-3.45,1.36-5.16,1.99,2.29,3.81,4.58,7.63,6.77,11.41,16.27-6.33,32.5-12.72,48.76-19.05,7.39-3.91,14.71-7.77,21.99-11.71-.21-1.14-.72-3.28-2.35-5.31-1.52-2.01-3.3-3.06-4.41-3.58-7.09,3.01-14.12,5.99-21.21,9-13.67,5.37-27.44,10.71-41.15,16Z"/>
          <path class="cls-2" d="M662.13,1214.52c-17.62,7.11-35.28,14.15-52.94,21.19,2.05,3.23,4.03,6.51,6.01,9.78,15.24-5.46,30.51-10.85,45.78-16.25,10.21-5.26,20.46-10.46,30.67-15.73-.14-1.18-.59-3.36-2.25-5.46-1.55-1.9-3.39-2.91-4.51-3.44-7.63,3.33-15.2,6.61-22.77,9.9Z"/>
          <path class="cls-2" d="M646.9,1198.61c4.66-2.24,9.31-4.48,13.97-6.71-.1-1.11-.44-3.26-1.97-5.44-.99-1.41-2.17-2.35-2.94-2.9-7.27,3.02-14.54,6.05-21.91,9.04-11.12,4.62-22.12,8.99-33.12,13.35l-.07.04c-2.43.95-4.85,1.9-7.28,2.85l4.84,8.38c3.45-1.36,7.01-2.69,10.46-4.05,12.68-4.89,25.33-9.67,38.02-14.56Z"/>
          <path class="cls-2" d="M605.09,1289.81l-.07.04c-.17.01-.28-.02-.46,0-9.76,1.04-18.8,2.56-27.09,4.28-1.66-3.19-4.06-7.03-7.27-11.03-1.93-2.4-4.18-4.89-6.8-7.25-3.77-3.41-7.46-6.06-10.76-8.03,10.3-6.04,20.61-12.08,30.87-18.19,6.52,7.23,13.07,14.36,19.55,21.52,5.7-2.93,11.4-5.86,17.03-8.75-8.75-14.69-17.57-29.34-26.32-44.03-1.59-2.6-3.15-5.3-4.74-7.9-4.5,2.51-8.93,4.98-13.44,7.49-17.67,9.84-35.47,19.76-53.2,29.63-24.46-2.55-52.62-3.87-83.41-2.23-7.71.39-15.58.97-23.57,1.8-19.85,2-40.7,5.38-62.08,10.51l-.13.08c-9.56,2.18-19.2,4.68-28.95,7.79l-.07.04c-3.03.85-6.01,1.76-9.03,2.78-16.74,5.52-32.45,11.71-46.96,18.28,8.11,1.09,19.34,3.53,31.66,9.4,6.84,3.26,12.66,6.93,17.6,10.66,6.69,4.88,11.71,9.82,15.23,13.74,8.25-1.79,16.44-3.54,24.69-5.33l.07-.04c17.3-3.77,34.52-7.49,51.86-11.19,8.14-1.82,16.33-3.57,24.44-5.28,19.54-4.25,39.01-8.46,58.55-12.71l.07-.04c7.87-1.66,15.78-3.43,23.65-5.09,3.9,3.16,7.9,6.35,12.25,9.51l.04.07c4.47,3.37,9.22,6.76,14.25,10.16,5.83,3.85,11.5,7.42,17.01,10.73,15.1-1.33,30.63-2.99,46.53-4.96,11.24-1.44,22.34-2.98,33.08-4.68.23-1.48.37-4.36-.81-7.65-1.01-2.84-2.49-4.78-3.46-5.84-9.09.02-19.06.55-29.83,1.72Z"/>
          <path class="cls-2" d="M258.17,1352.92c6.36-2.75,13.5-5.81,13.5-5.81,13.47-5.71,26.88-11.37,40.31-17.14-25.12-20.56-48.02-25.1-59.36-26.3-23.94-2.59-44.79,4.23-73.62,13.93-.75.25-1.51.51-2.33.8,0,0-4.67,1.62-9.01,3.13-4.22,1.47-73.29,30.42-167.66,70.72,13.92,22.58,27.84,45.15,41.77,67.73,113.02-57.18,196.6-98.5,216.4-107.06Z"/>
          <path class="cls-2" d="M662.82,1233.05c-15.31,5.33-30.67,10.58-46.02,15.84,2.25,3.75,4.47,7.43,6.61,11.14,14.72-4.8,29.43-9.6,44.15-14.4,8.66-4.82,17.29-9.71,25.91-14.6.26-.96.95-3.97-.64-7.2-.88-1.84-2.07-2.95-2.87-3.57-9.08,4.25-18.06,8.53-27.14,12.79Z"/>
        </g>
      </g>
    </g>
  </g>
</svg>