<?xml version="1.0" encoding="UTF-8"?>
<svg xmlns="http://www.w3.org/2000/svg" version="1.1" viewBox="0 0 71.31 69.28">
  <defs>
    <style>
      .cls-1 {
        fill: #fff;
      }
    </style>
  </defs>
  <!-- Generator: Adobe Illustrator 28.7.1, SVG Export Plug-In . SVG Version: 1.2.0 Build 142)  -->
  <g>
    <g id="Layer_1">
      <g>
        <path class="cls-1" d="M51.25,0h-31.4C10.72,0,3.25,7.47,3.25,16.6v31.4c0,9.13,7.47,16.6,16.6,16.6h31.4c9.13,0,16.6-7.47,16.6-16.6v-31.4c0-9.13-7.47-16.6-16.6-16.6ZM62.54,46.2c0,7.2-5.89,13.08-13.08,13.08h-27.8c-7.2,0-13.08-5.89-13.08-13.08v-27.8c0-7.2,5.89-13.08,13.08-13.08h27.8c7.2,0,13.08,5.89,13.08,13.08v27.8Z"/>
        <path class="cls-1" d="M35.88,15.84c-9.33,0-16.9,7.57-16.9,16.9s7.57,16.9,16.9,16.9,16.9-7.57,16.9-16.9-7.57-16.9-16.9-16.9ZM35.88,43.42c-5.9,0-10.68-4.78-10.68-10.68s4.78-10.68,10.68-10.68,10.68,4.78,10.68,10.68-4.78,10.68-10.68,10.68Z"/>
        <circle class="cls-1" cx="53.09" cy="15.24" r="4.42"/>
      </g>
    </g>
  </g>
</svg>